<svg width="50" height="50" viewBox="0 0 50 50" fill="none" xmlns="http://www.w3.org/2000/svg">
<path d="M28.3801 0.0220029C24.5781 -0.0893999 20.8589 0.222229 17.2224 0.956886C16.8701 1.18872 15.9836 1.64186 14.5627 2.3163C8.39757 5.23986 4.09582 9.85857 1.65744 16.1724C0.0363827 20.3771 -0.469359 25.1914 0.469869 29.6852C0.704674 30.8173 0.962051 31.9915 1.24202 33.2079C2.53646 36.4085 4.33212 39.3366 6.629 41.9921C12.3637 47.8393 19.3748 50.4844 27.6622 49.9274C30.1879 49.6323 32.4772 49.0406 34.5303 48.1524C40.7857 45.3011 45.1974 41.0136 47.7652 35.2899C50.6145 28.94 50.7816 21.3571 48.0226 15.2691C46.1953 11.2375 43.9887 8.19207 41.4029 6.13259C39.8465 4.8891 38.8215 4.05057 38.3278 3.617C36.8527 3.02988 35.1971 2.33286 33.3608 1.52594C31.6855 0.789786 30.1367 0.451053 28.3801 0.0220029ZM2.82696 25.0018C2.82696 19.1158 5.16474 13.4709 9.326 9.30879C13.4873 5.14676 19.1312 2.80856 25.0161 2.80856C27.9301 2.80856 30.8154 3.38263 33.5076 4.49794C36.1996 5.61325 38.6458 7.248 40.7062 9.30879C42.7666 11.3696 44.4011 13.8162 45.5162 16.5088C46.6314 19.2014 47.2053 22.0873 47.2053 25.0018C47.2053 27.9162 46.6314 30.8021 45.5162 33.4947C44.4011 36.1874 42.7666 38.6339 40.7062 40.6947C38.6458 42.7556 36.1996 44.3903 33.5076 45.5056C30.8154 46.6209 27.9301 47.195 25.0161 47.195C22.1022 47.195 19.2168 46.6209 16.5247 45.5056C13.8326 44.3903 11.3864 42.7556 9.326 40.6947C7.26557 38.6339 5.63111 36.1874 4.516 33.4947C3.40089 30.8021 2.82696 27.9162 2.82696 25.0018Z" fill="#065D44"/>
<path d="M30.8533 26.4563C30.8683 26.5045 30.8668 26.5617 30.8488 26.6279C30.8368 26.661 30.8127 26.6957 30.7765 26.7318C28.5038 28.9839 26.2731 31.2316 24.0845 33.4747C23.4945 34.0769 23.4614 34.7076 23.9853 35.367C24.0845 35.4934 24.211 35.5883 24.3645 35.6515C25.0268 35.9195 25.6093 35.8006 26.112 35.2947L35.4772 25.9595C36.1184 25.3182 36.1184 24.6784 35.4772 24.0401L26.121 14.7003C25.5883 14.1704 24.9937 14.0846 24.3374 14.4429C24.2411 14.4941 24.1568 14.5588 24.0845 14.6371C23.4494 15.3115 23.4599 15.9769 24.1162 16.6333L30.6682 23.182C31.0776 23.5884 30.9963 23.7495 30.4243 23.6652C30.045 23.605 29.6597 23.5779 29.2684 23.5839C24.6927 23.62 20.1877 23.6171 15.7535 23.5749C14.8233 23.5659 14.3281 24.0265 14.2679 24.9569C14.2618 25.0623 14.2679 25.1692 14.286 25.2775C14.3973 25.9972 14.8173 26.3569 15.5458 26.3569L30.7223 26.366C30.7513 26.3659 30.7794 26.3747 30.8028 26.3908C30.8263 26.407 30.844 26.4299 30.8533 26.4563Z" fill="#065D44"/>
</svg>
