<svg width="70" height="71" viewBox="0 0 70 71" fill="none" xmlns="http://www.w3.org/2000/svg">
<path d="M40.2615 48.9984C39.7865 49.4734 39.5015 50.0637 39.4065 50.7693C38.5652 57.1203 37.7916 63.1864 37.086 68.9674C37.0437 69.295 36.9073 69.6026 36.6939 69.8522C36.4804 70.1019 36.1992 70.2826 35.885 70.3719C33.6323 70.9962 32.3838 70.1344 32.1395 67.7867C31.556 62.0735 30.8707 56.0753 30.0836 49.7922C30.0554 49.553 29.9659 49.3248 29.8241 49.1302C29.6823 48.9356 29.493 48.7813 29.275 48.6826C29.057 48.5839 28.8179 48.5441 28.5812 48.5674C28.3446 48.5907 28.1187 48.6761 27.9259 48.8151C23.2983 52.0721 18.5215 55.7225 13.5954 59.7666C12.8355 60.4044 11.9602 60.6825 10.9695 60.6011C10.5658 60.5673 10.1787 60.4248 9.84965 60.1884C9.52058 59.952 9.26181 59.6307 9.10094 59.2588C8.94007 58.8869 8.88312 58.4783 8.93617 58.0766C8.98921 57.6749 9.15025 57.2952 9.40213 56.9778L21.4935 41.8739C21.6516 41.6721 21.7542 41.432 21.7906 41.1783C21.827 40.9245 21.7959 40.6661 21.7006 40.4298C21.6052 40.1935 21.449 39.9878 21.2481 39.8338C21.0471 39.6797 20.8086 39.5829 20.5571 39.5533L1.87051 37.0902C0.974856 36.9681 0.391323 36.4728 0.119913 35.6043C-0.124356 34.8036 0.00456834 34.0097 0.506677 33.2226C0.927363 32.5441 1.53802 32.1709 2.33868 32.1031L19.9261 30.4135C20.2658 30.3794 20.5902 30.2551 20.8656 30.0533C21.1411 29.8516 21.3575 29.5798 21.4925 29.2662C21.6275 28.9526 21.6761 28.6086 21.6334 28.2698C21.5906 27.9311 21.4579 27.61 21.2492 27.3398L10.2164 13.3554C10.0064 13.0902 9.85429 12.7839 9.76986 12.4564C9.68543 12.1288 9.67055 11.7872 9.72616 11.4535C9.78177 11.1199 9.90666 10.8016 10.0928 10.5191C10.2789 10.2367 10.5221 9.99627 10.8067 9.81349C12.0823 8.99926 13.3715 9.13499 14.6743 10.2206C18.9761 13.8304 23.3391 17.4876 27.763 21.1924C28.0189 21.4097 28.3286 21.5533 28.6597 21.6083C28.9908 21.6632 29.3311 21.6274 29.6452 21.5047C29.9593 21.382 30.2356 21.1768 30.4452 20.9106C30.6548 20.6444 30.79 20.3269 30.8367 19.9914L33.0962 2.54647C33.1912 1.80009 33.5373 1.20298 34.1344 0.755152C35.3557 -0.154072 36.4482 -0.242229 37.4117 0.490579C37.8731 0.856983 38.1648 1.67798 38.287 2.95361C38.8026 8.78893 39.359 14.5496 39.9562 20.2356C39.9907 20.5396 40.1051 20.829 40.2879 21.0743C40.4707 21.3196 40.7152 21.512 40.9966 21.632C41.278 21.752 41.5861 21.7952 41.8897 21.7573C42.1932 21.7195 42.4813 21.6018 42.7245 21.4163L57.116 10.3631C57.3566 10.1759 57.6317 10.038 57.9256 9.95718C58.2195 9.87634 58.5264 9.85414 58.8288 9.89195C59.1313 9.92976 59.4233 10.0268 59.6883 10.1775C59.9532 10.3282 60.1859 10.5296 60.373 10.7702C61.4315 12.1273 61.3568 13.4979 60.1491 14.8821C56.1458 19.4689 52.4749 23.8861 49.1366 28.1337C48.9479 28.369 48.8256 28.6501 48.7822 28.9485C48.7388 29.247 48.7758 29.5521 48.8895 29.8331C49.0031 30.1141 49.1894 30.361 49.4294 30.5488C49.6694 30.7365 49.9546 30.8584 50.2562 30.9021L68.4746 33.3854C69.2888 33.5076 69.7705 33.969 69.9198 34.7697C70.2998 36.9545 69.3295 38.1419 67.0089 38.3319C60.9701 38.8476 55.2501 39.3904 49.849 39.9604C49.5843 39.9877 49.332 40.0853 49.118 40.2434C48.9039 40.4015 48.7355 40.6144 48.6301 40.8604C48.5246 41.1065 48.4858 41.3769 48.5176 41.6443C48.5493 41.9117 48.6505 42.1665 48.8109 42.3828L59.8844 57.2425C60.163 57.6141 60.338 58.0529 60.3916 58.5142C60.4453 58.9755 60.3756 59.4427 60.1898 59.8683C59.4027 61.6732 58.0931 61.8767 56.2611 60.479C51.3622 56.7471 46.5921 52.8999 41.951 48.9373C41.7137 48.7322 41.4076 48.6245 41.0942 48.6359C40.7808 48.6472 40.4833 48.7767 40.2615 48.9984Z" fill="#6FA2D4"/>
</svg>
