<svg width="140" height="40" viewBox="0 0 140 40" fill="none" xmlns="http://www.w3.org/2000/svg">
<rect width="140" height="40" rx="20" fill="white" fill-opacity="0.5"/>
<path d="M123.588 21.2302C123.603 21.2784 123.601 21.3356 123.583 21.4018C123.571 21.4349 123.547 21.4696 123.511 21.5057C121.238 23.7579 119.007 26.0055 116.819 28.2486C116.229 28.8508 116.196 29.4815 116.72 30.1409C116.819 30.2674 116.945 30.3622 117.099 30.4254C117.761 30.6934 118.344 30.5745 118.846 30.0687L128.212 20.7334C128.853 20.0921 128.853 19.4523 128.212 18.814L118.855 9.47423C118.323 8.9443 117.728 8.85851 117.072 9.2168C116.975 9.26801 116.891 9.33273 116.819 9.41101C116.184 10.0854 116.194 10.7509 116.851 11.4072L123.403 17.9559C123.812 18.3624 123.731 18.5234 123.159 18.4392C122.779 18.3789 122.394 18.3518 122.003 18.3579C117.427 18.3939 16.9221 18.391 12.4879 18.3488C11.5576 18.3398 11.0625 18.8004 11.0023 19.7308C10.9962 19.8362 11.0023 19.9431 11.0203 20.0514C11.1317 20.7711 11.5516 21.1309 12.2801 21.1309L123.457 21.1399C123.486 21.1399 123.514 21.1486 123.537 21.1647C123.561 21.1809 123.578 21.2038 123.588 21.2302Z" fill="#065D44"/>
</svg>
