<svg width="86" height="80" viewBox="0 0 86 80" fill="none" xmlns="http://www.w3.org/2000/svg">
<path d="M55.13 49.059C54.9675 48.9598 54.8253 48.9789 54.7035 49.1163L54.4963 49.3681C54.4719 49.4062 54.5085 49.4711 54.606 49.5627L73.0939 66.858C73.2371 66.9912 73.3255 67.1678 73.3433 67.3564C73.3612 67.5449 73.3073 67.7333 73.1914 67.8882L72.8867 68.3002C72.4642 68.8726 71.9889 68.9107 71.4608 68.4147L53.2654 51.4284C53.1598 51.3292 53.0501 51.3254 52.9363 51.417L52.6195 51.6688C52.4651 51.7909 52.4448 51.9282 52.5585 52.0808C57.4578 58.5976 62.1864 65.1487 66.7444 71.7341C67.0694 72.1996 67.0044 72.6079 66.5494 72.9589L66.196 73.2336C66.1076 73.3009 66.0052 73.35 65.8954 73.378C65.7856 73.4059 65.6708 73.412 65.5584 73.3958C65.4459 73.3797 65.3383 73.3416 65.2424 73.2841C65.1466 73.2266 65.0645 73.1509 65.0016 73.0619L49.9018 52.0579C49.7799 51.8977 49.6377 51.8824 49.4752 52.0122L49.2314 52.2182C49.1502 52.2792 49.1217 52.3365 49.1461 52.3899C50.6411 54.9157 51.5551 56.7204 51.8882 57.804C52.8266 60.8144 54.3257 63.4356 55.6053 66.2857C57.1084 69.6433 58.4896 72.9627 59.749 76.244C59.7791 76.3189 59.7921 76.399 59.7872 76.4789C59.7823 76.5589 59.7596 76.637 59.7206 76.7082C59.6815 76.7794 59.627 76.8422 59.5605 76.8923C59.494 76.9425 59.4171 76.979 59.3346 76.9994L59.0299 77.0796C58.3393 77.2551 57.8518 77.0338 57.5675 76.4157C54.0251 68.7772 50.6045 61.0853 47.3059 53.3399C47.2409 53.1797 47.1271 53.1415 46.9646 53.2255L46.6965 53.3628C46.6397 53.3857 46.6193 53.4277 46.6356 53.4887L51.9735 78.2356C51.9996 78.3604 51.9969 78.4888 51.9659 78.6127C51.9348 78.7366 51.8759 78.8531 51.7931 78.9546C51.7103 79.0561 51.6054 79.1404 51.4853 79.2019C51.3652 79.2634 51.2326 79.3008 51.0961 79.3116L50.633 79.3459C50.3819 79.3642 50.1325 79.2949 49.9324 79.1513C49.7323 79.0077 49.5955 78.7999 49.5483 78.5676L44.4297 53.7406C44.4207 53.6939 44.3929 53.6524 44.352 53.6246C44.3111 53.5969 44.2603 53.5851 44.2103 53.5917L43.9057 53.6146C43.8082 53.6223 43.7594 53.6719 43.7594 53.7635C43.8 62.2337 43.7757 70.6963 43.6863 79.1513C43.6863 79.7008 43.3938 79.9755 42.8088 79.9755H42.4188C42.1903 79.9755 41.9707 79.8906 41.8068 79.7388C41.6429 79.587 41.5477 79.3804 41.5413 79.1628C41.3545 70.9444 41.326 62.7183 41.456 54.4846C41.456 54.3091 41.3951 54.1488 41.2732 54.0038C41.2001 53.9199 41.0945 53.8627 40.9563 53.8321C40.8832 53.8092 40.8386 53.836 40.8223 53.9123L35.5574 78.7393C35.536 78.838 35.4921 78.9312 35.4286 79.0125C35.3652 79.0938 35.2838 79.1612 35.1901 79.2101C35.0963 79.2591 34.9923 79.2884 34.8853 79.296C34.7784 79.3036 34.6709 79.2894 34.5703 79.2544L34.095 79.0827C33.5506 78.8843 33.3353 78.5142 33.4491 77.9724C35.2365 69.7463 36.8249 62.2146 38.2142 55.3774C38.8723 52.1266 38.5189 52.0274 37.154 55.0798L27.6358 76.2669C27.392 76.8087 26.9777 76.9842 26.3927 76.7934L25.9296 76.6446C25.8381 76.6157 25.754 76.5692 25.6827 76.5081C25.6114 76.447 25.5545 76.3727 25.5155 76.2897C25.4765 76.2068 25.4564 76.1171 25.4563 76.0265C25.4563 75.9359 25.4763 75.8462 25.5152 75.7632C28.7895 68.7047 31.9988 61.4058 35.1431 53.8665C36.0856 51.6001 35.8093 51.4589 34.3144 53.443C29.8539 59.334 25.2755 65.7248 20.5794 72.6155C20.2382 73.1115 19.767 73.268 19.1657 73.0848L18.8367 72.9703C18.7451 72.9426 18.6619 72.8949 18.5936 72.831C18.5253 72.7672 18.4737 72.6889 18.443 72.6024C18.4123 72.5158 18.4032 72.4234 18.4166 72.3323C18.4299 72.2412 18.4652 72.154 18.5198 72.0775C23.0697 65.7363 27.3474 59.6697 31.3529 53.8779C34.1966 49.7801 33.7659 49.452 30.061 52.8935L13.8277 68.0141C13.3971 68.4185 12.9624 68.4223 12.5237 68.0255L12.2922 67.8081C12.1925 67.718 12.1365 67.5928 12.1365 67.4599C12.1365 67.3269 12.1925 67.197 12.2922 67.0984L31.231 49.391C31.327 49.3042 31.3852 49.187 31.3942 49.0621C31.4032 48.9373 31.3624 48.8138 31.2797 48.7156C31.1904 48.6088 31.0766 48.5287 30.9385 48.4753C30.776 48.4142 30.6257 48.4295 30.4876 48.521L8.58724 62.2223C8.49602 62.2796 8.39261 62.3176 8.28416 62.3336C8.17571 62.3497 8.06485 62.3433 7.95929 62.3149C7.85373 62.2866 7.75602 62.237 7.67295 62.1696C7.58987 62.1022 7.52339 62.0186 7.47821 61.9247L7.31981 61.5813C7.25759 61.4465 7.24668 61.2961 7.28897 61.156C7.33126 61.016 7.42408 60.8951 7.55136 60.8144C14.2056 56.7242 20.7257 52.7028 27.1117 48.75C28.2167 48.0708 28.8789 47.5863 29.0983 47.2963C30.0245 46.0601 29.7401 45.732 28.2451 46.3119C20.1122 49.4864 12.1175 52.5502 4.26082 55.5033C4.12983 55.5525 3.98345 55.5513 3.85341 55.4999C3.72338 55.4485 3.62016 55.351 3.56614 55.2286L3.4077 54.8852C3.20458 54.4502 3.3427 54.1374 3.82206 53.9466C11.7681 50.8332 19.9213 48.1433 27.5992 44.595C27.9405 44.4347 28.042 44.1867 27.9039 43.851C27.7983 43.6068 27.6114 43.5037 27.3433 43.5419C18.7798 44.9994 10.2529 46.5866 1.76246 48.3036C1.3481 48.3875 1.10838 48.2311 1.04339 47.8343L0.982466 47.5138C0.884968 46.9262 1.14902 46.579 1.77462 46.4722C11.2075 44.9613 19.6613 43.3855 27.1361 41.7448C27.3392 41.6991 27.4449 41.5731 27.453 41.3671C27.453 41.0848 27.2986 40.936 26.9899 40.9207C18.0607 40.5392 9.31442 40.4743 0.750907 40.7261C0.668264 40.7276 0.586127 40.7137 0.509306 40.685C0.432484 40.6564 0.362534 40.6136 0.303521 40.5592C0.244508 40.5049 0.197607 40.44 0.165612 40.3684C0.133617 40.2968 0.117172 40.22 0.117188 40.1423V39.6731C0.125312 39.1847 0.38936 38.9443 0.909346 38.9519C9.52161 39.1351 17.4839 39.1274 24.7962 38.929C25.3568 38.9138 25.9215 38.8413 26.4902 38.7116C28.0583 38.3453 28.0502 38.0095 26.4658 37.7043L1.60402 32.977C1.31966 32.9236 1.18154 32.7595 1.18966 32.4848L1.20183 31.9697C1.20238 31.8916 1.22104 31.8146 1.2565 31.7439C1.29195 31.6733 1.34334 31.6107 1.40713 31.5606C1.47091 31.5105 1.54556 31.4741 1.62585 31.4538C1.70615 31.4335 1.7902 31.4299 1.87214 31.4432C8.63195 32.6488 15.7289 33.9728 23.1631 35.415C24.7393 35.7203 26.3277 35.8691 27.9283 35.8614C29.3826 35.8538 29.4395 35.5867 28.0989 35.0602L4.01706 25.5369C3.85148 25.471 3.71633 25.3518 3.63591 25.2008C3.55549 25.0497 3.53509 24.8767 3.57834 24.7127L3.67582 24.2778C3.74082 24.0183 3.90738 23.9382 4.1755 24.0374C11.5772 26.7922 19.2063 29.7415 27.063 32.8854C27.4774 33.0456 27.9039 33.1754 28.3427 33.2746C29.9757 33.618 30.1179 33.3242 28.7692 32.3932C22.3181 27.9292 15.3511 23.4689 7.86821 19.0125C7.66675 18.8944 7.50784 18.722 7.41219 18.5178C7.31654 18.3137 7.28859 18.0872 7.33197 17.8679L7.40509 17.4787C7.49446 17.0208 7.74636 16.9255 8.16072 17.1925C14.2624 21.1301 20.1894 24.7967 25.9418 28.1924C26.803 28.7037 27.587 29.2455 28.2939 29.8178C28.9276 30.3291 29.6101 30.7488 30.3413 31.0769C31.3326 31.5118 31.4747 31.3363 30.7679 30.5504C25.503 24.7356 19.4785 18.9133 12.6943 13.0833C12.5163 12.9299 12.4043 12.7206 12.3796 12.4948C12.3549 12.2691 12.4192 12.0427 12.5603 11.8586L12.7796 11.5838C12.8245 11.5257 12.8822 11.4772 12.9487 11.4417C13.0152 11.4062 13.089 11.3844 13.1652 11.3779C13.2414 11.3714 13.3182 11.3803 13.3904 11.404C13.4626 11.4276 13.5286 11.4656 13.584 11.5152L30.3413 27.0249C34.42 30.7945 34.8709 30.4473 31.6941 25.9833L18.5929 7.58909C18.3573 7.2457 18.4182 6.96335 18.7757 6.74205L19.1413 6.50167C19.2218 6.45041 19.3124 6.41475 19.4078 6.39678C19.5032 6.3788 19.6014 6.37888 19.6967 6.397C19.7921 6.41512 19.8826 6.45093 19.963 6.50232C20.0434 6.55371 20.1121 6.61965 20.165 6.69628L34.6922 27.0936C34.7837 27.2263 34.927 27.3204 35.0925 27.3566C35.2579 27.3928 35.4331 27.3683 35.5818 27.2882C35.8662 27.1355 35.9474 26.9219 35.8256 26.6472C32.3644 18.6042 29.0008 10.8932 25.7346 3.51419C25.564 3.12502 25.698 2.88846 26.1368 2.80452L26.4658 2.73585C27.0183 2.62902 27.4002 2.81979 27.6114 3.30816L37.8486 26.5442C37.9136 26.6815 38.0233 26.7273 38.1777 26.6815L38.5068 26.5899C38.7424 26.5213 38.8358 26.3725 38.787 26.1435L33.6075 1.32796C33.5181 0.908262 33.705 0.6946 34.1681 0.68697H34.7409C35.1472 0.68697 35.3909 0.870105 35.4721 1.23639L40.6517 25.4911C40.6718 25.5823 40.7271 25.6637 40.8077 25.7204C40.8882 25.7771 40.9885 25.8054 41.0904 25.8001L41.4439 25.7658C41.5251 25.7582 41.5698 25.7162 41.5779 25.6399L41.6876 0.70985C41.6957 0.259628 41.9395 0.0268864 42.4188 0.0116246L42.7723 0.000184612C43.276 -0.00744625 43.5279 0.221487 43.5279 0.68697C43.5116 9.32511 43.5157 17.4939 43.5401 25.1935C43.5401 27.2004 43.9138 27.2615 44.6613 25.3766C44.8319 24.9493 45.0269 24.19 45.2463 23.0988C46.8062 15.4603 48.358 8.14995 49.9018 1.16771C50.0318 0.572505 50.4095 0.355016 51.0352 0.515265L51.3398 0.595397C51.7054 0.686967 51.8517 0.912074 51.7786 1.27072L46.4893 26.2923C46.4081 26.6662 46.5625 26.8036 46.9524 26.7044C47.1799 26.651 47.3465 26.5174 47.4521 26.3038C50.9783 19.0163 54.3622 11.3969 57.604 3.44551C57.689 3.24364 57.8412 3.0726 58.0385 2.9573C58.2358 2.842 58.4679 2.78847 58.7009 2.80452L59.3224 2.85032C59.4135 2.85822 59.5013 2.88606 59.5788 2.93162C59.6564 2.97718 59.7215 3.03917 59.7689 3.11264C59.8163 3.1861 59.8447 3.26898 59.8518 3.35462C59.859 3.44026 59.8446 3.52628 59.8099 3.60576L49.6214 26.5556C49.1989 27.5171 49.4021 27.6544 50.2308 26.9677C50.7833 26.5098 51.2626 26.01 51.6689 25.4682C55.78 20.0045 60.2486 13.8044 65.0748 6.86796C65.416 6.37196 65.8507 6.28802 66.3788 6.61614L66.6469 6.79929C66.7147 6.84088 66.773 6.89476 66.8184 6.95777C66.8638 7.02078 66.8954 7.09166 66.9113 7.16626C66.9272 7.24087 66.9271 7.3177 66.911 7.39227C66.8949 7.46683 66.8631 7.53763 66.8175 7.60053L51.8151 28.8105C51.6689 29.0166 51.6973 29.1921 51.9004 29.3371C52.0873 29.4668 52.262 29.4553 52.4245 29.3027C58.8999 23.1675 65.2088 17.307 71.3511 11.7212C71.7736 11.3397 72.2246 11.3129 72.7039 11.6411L73.0208 11.8586C73.0721 11.8958 73.1143 11.943 73.1445 11.9969C73.1747 12.0509 73.1921 12.1103 73.1956 12.1712C73.199 12.232 73.1885 12.2929 73.1646 12.3495C73.1408 12.4062 73.1042 12.4574 73.0574 12.4995C66.6469 18.4669 60.2811 24.4228 53.9601 30.3672C53.8138 30.5122 53.7407 30.6763 53.7407 30.8594C53.7488 31.4012 53.9926 31.5233 54.4719 31.2257L77.201 17.1696C77.2723 17.1248 77.3543 17.0972 77.4397 17.0891C77.525 17.081 77.6112 17.0927 77.6907 17.1233C77.7701 17.1538 77.8403 17.2021 77.8952 17.2641C77.9501 17.3261 77.9879 17.3998 78.0053 17.4787L78.0906 17.8564C78.2288 18.4745 78.0175 18.9553 77.4569 19.2986C70.2665 23.6101 63.7586 27.6545 57.9331 31.4317C54.3582 33.7515 54.5816 34.1369 58.6034 32.5878L80.8693 24.026C80.9757 23.9856 81.0903 23.9677 81.205 23.9737C81.3198 23.9796 81.4321 24.0092 81.5341 24.0604C81.6361 24.1115 81.7254 24.1831 81.7958 24.27C81.8662 24.357 81.916 24.4573 81.9418 24.564L82.0393 24.9989C82.1449 25.4644 81.9621 25.7887 81.4909 25.9718C74.3654 28.6426 67.7884 31.1494 61.7598 33.4921C55.1869 36.0408 55.3778 36.6131 62.3326 35.209C68.475 33.9728 75.5476 32.6832 83.5505 31.3402C83.6471 31.3234 83.7465 31.3267 83.8416 31.35C83.9366 31.3733 84.0251 31.416 84.1007 31.475C84.1763 31.5339 84.2371 31.6078 84.2789 31.6913C84.3208 31.7748 84.3425 31.866 84.3426 31.9583V32.3131C84.3426 32.9236 84.0177 33.286 83.3677 33.4005C75.9254 34.6977 68.6984 36.056 61.6867 37.4754C60.533 37.7119 59.3143 37.8073 58.0306 37.7615C57.8193 37.7539 57.7137 37.8531 57.7137 38.0591C57.7137 38.1583 57.7503 38.2461 57.8234 38.3224C57.9354 38.4346 58.0706 38.5247 58.2212 38.5876C58.3719 38.6505 58.5349 38.6848 58.7009 38.6887C67.1262 38.7879 75.5882 38.8108 84.0867 38.7574C84.818 38.7497 85.2079 39.0893 85.2567 39.7761L85.2932 40.211C85.3176 40.6231 85.1105 40.8368 84.6717 40.852C77.6275 41.0123 70.2787 41.0084 62.6251 40.8406C61.4795 40.8177 60.338 40.8749 59.2005 41.0123C57.3887 41.2412 57.3765 41.5197 59.164 41.8479L83.4652 46.3577C84.172 46.4874 84.497 46.8919 84.4402 47.571L84.4036 47.9258C84.3954 48.0259 84.3646 48.1232 84.3133 48.2113C84.262 48.2994 84.1915 48.3763 84.1062 48.4369C84.021 48.4975 83.923 48.5404 83.8188 48.5628C83.7146 48.5852 83.6065 48.5866 83.5017 48.5668L59.5052 44.1714C56.0766 43.5457 55.971 43.8662 59.1884 45.1329L81.5152 53.8779C81.7662 53.9771 81.967 54.1632 82.0759 54.3976C82.1848 54.632 82.1935 54.8967 82.1002 55.137L81.9174 55.6521C81.8865 55.7366 81.8374 55.8142 81.7732 55.8801C81.709 55.9461 81.631 55.9989 81.5442 56.0354C81.4574 56.0719 81.3635 56.0913 81.2683 56.0923C81.1732 56.0933 81.0789 56.0759 80.9912 56.0413L56.2391 46.4378C56.0197 46.3539 55.91 46.4226 55.91 46.6439C55.9181 46.7965 55.9872 46.9147 56.1172 46.9987C63.6082 51.7756 70.9449 56.419 78.1272 60.9288C78.2931 61.036 78.4109 61.1969 78.4582 61.3807C78.5054 61.5645 78.4787 61.7582 78.3832 61.9247L78.1516 62.3253C78.0921 62.4245 78.0114 62.5111 77.9143 62.5797C77.8173 62.6484 77.706 62.6976 77.5873 62.7244C77.4686 62.7512 77.345 62.755 77.2241 62.7356C77.1032 62.7161 76.9875 62.6739 76.8841 62.6114L55.13 49.059Z" fill="#F3BE90"/>
</svg>
