<svg width="55" height="55" viewBox="0 0 55 55" fill="none" xmlns="http://www.w3.org/2000/svg">
<path d="M34.4678 44.699C34.3396 44.9961 34.2872 45.3077 34.3105 45.6339C34.4969 48.3831 34.5056 51.2372 34.3367 54.1962C34.3134 54.6272 34.0863 54.8427 33.6552 54.8427L21.5893 54.8515C20.902 54.8515 20.5613 54.5078 20.5671 53.8205L20.5933 44.83C20.5951 44.7482 20.5719 44.6678 20.5268 44.5995C20.4817 44.5312 20.4168 44.4783 20.3408 44.4479C20.2648 44.4175 20.1813 44.411 20.1015 44.4294C20.0217 44.4477 19.9495 44.4899 19.8943 44.5505L13.7784 50.981C13.6819 51.0825 13.566 51.1637 13.4375 51.2196C13.3091 51.2756 13.1708 51.3053 13.0307 51.307C12.8906 51.3086 12.7516 51.2821 12.6219 51.2291C12.4922 51.1761 12.3745 51.0977 12.2756 50.9984L3.87053 42.6196C3.71931 42.4645 3.63395 42.2569 3.63232 42.0403C3.63069 41.8237 3.71292 41.6149 3.86179 41.4575L9.74185 35.3154C10.4466 34.5814 10.2894 34.2232 9.27004 34.2407L0.830027 34.4242C0.72186 34.4265 0.614314 34.4072 0.513705 34.3674C0.413096 34.3276 0.32145 34.2681 0.244137 34.1925C0.166825 34.1168 0.105408 34.0264 0.0634857 33.9267C0.0215629 33.8269 -2.49996e-05 33.7198 2.17256e-08 33.6116L0.00873897 21.0739C0.00873897 20.9349 0.0639693 20.8016 0.16228 20.7032C0.260592 20.6049 0.393929 20.5497 0.532962 20.5497L9.31373 20.5235C10.4554 20.5177 10.6185 20.1158 9.80301 19.3178L4.08895 13.7173C3.96773 13.5979 3.87162 13.4554 3.80629 13.2983C3.74096 13.1412 3.70772 12.9726 3.70853 12.8024C3.70935 12.6323 3.7442 12.464 3.81103 12.3075C3.87787 12.151 3.97533 12.0095 4.09769 11.8912L12.3804 3.89683C12.5424 3.74183 12.7558 3.65233 12.9788 3.64587C13.2018 3.63941 13.4184 3.71643 13.5862 3.86187C15.6772 5.67336 17.6547 7.65959 19.5186 9.82057C20.171 10.5778 20.5292 10.4584 20.5933 9.46234C20.7622 6.87617 20.7156 4.07448 20.4535 1.05727C20.4426 0.92151 20.4598 0.784947 20.5042 0.656336C20.5485 0.527726 20.619 0.40989 20.7112 0.310378C20.8033 0.210866 20.915 0.131879 21.0391 0.0784459C21.1632 0.0250133 21.2971 -0.00168161 21.4321 8.20232e-05L33.3407 0.0175599C34.2028 0.0175599 34.6076 0.448586 34.5552 1.31064C34.3979 3.90847 34.3571 6.63153 34.4328 9.47982C34.4561 10.3011 34.759 10.4234 35.3415 9.84678L41.405 3.80945C41.5557 3.65992 41.7589 3.57528 41.9712 3.57365C42.1834 3.57202 42.3879 3.65352 42.5409 3.80072L51.1381 12.1534C51.2288 12.2413 51.3008 12.3466 51.35 12.4629C51.3992 12.5792 51.4246 12.7042 51.4246 12.8305C51.4246 12.9568 51.3992 13.0818 51.35 13.1981C51.3008 13.3144 51.2288 13.4197 51.1381 13.5076L44.8562 19.6236C44.7806 19.697 44.729 19.7911 44.7077 19.8941C44.6864 19.997 44.6965 20.1043 44.7367 20.2023C44.7768 20.3004 44.8452 20.3848 44.9334 20.4451C45.0215 20.5053 45.1253 20.5387 45.2319 20.541L54.1175 20.5497C54.3315 20.5497 54.5368 20.635 54.689 20.7872C54.8411 20.9393 54.9277 21.146 54.93 21.3622L54.9999 33.2185C55.0058 33.9524 54.6446 34.3164 53.9165 34.3106L45.4678 34.2494C45.3522 34.249 45.2391 34.2828 45.1427 34.3465C45.0463 34.4103 44.9709 34.5011 44.9261 34.6077C44.8812 34.7142 44.8689 34.8316 44.8907 34.9451C44.9124 35.0586 44.9673 35.1631 45.0484 35.2455L51.1993 41.4837C51.3454 41.6337 51.4264 41.8353 51.4248 42.0447C51.4232 42.2541 51.339 42.4544 51.1906 42.6021L42.8816 50.8062C42.2817 51.3945 41.6904 51.3887 41.108 50.7887L35.0619 44.5854C34.8056 44.3233 34.6076 44.3612 34.4678 44.699Z" fill="url(#paint0_linear_178_4951)"/>
<defs>
<linearGradient id="paint0_linear_178_4951" x1="5.92308" y1="-9.7201e-07" x2="63.4551" y2="18.9992" gradientUnits="userSpaceOnUse">
<stop stop-color="#FF7746"/>
<stop offset="1" stop-color="#FF6383"/>
</linearGradient>
</defs>
</svg>
