<svg xmlns="http://www.w3.org/2000/svg" width="61" height="61" fill="none" xmlns:v="https://vecta.io/nano"><style><![CDATA[.B{stroke:#ca8900}.C{stroke:#f1aa01}.D{stroke:#bd7301}.E{stroke:#c98200}.F{stroke:#fec000}.G{stroke:#ffde65}.H{stroke:#f2b101}.I{stroke:#f2c866}.J{stroke:#908668}.K{fill:#fdb800}.L{fill:#ffc700}.M{fill:#fff5ca}.N{fill:#954b00}.O{stroke:#caa065}.P{fill:#e59b02}.Q{stroke:#fed765}.R{stroke:#835904}.S{stroke:#5b3103}]]></style><g stroke-width="2"><path d="M45.891 10.633c-.4-.116-.578-.12-.534-.012a6.76 6.76 0 0 1 .252.786c.016.048-.002.068-.054.06a.07.07 0 0 1-.066-.06c-.108-.772-.524-1.388-1.248-1.848-.556-.352-1.076-.754-1.56-1.206a20.12 20.12 0 0 0-3.252-2.496.97.97 0 0 0-.468-.144.39.39 0 0 1-.372-.252c-.08-.184-.214-.314-.402-.39-1.512-.58-2.998-.894-4.458-.942-3.432-.114-6.894-.264-9.984 1.086-.089.04-.167.103-.224.182s-.092.172-.101.268c-.092 1.116.198 2.164.87 3.144" class="F"/><path d="M24.291 8.809c-.376-.108-.606-.348-.69-.72a1.24 1.24 0 0 0-.264-.51c-.308-.356-.546-.752-.714-1.188-.072-.18-.032-.328.12-.444.276-.212.4-.552.372-1.02" class="C"/><path d="M45.892 10.632l.03.228c.012.152.064.288.156.408.66.892.972 1.752.936 2.58-.052 1.22-.648 1.764-1.788 1.632l-4.95-.792c-.6-.12-1.158.066-1.686-.348-.14-.112-.302-.172-.486-.18a6.07 6.07 0 0 1-1.77-.372 8.9 8.9 0 0 0-1.68-.432c-1.832-.292-3.676-.764-5.532-1.416a.07.07 0 0 1-.018-.012l-.09-.12c-.08-.104-.186-.16-.318-.168-1.032-.084-1.542-.858-2.466-1.26l-1.164-.522" class="F"/><path d="M25.065 9.859l-.774-1.05" class="H"/><path d="M41.691 8.25a.58.58 0 0 0-.198-.42c-1.256-1.152-2.664-2.014-4.224-2.586l-1.83-.642a6.85 6.85 0 0 0-1.68-.342c-3.016-.244-6.084.066-9.204.93-1.878.522-.606 2.502.024 3.456.084.128.2.212.348.252l2.844.744a6.97 6.97 0 0 1 1.536.564c1.038.534 2.43.444 3.6.552a6.03 6.03 0 0 1 1.776.444c1.476.618 3.072.576 4.596 1.05a44.87 44.87 0 0 0 4.758 1.218c.324.064.526-.064.606-.384.136-.532.056-1.056-.24-1.572-.7-1.22-1.528-2.172-2.484-2.856-.066-.047-.12-.108-.16-.178s-.063-.149-.068-.23z" class="G"/><path d="M25.066 9.858l.558 1.458" class="C"/><path d="M25.624 11.317c-1.156-.912-1.972-2.012-2.448-3.3a.93.93 0 0 0-.21-.332c-.093-.094-.204-.168-.328-.216a.94.94 0 0 0-.389-.063c-.133.007-.263.041-.381.101-.096.048-.1.348-.012.9.344 2.156.454 4.194.33 6.114-.124 1.988-.87 3.672-2.238 5.052-.108.112-.238.18-.39.204-.2.032-.296.16-.288.384a.36.36 0 0 1-.216.366l-1.002.504c-.156.08-.302.176-.438.288l-3.294 2.76" class="D"/><path d="M14.319 24.078c-.204.356-.384.562-.54.618-.324.12-.358.018-.102-.306a5.73 5.73 0 0 1 1.08-1.05.14.14 0 0 0 .036-.216l-.12-.186c-.016-.02-.034-.026-.054-.018-.768.272-1.35.728-1.746 1.368-.196.32-.254.298-.174-.066.22-.972.768-1.516 1.644-1.632l.888-.12c.736-.176 1.314-.494 1.734-.954l1.644-1.806a.64.64 0 0 0 .18-.492c-.012-.2.04-.384.156-.552.976-1.392 1.67-2.914 2.082-4.566l.504-2.058" class="C"/><path d="M21.531 12.042l-.18-4.884a.31.31 0 0 0-.282-.33l-.372-.078" class="I"/><path d="M20.697 6.751c.032-.024-.1-.102-.396-.234" class="C"/><path d="M20.698 6.75l-3.702 5.052" class="Q"/><path d="M16.996 11.803c-1.076.608-1.574 1.58-1.494 2.916.012.204.122.312.33.324 1.844.112 3.394-.484 4.65-1.788.608-.636.87-1.688.786-3.156" class="F"/><path d="M21.268 10.099l.264 1.944" class="Q"/><path d="M14.32 24.078c-.096.352-.306.66-.63.924-.036.036-.04.074-.012.114a.64.64 0 0 0 .12.132c.015.013.033.022.053.027s.039.007.059.004.039-.01.056-.02.031-.024.043-.041a2.48 2.48 0 0 0 .204-.348c.04-.076.062-.07.066.018.004.052.004.106 0 .162 0 .012-.006.022-.018.03-.896.916-1.422 1.582-1.578 1.998a25.69 25.69 0 0 0-1.368 5.412c-.028.208-.11.428-.246.66-.16.272-.232.504-.216.696" class="E"/><path d="M10.851 33.847c.152.204-.034.318-.558.342" stroke="#c4a348"/><path d="M21.267 10.099l-.852 1.83a1.63 1.63 0 0 1-.42.564c-.796.7-1.812 1.116-3.048 1.248-.256.028-.392-.086-.408-.342-.02-.468.132-1 .456-1.596" class="G"/><path d="M25.623 11.316c.252.156.446.368.582.636" class="E"/><path d="M26.205 11.952c.076.756.532 1.334 1.368 1.734.068.032.086.082.054.15-.028.06-.072.096-.132.108-.236.048-.232.078.012.09a.71.71 0 0 1 .63.384.92.92 0 0 0 .396.384l2.712 1.452" class="D"/><path d="M31.246 16.255l2.508 1.578" class="E"/><path d="M33.754 17.832c2.568 1.568 5.298 2.752 8.19 3.552" class="B"/><path d="M41.943 21.385l4.194 1.116" class="E"/><path d="M46.137 22.5l3.522 1.614c.028.012.053.031.072.055a.19.19 0 0 1 .038.083.2.2 0 0 1-.004.093c-.009.03-.024.058-.046.081l-.108.12c-.04.044-.066.062-.078.054l-2.394-1.008c-1.156-.416-1.23-.274-.222.426 1.676 1.168 3.102 2.994 4.278 5.478" class="D"/><path d="M51.195 29.496l1.014 4.23" class="E"/><path d="M52.209 33.727l-7.236.012" stroke="#b08a67"/><path d="M44.973 33.739c-.052-.624.05-1.246.306-1.866.356-.852.552-1.43.588-1.734.126-.966.246-2.862-.324-3.672l-.498-.756c-.196-.32-.466-.63-.81-.93-.592-.52-1.074-1.124-1.446-1.812a.81.81 0 0 0-.414-.36l-3.594-1.434c-.188-.076-.372-.066-.552.03a2.05 2.05 0 0 1-1.134.258c-.38-.024-.448-.182-.204-.474.06-.072.076-.16.048-.264a.54.54 0 0 0-.306-.366c-1.316-.636-2.704-1.18-4.164-1.632-.834-.252-1.452-.804-2.37-.96-.616-.104-1.082-.422-1.398-.954a.76.76 0 0 0-.456-.36c-1.192-.376-2.36-.894-3.504-1.554a1.08 1.08 0 0 0-.886-.086 1.08 1.08 0 0 0-.65.608c-.92 2.224-2.114 4.144-3.582 5.76" class="D"/><path d="M19.623 21.181c-.624.432-1.178.912-1.662 1.44-.476.524-.764 1.17-.864 1.938-.408 3.132.112 6.202 1.56 9.21" class="B"/><path d="M18.657 33.768l-7.452-.072" stroke="#b08a67"/><path d="M11.206 33.696c-.012.076-.13.126-.354.15" stroke="#906c48"/><path d="M52.839 34.093c-.264-.056-.474-.178-.63-.366" stroke="#e4c167"/><path d="M51.195 29.496c.048-1.1-.132-2.12-.54-3.06a1.15 1.15 0 0 1-.072-.732l.144-.672a.61.61 0 0 0-.174-.6l-1.548-1.566a.8.8 0 0 0-.564-.252l-2.304-.114" class="C"/><path d="M41.944 21.385c.696.024 1.148-.002 1.356-.078.532-.196.548-.544.048-1.044-.145-.145-.328-.245-.528-.288l-4.488-1.002c-.728-.172-1.466-.49-2.214-.954l-2.25-1.236c-.2-.1-.338-.044-.414.168s.024.51.3.882" class="F"/><path d="M31.245 16.254c-.928-1.016-1.904-1.906-2.928-2.67-.04-.028-.084-.044-.132-.048s-.102.008-.15.036-.084.018-.12-.018l-1.71-1.602" class="C"/><path d="M44.974 33.738H43.42" stroke="#d8b268"/><path d="M43.42 33.738c.128-1.032.366-2.02.714-2.964.204-.568.302-1.096.294-1.584l.036-1.614c.016-.236-.09-.326-.318-.27l-.51.12" class="H"/><path d="M43.635 27.427c-.168.108-.258-.002-.27-.33" class="C"/><path d="M43.365 27.097l.294.036" class="I"/><path d="M43.659 27.133c-.184-1.348-.902-2.362-2.154-3.042-.2-.108-.328-.032-.384.228" class="D"/><path d="M41.122 24.318c-.116.04-.294-.044-.534-.252" class="H"/><path d="M40.587 24.067c.044-.024.09-.046.138-.066.032-.016.04-.042.024-.078-.14-.332-.388-.502-.744-.51-.24-.008-.422.088-.546.288-.08.132-.196.21-.348.234-.064.012-.094-.014-.09-.078.004-.056-.004-.114-.024-.174-.024-.076-.074-.126-.15-.15a.99.99 0 0 0-.486-.024" class="D"/><path d="M38.361 23.508c.156-.116.23-.234.222-.354-.009-.111-.058-.215-.138-.291a.44.44 0 0 0-.294-.123c-1.364-.044-2.564-.538-3.6-1.482-.48-.436-1.018-.726-1.614-.87a.62.62 0 0 1-.354-.234c-.172-.244-.4-.342-.684-.294a.83.83 0 0 1-.552-.096l-3.72-1.98c-1.616-.736-2.958-.482-4.026.762-.196.232-.31.496-.342.792-.036.372.116.616.456.732a1.39 1.39 0 0 0 .522.072c.324-.016.506.086.546.306" class="C"/><path d="M24.783 20.448a7.75 7.75 0 0 0-3.744.678c-.064.028-.096.076-.096.144l.006.246c.004.1.052.134.144.102l1.068-.342" class="D"/><path d="M22.162 21.277c-.38.612-.848 1.134-1.404 1.566a.61.61 0 0 0-.24.45.64.64 0 0 1-.042.156c-.172.432-.26.416-.264-.048-.012-.724.376-1.148 1.164-1.272l-.036-.168c-.028-.096-.086-.122-.174-.078-.584.288-.938.718-1.062 1.29-.052.24-.15.46-.294.66l-.762 1.032c-.144.2-.208.176-.192-.072a7.22 7.22 0 0 1 .618-2.508c.108-.252.066-.282-.126-.09l-.168.168c-.12-.244.028-.638.444-1.182" class="H"/><path d="M38.361 23.509c-.604.18-1.184.51-1.74.99" class="E"/><path d="M36.622 24.499c.028-.176.148-.384.36-.624.1-.12.076-.198-.072-.234l-2.388-.576c-.224-.052-.404-.17-.54-.354-.192-.256-.442-.358-.75-.306a.93.93 0 0 1-.666-.12l-4.206-2.598c-.692-.448-1.4-.542-2.124-.282-.196.068-.302.204-.318.408l-.09 1.05" class="F"/><path d="M25.827 20.862l-1.044-.414" class="E"/><path d="M36.622 24.498c-.476.436-.55.702-.222.798" class="B"/><path d="M36.399 25.297l-1.506 2.76c-.043.079-.069.167-.075.259a.65.65 0 0 0 .039.27c.272.684.708 1.136 1.308 1.356 2.656.972 4.99.434 7.002-1.614" class="G"/><path d="M43.168 28.327c.344.176.548.13.612-.138.096-.384.048-.638-.144-.762" class="F"/><path d="M43.42 33.738l-24.762.03" stroke="#e5c867"/><path d="M19.179 22.362c-.068 0-.13.012-.186.036-.116.048-.186.136-.21.264-.132.676-.386 1.298-.762 1.866-.016.02-.012.036.012.048l.132.078c.088.052.156.034.204-.054a6.03 6.03 0 0 0 .81-2.238z" class="H"/><path d="M22.162 21.276c.412-.252.874-.324 1.386-.216" class="B"/><path d="M23.548 21.061c-1.02.132-1.522.582-1.506 1.35a.54.54 0 0 1-.3.516c-.464.252-.87.558-1.218.918-.044.045-.078.1-.099.159s-.03.123-.025.186.024.124.054.18.073.104.124.141c.056.04.18.04.372 0" class="F"/><path d="M20.95 24.511a5.79 5.79 0 0 0-1.746 2.55.18.18 0 0 0 .018.15c.04.072.082.122.126.15.084.048.15.03.198-.054.092-.156.21-.298.354-.426" class="B"/><path d="M19.9 26.881c.18 3.744 5.226 4.164 7.734 2.658.262-.156.464-.395.574-.679s.121-.596.032-.887c-.304-1.004-.888-2.002-1.752-2.994" class="G"/><path d="M26.488 24.979c.572-.024.36-.362-.636-1.014" class="B"/><path d="M25.851 23.965c-.712-.808-1.762-.952-3.15-.432" class="H"/><path d="M22.702 23.532c-.372-1.828.564-2.584 2.808-2.268" class="F"/><path d="M25.51 21.264c.18.068.37.106.57.114.184.008.226-.066.126-.222-.072-.108-.198-.206-.378-.294" class="B"/><path d="M32.595 32.417c-.008-.122-.09-.234-.228-.312s-.319-.113-.505-.1-.36.074-.486.17-.191.218-.182.34.091.234.228.312.319.113.505.1.36-.074.486-.17.191-.218.182-.34z" class="G"/><path d="M25.509 21.264c-.724-.336-1.378-.404-1.962-.204" class="E"/><path d="M22.701 23.532l.216-.048" class="C"/><path d="M22.917 23.484l-1.968 1.026" class="E"/><path d="M25.852 23.965a.48.48 0 0 0-.204-.036c-.196.016-.228.096-.096.24l.366.408" class="D"/><path d="M25.918 24.576c-.404.056-.552.158-.444.306" class="I"/><path d="M25.474 24.883c-.712-.4-1.42-.518-2.124-.354" class="R"/><path d="M23.349 24.528c-.076-.24-.284-.378-.624-.414" class="I"/><path d="M22.725 24.114c.24-.028.372-.116.396-.264.036-.192-.032-.314-.204-.366" class="D"/><path d="M40.588 24.066c-.208-.064-.406-.09-.594-.078-.104.008-.188.044-.252.108-.104.108-.126.214-.066.318" class="B"/><path d="M39.675 24.414l-.882.168" class="S"/><path d="M38.794 24.582c-.608-.452-1.044-.506-1.308-.162" class="B"/><path d="M37.486 24.421l-1.086.876m-13.674-1.183c-1.272.464-2.214 1.386-2.826 2.766m6.588-1.902l-.57-.402" class="O"/><path d="M41.121 24.318c.056.104.14.184.252.24" class="B"/><path d="M41.374 24.559c-.284.072-.464.182-.54.33" class="G"/><path d="M40.834 24.888l-1.158-.474" stroke="#906f03"/><path d="M23.35 24.528c-1.744.536-2.17 1.908-1.278 4.116" class="J"/><path d="M22.072 28.644c1.872 1.56 3.308 1.364 4.308-.588.468-.912.38-1.75-.264-2.514" class="I"/><path d="M26.115 25.543c-.188-.296-.402-.516-.642-.66" class="J"/><path d="M38.793 24.582c-.356-.056-.696.03-1.02.258" class="B"/><path d="M37.774 24.841c-.004-.248-.1-.388-.288-.42" class="G"/><path d="M43.659 27.133l-2.286-2.574" class="O"/><path d="M26.116 25.542c.02.14-.098.264-.354.372a.38.38 0 0 0-.252.462c.27 1.5-.93 2.394-2.37 1.812a.52.52 0 0 0-.54.066l-.528.39" class="R"/><path d="M23.894 25.225a.51.51 0 0 0-.153-.167.58.58 0 0 0-.219-.091.69.69 0 0 0-.251-.002.77.77 0 0 0-.448.253.69.69 0 0 0-.129.216.58.58 0 0 0-.035.234c.005.078.026.151.064.217s.089.123.153.167a.58.58 0 0 0 .219.091.69.69 0 0 0 .251.002.77.77 0 0 0 .448-.253.69.69 0 0 0 .129-.216c.028-.077.04-.157.035-.234s-.026-.151-.064-.217z" class="J"/><path d="M37.774 24.841c-.1.048-.214.148-.342.3" class="O"/><path d="M37.431 25.141c-.712.808-.856 1.8-.432 2.976" class="J"/><path d="M37 28.117c.368 1.012 1.074 1.506 2.118 1.482 1.736-.048 2.654-1.018 2.754-2.91.032-.552-.13-.892-.486-1.02" class="I"/><path d="M41.386 25.669c-.128-.316-.312-.576-.552-.78" class="J"/><path d="M43.366 27.097c.028.44-.038.85-.198 1.23" class="Q"/><path d="M41.386 25.669c-.124.088-.226.176-.306.264a.63.63 0 0 0-.15.312c-.068.416-.188.834-.36 1.254-.156.372-.45.616-.882.732-.716.184-1.612.146-2.688-.114" class="R"/><path d="M37.432 25.141c.168-.036.322.028.462.192" class="S"/><path d="M37.895 25.333v.204c.007.136.056.266.141.373s.2.184.331.222.27.034.398-.012.239-.129.318-.241c.22-.316.136-.646-.252-.99" class="J"/><path d="M38.83 24.888c-.068-.108-.08-.21-.036-.306" class="S"/><path d="M38.831 24.889c-.404.068-.716.216-.936.444" class="O"/><path d="M53.109 34.41c-.356.22-.826.338-1.41.354" stroke="#a6a7ab"/><path d="M51.699 34.765l-6.33.066" stroke="#aaabae"/><path d="M45.37 34.831c-2.128-.24-4.268-.314-6.42-.222-.498.018-.96-.174-1.41-.174-4.424-.02-8.846-.02-13.266 0-3.612.018-8.43.324-12.678.258" stroke="#aeafb2"/><path d="M11.596 34.692a.88.88 0 0 1-.492-.114c-.168-.096-.21-.232-.126-.408l.228-.474" stroke="#aaabae"/><path d="M11.596 34.692l3.81.216c.552.008 1.05.164 1.494.468a.45.45 0 0 0 .312.078c.496-.04.912.148 1.248.564.616.76.826 1.584.63 2.472a.53.53 0 0 0 .138.498.64.64 0 0 0 .348.198.6.6 0 0 1 .438.36c.164.372.094.634-.21.786-.164.084-.18.192-.048.324a.43.43 0 0 0 .204.114c.043.009.085.026.121.05s.068.056.093.093.042.078.05.121.008.088 0 .131c-.14.676.046 1.234.558 1.674.024.024.052.038.084.042.112.012.15-.036.114-.144-.003-.009-.003-.019 0-.029s.009-.017.017-.023.017-.009.027-.01.02.002.028.008a.87.87 0 0 1 .252.312c.06.128.072.26.036.396-.084.3-.02.546.192.738.164.148.27.328.318.54l.204.936c.024.115.078.221.157.309s.18.153.293.189a.88.88 0 0 1 .588.57c.18.484.564.804 1.152.96.14.036.2.116.18.24a.5.5 0 0 0 .294.588l.99.51c.204.104.374.066.51-.114.18-.236.388-.262.624-.078.276.216.4.15.372-.198-.012-.144.06-.228.216-.252a.66.66 0 0 0 .576-.522c.24-.932.73-1.644 1.47-2.136.4-.264.834-.44 1.302-.528.368-.072.756-.24 1.164-.504.3-.192.456-.158.468.102" stroke="#8e9193"/><path d="M32.409 44.742c-.344.24-.54.496-.588.768-.044.228.052.354.288.378.44.036.738-.264.894-.9" stroke="#c5c6c7"/><path d="M33.004 44.988c.296-.108.532-.056.708.156a.53.53 0 0 0 .372.204c.404.04.728.2.972.48.14.156.306.248.498.276.16.028.286.11.378.246.248.36.658.488 1.23.384.284-.048.43-.198.438-.45.008-.192.076-.36.204-.504l.816-.906c.14-.156.2-.34.18-.552-.052-.508.142-.872.582-1.092.724-.36.946-.868.666-1.524-.064-.156-.09-.318-.078-.486l.228-3.276c.004-.046.019-.091.044-.129s.06-.071.1-.093a.58.58 0 0 0 .324-.612.33.33 0 0 1 .102-.282l.288-.288a.83.83 0 0 0 .222-.396c.096-.412.346-.636.75-.672 1.098-.096 2.19-.54 3.342-.642" stroke="#8e9193"/><path d="M51.7 34.765l-4.29.3a.52.52 0 0 0-.306.126c-.18.152-.378.194-.594.126-.047-.014-.096-.018-.145-.013s-.096.02-.138.044a.36.36 0 0 0-.11.093c-.03.038-.051.082-.064.128-.152.58-.2 1.132-.144 1.656a.66.66 0 0 1-.186.552 2.09 2.09 0 0 0-.534.918c-.006.027-.007.056-.001.084s.016.053.032.076.036.042.06.055.05.022.077.025c.128.012.232.068.312.168a.26.26 0 0 1-.03.408.74.74 0 0 1-.24.15c-.083.035-.155.091-.207.163s-.082.157-.087.245l-.258 4.53c-.008.14-.062.26-.162.36l-.144.15a.43.43 0 0 0-.132.3 2.76 2.76 0 0 1-.438 1.428c-.112.172-.164.362-.156.57.02.412-.102.786-.366 1.122a2.41 2.41 0 0 0-.426.816c-.312 1.02-.708 1.96-1.188 2.82-.092.168-.138.348-.138.54.012.582-.096 1.278-.486 1.716a9.36 9.36 0 0 0-1.194 1.704 2.35 2.35 0 0 1-.948.948l-1.674.852a.27.27 0 0 0-.162.372c.016.056.01.11-.018.162-.076.128-.19.198-.342.21l-4.092.336c-.106.008-.212-.015-.306-.066a.76.76 0 0 0-.444-.102 25.81 25.81 0 0 1-5.994-.306c-.084-.012-.154-.054-.21-.126-.076-.1-.174-.124-.294-.072-.876.42-1.592.142-2.148-.834-.011-.019-.014-.042-.008-.063s.019-.04.038-.051a.22.22 0 0 1 .174-.012c.356.12.366.096.03-.072l-1.14-.582c-.1-.052-.204-.06-.312-.024l-.246.09c-.216.076-.358.006-.426-.21a.42.42 0 0 0-.294-.294c-.208-.072-.32-.218-.336-.438-.028-.46-.24-.684-.636-.672-.156.004-.296-.044-.42-.144-.292-.232-.496-.48-.612-.744-.128-.284-.278-.54-.45-.768a17.21 17.21 0 0 1-1.548-2.544c-.324-.654-.072-1.284-.72-1.752a.62.62 0 0 1-.258-.696c.124-.516-.014-.938-.414-1.266a.28.28 0 0 1-.114-.276c.108-.848-.09-1.592-.594-2.232-.02-.024-.032-.052-.036-.084-.004-.076.02-.126.072-.15.112-.06.156-.15.132-.27l-.696-3.588c-.148-.896-.412-1.796-.792-2.7-.08-.188-.096-.378-.048-.57.136-.536-.036-1.034-.516-1.494-.74-.716-1.806-.898-3.198-.546" stroke="#86898c"/><path d="M33.55 47.509l.402-.906c.136-.296.042-.462-.282-.498a3.88 3.88 0 0 0-1.638.144.86.86 0 0 1-.54-.006c-1.348-.456-2.108.008-2.28 1.392-.12.936.2 1.82.96 2.652a.69.69 0 0 0 .528.234l2.172-.006c.215-.001.426-.06.611-.171s.334-.272.435-.463.147-.406.135-.622a1.2 1.2 0 0 0-.203-.604l-.234-.348c-.077-.116-.124-.25-.135-.39s.012-.28.069-.408z" stroke="#c5c6c7"/><path d="M33.004 44.988a.73.73 0 0 0-.012-.192c-.032-.148-.122-.208-.27-.18a.87.87 0 0 0-.312.126" stroke="#c9cacb"/><path d="M52.935 49.5c-.124.132-.19.232-.198.3l-.612 8.85c-.04.572-.324.874-.852.906" stroke="#565faa"/><path d="M51.274 59.557l-3.024-.246-36 .114" stroke="#717677"/><path d="M12.25 59.425c-.532-.048-.84-.606-.924-1.674l-.594-8.982" stroke="#565faa"/><path d="M12.249 59.425c.16.268.086.46-.222.576m39.522 0c.028-.104-.064-.252-.276-.444" stroke="#454f98"/></g><path d="M45.893 10.632c-.4-.116-.578-.12-.534-.012a6.76 6.76 0 0 1 .252.786c.016.048-.002.068-.054.06a.07.07 0 0 1-.066-.06c-.108-.772-.524-1.388-1.248-1.848-.556-.352-1.076-.754-1.56-1.206a20.12 20.12 0 0 0-3.252-2.496.97.97 0 0 0-.468-.144.39.39 0 0 1-.372-.252c-.08-.184-.214-.314-.402-.39-1.512-.58-2.998-.894-4.458-.942-3.432-.114-6.894-.264-9.984 1.086-.089.04-.167.103-.224.182s-.092.172-.101.268c-.092 1.116.198 2.164.87 3.144-.376-.108-.606-.348-.69-.72a1.24 1.24 0 0 0-.264-.51c-.308-.356-.546-.752-.714-1.188-.072-.18-.032-.328.12-.444.276-.212.4-.552.372-1.02 4.248-1.58 8.718-1.866 13.41-.858a12.69 12.69 0 0 1 5.46 2.64c1.424 1.176 2.726 2.484 3.906 3.924z" class="K"/><path d="M45.893 10.633l.03.228c.012.152.064.288.156.408.66.892.972 1.752.936 2.58-.052 1.22-.648 1.764-1.788 1.632l-4.95-.792c-.6-.12-1.158.066-1.686-.348-.14-.112-.302-.172-.486-.18a6.07 6.07 0 0 1-1.77-.372 8.9 8.9 0 0 0-1.68-.432c-1.832-.292-3.676-.764-5.532-1.416a.07.07 0 0 1-.018-.012l-.09-.12c-.08-.104-.186-.16-.318-.168-1.032-.084-1.542-.858-2.466-1.26l-1.164-.522-.774-1.05c-.672-.98-.962-2.028-.87-3.144.009-.097.044-.189.101-.268s.134-.142.224-.182c3.09-1.35 6.552-1.2 9.984-1.086 1.46.048 2.946.362 4.458.942.188.076.322.206.402.39a.39.39 0 0 0 .372.252.97.97 0 0 1 .468.144 20.12 20.12 0 0 1 3.252 2.496c.484.452 1.004.854 1.56 1.206.724.46 1.14 1.076 1.248 1.848a.07.07 0 0 0 .066.06c.052.008.07-.012.054-.06a6.76 6.76 0 0 0-.252-.786c-.044-.108.134-.104.534.012zm-4.2-2.382a.58.58 0 0 0-.198-.42c-1.256-1.152-2.664-2.014-4.224-2.586l-1.83-.642a6.85 6.85 0 0 0-1.68-.342c-3.016-.244-6.084.066-9.204.93-1.878.522-.606 2.502.024 3.456.084.128.2.212.348.252.948.268 1.896.516 2.844.744a6.97 6.97 0 0 1 1.536.564c1.038.534 2.43.444 3.6.552a6.03 6.03 0 0 1 1.776.444c1.476.618 3.072.576 4.596 1.05a44.87 44.87 0 0 0 4.758 1.218c.324.064.526-.064.606-.384.136-.532.056-1.056-.24-1.572-.7-1.22-1.528-2.172-2.484-2.856-.066-.047-.12-.108-.16-.178s-.063-.149-.068-.23z" class="L"/><path d="M41.919 8.658c.956.684 1.784 1.636 2.484 2.856.296.516.376 1.04.24 1.572-.08.32-.282.448-.606.384a44.87 44.87 0 0 1-4.758-1.218c-1.524-.474-3.12-.432-4.596-1.05a6.03 6.03 0 0 0-1.776-.444c-1.17-.108-2.562-.018-3.6-.552a6.97 6.97 0 0 0-1.536-.564l-2.844-.744c-.148-.04-.264-.124-.348-.252-.63-.954-1.902-2.934-.024-3.456 3.12-.864 6.188-1.174 9.204-.93a6.85 6.85 0 0 1 1.68.342l1.83.642c1.56.572 2.968 1.434 4.224 2.586a.58.58 0 0 1 .198.42c.005.081.029.159.068.23s.094.131.16.178z" class="M"/><path d="M23.117 4.926c.028.468-.096.808-.372 1.02-.152.116-.192.264-.12.444.168.436.406.832.714 1.188a1.24 1.24 0 0 1 .264.51c.084.372.314.612.69.72l.774 1.05.558 1.458c-1.156-.912-1.972-2.012-2.448-3.3a.93.93 0 0 0-.209-.332c-.093-.094-.205-.168-.328-.216s-.256-.07-.389-.063-.263.041-.381.101c-.096.048-.1.348-.012.9.344 2.156.454 4.194.33 6.114-.124 1.988-.87 3.672-2.238 5.052-.108.112-.238.18-.39.204-.2.032-.296.16-.288.384a.36.36 0 0 1-.216.366l-1.002.504c-.156.08-.302.176-.438.288l-3.294 2.76c-.204.356-.384.562-.54.618-.324.12-.358.018-.102-.306a5.73 5.73 0 0 1 1.08-1.05.14.14 0 0 0 .036-.216l-.12-.186c-.016-.02-.034-.026-.054-.018-.768.272-1.35.728-1.746 1.368-.196.32-.254.298-.174-.066.22-.972.768-1.516 1.644-1.632l.888-.12c.736-.176 1.314-.494 1.734-.954l1.644-1.806a.64.64 0 0 0 .18-.492c-.012-.2.04-.384.156-.552.976-1.392 1.67-2.914 2.082-4.566l.504-2.058-.18-4.884a.31.31 0 0 0-.282-.33l-.372-.078c.032-.024-.1-.102-.396-.234l2.814-1.59z" class="P"/><path d="M20.303 6.516c.296.132.428.21.396.234l-3.702 5.052c-1.076.608-1.574 1.58-1.494 2.916.012.204.122.312.33.324 1.844.112 3.394-.484 4.65-1.788.608-.636.87-1.688.786-3.156l.264 1.944-.504 2.058c-.412 1.652-1.106 3.174-2.082 4.566-.116.168-.168.352-.156.552a.64.64 0 0 1-.18.492l-1.644 1.806c-.42.46-.998.778-1.734.954l-.888.12c-.876.116-1.424.66-1.644 1.632-.08.364-.022.386.174.066.396-.64.978-1.096 1.746-1.368.02-.008.038-.002.054.018l.12.186a.14.14 0 0 1-.036.216 5.73 5.73 0 0 0-1.08 1.05c-.256.324-.222.426.102.306.156-.056.336-.262.54-.618-.096.352-.306.66-.63.924-.036.036-.04.074-.012.114a.64.64 0 0 0 .12.132c.015.013.033.022.053.027s.039.007.059.004.039-.01.056-.02.031-.024.043-.041a2.48 2.48 0 0 0 .204-.348c.04-.076.062-.07.066.018.004.052.004.106 0 .162 0 .012-.006.022-.018.03-.896.916-1.422 1.582-1.578 1.998a25.69 25.69 0 0 0-1.368 5.412c-.028.208-.11.428-.246.66-.16.272-.232.504-.216.696.152.204-.034.318-.558.342.144-8.784 2.214-17.514 7.266-24.816.504-.732 1.418-1.684 2.742-2.856z" class="K"/><path d="M20.699 6.75l.372.078a.31.31 0 0 1 .282.33l.18 4.884-.264-1.944-.852 1.83a1.63 1.63 0 0 1-.42.564c-.796.7-1.812 1.116-3.048 1.248-.256.028-.392-.086-.408-.342-.02-.468.132-1 .456-1.596l3.702-5.052z" class="M"/><path d="M25.624 11.316c.252.156.446.368.582.636.076.756.532 1.334 1.368 1.734.068.032.086.082.054.15-.028.06-.072.096-.132.108-.236.048-.232.078.012.09a.71.71 0 0 1 .63.384.92.92 0 0 0 .396.384l2.712 1.452 2.508 1.578c2.568 1.568 5.298 2.752 8.19 3.552l4.194 1.116 3.522 1.614c.028.012.053.031.072.055s.032.052.038.083.004.062-.004.093-.024.058-.046.081l-.108.12c-.04.044-.066.062-.078.054l-2.394-1.008c-1.156-.416-1.23-.274-.222.426 1.676 1.168 3.102 2.994 4.278 5.478l1.014 4.23-7.236.012c-.052-.624.05-1.246.306-1.866.356-.852.552-1.43.588-1.734.126-.966.246-2.862-.324-3.672l-.498-.756c-.196-.32-.466-.63-.81-.93-.592-.52-1.074-1.124-1.446-1.812a.81.81 0 0 0-.414-.36l-3.594-1.434c-.188-.076-.372-.066-.552.03a2.05 2.05 0 0 1-1.134.258c-.38-.024-.448-.182-.204-.474.06-.072.076-.16.048-.264a.54.54 0 0 0-.306-.366c-1.316-.636-2.704-1.18-4.164-1.632-.834-.252-1.452-.804-2.37-.96-.616-.104-1.082-.422-1.398-.954a.76.76 0 0 0-.456-.36c-1.192-.376-2.36-.894-3.504-1.554a1.08 1.08 0 0 0-.886-.087 1.08 1.08 0 0 0-.65.609c-.92 2.224-2.114 4.144-3.582 5.76-.624.432-1.178.912-1.662 1.44-.476.524-.764 1.17-.864 1.938-.408 3.132.112 6.202 1.56 9.21l-7.452-.072c-.012.076-.13.126-.354.15-.016-.192.056-.424.216-.696.136-.232.218-.452.246-.66a25.69 25.69 0 0 1 1.368-5.412c.156-.416.682-1.082 1.578-1.998.012-.008.018-.018.018-.03.004-.056.004-.11 0-.162-.004-.088-.026-.094-.066-.018a2.48 2.48 0 0 1-.204.348c-.011.016-.026.03-.043.041s-.036.017-.056.02-.04.002-.059-.004-.037-.015-.053-.027a.64.64 0 0 1-.12-.132c-.028-.04-.024-.078.012-.114.324-.264.534-.572.63-.924l3.294-2.76c.136-.112.282-.208.438-.288l1.002-.504a.36.36 0 0 0 .216-.366c-.008-.224.088-.352.288-.384.152-.024.282-.092.39-.204 1.368-1.38 2.114-3.064 2.238-5.052.124-1.92.014-3.958-.33-6.114-.088-.552-.084-.852.012-.9.119-.06.249-.095.382-.101a.94.94 0 0 1 .389.063c.124.048.235.122.328.216a.93.93 0 0 1 .209.332c.476 1.288 1.292 2.388 2.448 3.3z" class="N"/><path d="M25.066 9.858l1.164.522c.924.402 1.434 1.176 2.466 1.26.132.008.238.064.318.168l.09.12a.07.07 0 0 0 .018.012c1.856.652 3.7 1.124 5.532 1.416a8.9 8.9 0 0 1 1.68.432 6.07 6.07 0 0 0 1.77.372c.184.008.346.068.486.18.528.414 1.086.228 1.686.348l4.95.792c1.14.132 1.736-.412 1.788-1.632.036-.828-.276-1.688-.936-2.58-.092-.12-.144-.256-.156-.408l-.03-.228c4.908 6.72 7.104 15.144 6.948 23.46-.264-.056-.474-.178-.63-.366l-1.014-4.23c.048-1.1-.132-2.12-.54-3.06a1.15 1.15 0 0 1-.072-.732l.144-.672a.61.61 0 0 0-.174-.6l-1.548-1.566a.8.8 0 0 0-.564-.252l-2.304-.114-4.194-1.116c.696.024 1.148-.002 1.356-.078.532-.196.548-.544.048-1.044-.145-.145-.328-.245-.528-.288l-4.488-1.002c-.728-.172-1.466-.49-2.214-.954-.728-.448-1.478-.86-2.25-1.236-.2-.1-.338-.044-.414.168s.024.51.3.882l-2.508-1.578c-.928-1.016-1.904-1.906-2.928-2.67-.04-.028-.084-.044-.132-.048s-.102.008-.15.036-.084.018-.12-.018l-1.71-1.602c-.136-.268-.33-.48-.582-.636l-.558-1.458z" class="K"/><path d="M21.268 10.098c.084 1.468-.178 2.52-.786 3.156-1.256 1.304-2.806 1.9-4.65 1.788-.208-.012-.318-.12-.33-.324-.08-1.336.418-2.308 1.494-2.916-.324.596-.476 1.128-.456 1.596.016.256.152.37.408.342 1.236-.132 2.252-.548 3.048-1.248a1.63 1.63 0 0 0 .42-.564l.852-1.83z" class="L"/><path d="M26.205 11.952l1.71 1.602c.036.036.076.042.12.018s.098-.04.15-.036.092.02.132.048c1.024.764 2 1.654 2.928 2.67l-2.712-1.452a.92.92 0 0 1-.396-.384.71.71 0 0 0-.63-.384c-.244-.012-.248-.042-.012-.09.06-.012.104-.048.132-.108.032-.068.014-.118-.054-.15-.836-.4-1.292-.978-1.368-1.734zm18.769 21.786H43.42c.128-1.032.366-2.02.714-2.964.204-.568.302-1.096.294-1.584l.036-1.614c.016-.236-.09-.326-.318-.27l-.51.12c-.168.108-.258-.002-.27-.33l.294.036c-.184-1.348-.902-2.362-2.154-3.042-.2-.108-.328-.032-.384.228-.116.04-.294-.044-.534-.252.044-.024.09-.046.138-.066.032-.016.04-.042.024-.078-.14-.332-.388-.502-.744-.51-.24-.008-.422.088-.546.288-.08.132-.196.21-.348.234-.064.012-.094-.014-.09-.078.004-.056-.004-.114-.024-.174-.024-.076-.074-.126-.15-.15a.99.99 0 0 0-.486-.024c.156-.116.23-.234.222-.354a.45.45 0 0 0-.138-.291.44.44 0 0 0-.294-.123c-1.364-.044-2.564-.538-3.6-1.482-.48-.436-1.018-.726-1.614-.87a.62.62 0 0 1-.354-.234c-.172-.244-.4-.342-.684-.294a.83.83 0 0 1-.552-.096l-3.72-1.98c-1.616-.736-2.958-.482-4.026.762-.196.232-.31.496-.342.792-.036.372.116.616.456.732a1.39 1.39 0 0 0 .522.072c.324-.016.506.086.546.306a7.75 7.75 0 0 0-3.744.678c-.064.028-.096.076-.096.144l.006.246c.004.1.052.134.144.102l1.068-.342c-.38.612-.848 1.134-1.404 1.566a.61.61 0 0 0-.24.45.64.64 0 0 1-.042.156c-.172.432-.26.416-.264-.048-.012-.724.376-1.148 1.164-1.272l-.036-.168c-.028-.096-.086-.122-.174-.078-.584.288-.938.718-1.062 1.29-.052.24-.15.46-.294.66l-.762 1.032c-.144.2-.208.176-.192-.072a7.22 7.22 0 0 1 .618-2.508c.108-.252.066-.282-.126-.09l-.168.168c-.12-.244.028-.638.444-1.182 1.468-1.616 2.662-3.536 3.582-5.76a1.08 1.08 0 0 1 1.536-.522c1.144.66 2.312 1.178 3.504 1.554a.76.76 0 0 1 .456.36c.316.532.782.85 1.398.954.918.156 1.536.708 2.37.96 1.46.452 2.848.996 4.164 1.632a.54.54 0 0 1 .306.366c.028.104.012.192-.048.264-.244.292-.176.45.204.474a2.05 2.05 0 0 0 1.134-.258c.18-.096.364-.106.552-.03l3.594 1.434a.81.81 0 0 1 .414.36c.372.688.854 1.292 1.446 1.812.344.3.614.61.81.93l.498.756c.57.81.45 2.706.324 3.672-.036.304-.232.882-.588 1.734-.256.62-.358 1.242-.306 1.866z" class="P"/><path d="M41.944 21.385c-2.892-.8-5.622-1.984-8.19-3.552-.276-.372-.376-.666-.3-.882s.214-.268.414-.168l2.25 1.236c.748.464 1.486.782 2.214.954l4.488 1.002c.2.043.383.143.528.288.5.5.484.848-.048 1.044-.208.076-.66.102-1.356.078z" class="L"/><path d="M38.361 23.508c-.604.18-1.184.51-1.74.99.028-.176.148-.384.36-.624.1-.12.076-.198-.072-.234l-2.388-.576c-.224-.052-.404-.17-.54-.354-.192-.256-.442-.358-.75-.306a.93.93 0 0 1-.666-.12l-4.206-2.598c-.692-.448-1.4-.542-2.124-.282-.196.068-.302.204-.318.408l-.09 1.05-1.044-.414c-.04-.22-.222-.322-.546-.306a1.39 1.39 0 0 1-.522-.072c-.34-.116-.492-.36-.456-.732.032-.296.146-.56.342-.792 1.068-1.244 2.41-1.498 4.026-.762.6.276 1.84.936 3.72 1.98a.83.83 0 0 0 .552.096c.284-.048.512.05.684.294a.62.62 0 0 0 .354.234c.596.144 1.134.434 1.614.87 1.036.944 2.236 1.438 3.6 1.482a.44.44 0 0 1 .294.123c.08.076.129.18.138.291.008.12-.066.238-.222.354z" class="K"/><path d="M36.621 24.498c-.476.436-.55.702-.222.798l-1.506 2.76a.63.63 0 0 0-.075.258.65.65 0 0 0 .039.27c.272.684.708 1.136 1.308 1.356 2.656.972 4.99.434 7.002-1.614.344.176.548.13.612-.138.096-.384.048-.638-.144-.762l.51-.12c.228-.056.334.034.318.27l-.036 1.614c.008.488-.09 1.016-.294 1.584-.348.944-.586 1.932-.714 2.964l-24.762.03c-1.448-3.008-1.968-6.078-1.56-9.21.1-.768.388-1.414.864-1.938.484-.528 1.038-1.008 1.662-1.44-.416.544-.564.938-.444 1.182-.068 0-.13.012-.186.036-.116.048-.186.136-.21.264-.132.676-.386 1.298-.762 1.866-.016.02-.012.036.012.048l.132.078c.088.052.156.034.204-.054a6.03 6.03 0 0 0 .81-2.238l.168-.168c.192-.192.234-.162.126.09a7.22 7.22 0 0 0-.618 2.508c-.016.248.048.272.192.072l.762-1.032c.144-.2.242-.42.294-.66.124-.572.478-1.002 1.062-1.29.088-.044.146-.018.174.078l.042.15c-.794.142-1.182.566-1.17 1.29.004.464.092.48.264.048a.64.64 0 0 0 .042-.156.61.61 0 0 1 .24-.45c.556-.432 1.024-.954 1.404-1.566.412-.252.874-.324 1.386-.216-1.02.132-1.522.582-1.506 1.35a.54.54 0 0 1-.3.516c-.464.252-.87.558-1.218.918-.044.045-.078.1-.099.159s-.03.123-.025.186.024.124.054.18.073.104.124.141c.056.04.18.04.372 0a5.79 5.79 0 0 0-1.746 2.55.18.18 0 0 0 .018.15c.04.072.082.122.126.15.084.048.15.03.198-.054.092-.156.21-.298.354-.426.18 3.744 5.226 4.164 7.734 2.658.262-.156.464-.396.574-.679s.121-.596.032-.887c-.304-1.004-.888-2.002-1.752-2.994.572-.024.36-.362-.636-1.014-.712-.808-1.762-.952-3.15-.432-.372-1.828.564-2.584 2.808-2.268.18.068.37.106.57.114.184.008.226-.066.126-.222-.072-.108-.198-.206-.378-.294l.09-1.05c.016-.204.122-.34.318-.408.724-.26 1.432-.166 2.124.282l4.206 2.598a.93.93 0 0 0 .666.12c.308-.052.558.05.75.306.136.184.316.302.54.354l2.388.576c.148.036.172.114.072.234-.212.24-.332.448-.36.624zm-4.028 7.919c-.009-.122-.09-.234-.228-.312s-.319-.113-.505-.1-.36.074-.486.17-.191.218-.182.34.09.234.228.312.319.113.505.1.36-.074.486-.17.191-.218.182-.34z" class="L"/><path d="M24.783 20.448l1.044.414c.18.088.306.186.378.294.1.156.058.23-.126.222-.2-.008-.39-.046-.57-.114-.724-.336-1.378-.404-1.962-.204-.512-.108-.974-.036-1.386.216l-1.068.342c-.092.032-.14-.002-.144-.102l-.006-.246c0-.068.032-.116.096-.144a7.75 7.75 0 0 1 3.744-.678z" class="N"/><path d="M23.548 21.06c.584-.2 1.238-.132 1.962.204-2.244-.316-3.18.44-2.808 2.268l.216-.048-1.968 1.026c-.192.04-.316.04-.372 0-.051-.038-.093-.086-.124-.141s-.049-.117-.054-.18.003-.127.025-.186.055-.114.099-.159c.348-.36.754-.666 1.218-.918a.54.54 0 0 0 .3-.516c-.016-.768.486-1.218 1.506-1.35z" class="K"/><path d="M19.179 22.362a6.03 6.03 0 0 1-.81 2.238c-.048.088-.116.106-.204.054l-.132-.078c-.024-.012-.028-.028-.012-.048.376-.568.63-1.19.762-1.866.024-.128.094-.216.21-.264.056-.024.118-.036.186-.036zm26.96.138l2.304.114a.8.8 0 0 1 .564.252l1.548 1.566a.61.61 0 0 1 .174.6l-.144.672a1.15 1.15 0 0 0 .072.732c.408.94.588 1.96.54 3.06-1.176-2.484-2.602-4.31-4.278-5.478-1.008-.7-.934-.842.222-.426.692.248 1.49.584 2.394 1.008.012.008.038-.01.078-.054l.108-.12a.21.21 0 0 0 .046-.081c.009-.03.01-.062.004-.093s-.019-.059-.038-.083-.044-.043-.072-.055L46.139 22.5zm-20.288 1.464a.48.48 0 0 0-.204-.036c-.196.016-.228.096-.096.24l.366.408c-.404.056-.552.158-.444.306-.712-.4-1.42-.518-2.124-.354-.076-.24-.284-.378-.624-.414.24-.028.372-.116.396-.264.036-.192-.032-.314-.204-.366l-.216.048c1.388-.52 2.438-.376 3.15.432z" class="P"/><path d="M40.588 24.066c-.208-.064-.406-.09-.594-.078-.104.008-.188.044-.252.108-.104.108-.126.214-.066.318l-.882.168c-.608-.452-1.044-.506-1.308-.162l-1.086.876c-.328-.096-.254-.362.222-.798.556-.48 1.136-.81 1.74-.99a.99.99 0 0 1 .486.024c.076.024.126.074.15.15.02.06.028.118.024.174-.004.064.026.09.09.078.152-.024.268-.102.348-.234.124-.2.306-.296.546-.288.356.008.604.178.744.51.016.036.008.062-.024.078-.048.02-.094.042-.138.066zm-17.67-.582c.172.052.24.174.204.366-.024.148-.156.236-.396.264-1.272.464-2.214 1.386-2.826 2.766-.144.128-.262.27-.354.426-.048.084-.114.102-.198.054-.044-.028-.086-.078-.126-.15a.18.18 0 0 1-.018-.15 5.79 5.79 0 0 1 1.746-2.55l1.968-1.026zm2.934.481c.996.652 1.208.99.636 1.014l-.57-.402-.366-.408c-.132-.144-.1-.224.096-.24a.48.48 0 0 1 .204.036z" class="N"/><path d="M40.588 24.066c.24.208.418.292.534.252.056.104.14.184.252.24-.284.072-.464.182-.54.33l-1.158-.474c-.06-.104-.038-.21.066-.318.064-.064.148-.1.252-.108.188-.012.386.014.594.078z" class="L"/><path d="M22.726 24.114c.34.036.548.174.624.414-1.744.536-2.17 1.908-1.278 4.116 1.872 1.56 3.308 1.364 4.308-.588.468-.912.38-1.75-.264-2.514-.188-.296-.402-.516-.642-.66-.108-.148.04-.25.444-.306l.57.402c.864.992 1.448 1.99 1.752 2.994.089.29.078.603-.032.887s-.312.523-.574.679c-2.508 1.506-7.554 1.086-7.734-2.658.612-1.38 1.554-2.302 2.826-2.766z" class="M"/><path d="M38.794 24.582c-.356-.056-.696.03-1.02.258-.004-.248-.1-.388-.288-.42.264-.344.7-.29 1.308.162z" class="L"/><path d="M43.659 27.132l-2.286-2.574c-.112-.056-.196-.136-.252-.24.056-.26.184-.336.384-.228 1.252.68 1.97 1.694 2.154 3.042z" class="N"/><path d="M25.474 24.882c.24.144.454.364.642.66.02.14-.098.264-.354.372a.38.38 0 0 0-.252.462c.27 1.5-.93 2.394-2.37 1.812a.52.52 0 0 0-.54.066l-.528.39c-.892-2.208-.466-3.58 1.278-4.116.704-.164 1.412-.046 2.124.354zm-1.581.342c-.037-.066-.089-.123-.153-.167s-.138-.075-.219-.091a.69.69 0 0 0-.251-.002.77.77 0 0 0-.448.253.69.69 0 0 0-.129.216.58.58 0 0 0-.035.234c.005.078.027.151.064.217s.089.123.153.167.138.075.219.091a.69.69 0 0 0 .251.002.77.77 0 0 0 .448-.253.69.69 0 0 0 .129-.216.58.58 0 0 0 .035-.234c-.005-.078-.027-.151-.064-.217z" fill="#211606"/><path d="M37.487 24.42c.188.032.284.172.288.42-.1.048-.214.148-.342.3-.712.808-.856 1.8-.432 2.976.368 1.012 1.074 1.506 2.118 1.482 1.736-.048 2.654-1.018 2.754-2.91.032-.552-.13-.892-.486-1.02-.128-.316-.312-.576-.552-.78.076-.148.256-.258.54-.33l2.286 2.574-.294-.036c.028.44-.038.85-.198 1.23-2.012 2.048-4.346 2.586-7.002 1.614-.6-.22-1.036-.672-1.308-1.356a.65.65 0 0 1-.039-.27.63.63 0 0 1 .075-.258l1.506-2.76 1.086-.876z" class="M"/><path d="M39.675 24.414l1.158.474c.24.204.424.464.552.78-.124.088-.226.176-.306.264a.63.63 0 0 0-.15.312c-.068.416-.188.834-.36 1.254-.156.372-.45.616-.882.732-.716.184-1.612.146-2.688-.114-.424-1.176-.28-2.168.432-2.976.168-.036.322.028.462.192v.204c.007.136.056.266.141.373s.2.184.331.221.27.034.398-.012.239-.129.318-.241c.22-.316.136-.646-.252-.99-.068-.108-.08-.21-.036-.306l.882-.168z" fill="#211606"/><path d="M38.794 24.582c-.044.096-.032.198.036.306-.404.068-.716.216-.936.444-.14-.164-.294-.228-.462-.192.128-.152.242-.252.342-.3.324-.228.664-.314 1.02-.258z" class="N"/><path d="M23.59 26.056c.323-.182.459-.555.303-.832s-.545-.354-.868-.172-.459.555-.303.832.545.354.868.172zm15.241-1.168c.388.344.472.674.252.99a.66.66 0 0 1-.318.241.65.65 0 0 1-.398.012c-.131-.037-.247-.115-.331-.222a.66.66 0 0 1-.141-.373v-.204c.22-.228.532-.376.936-.444z" class="M"/><path d="M26.116 25.542c.644.764.732 1.602.264 2.514-1 1.952-2.436 2.148-4.308.588l.528-.39a.52.52 0 0 1 .54-.066c1.44.582 2.64-.312 2.37-1.812a.38.38 0 0 1 .252-.462c.256-.108.374-.232.354-.372zm15.27.126c.356.128.518.468.486 1.02-.1 1.892-1.018 2.862-2.754 2.91-1.044.024-1.75-.47-2.118-1.482 1.076.26 1.972.298 2.688.114.432-.116.726-.36.882-.732.172-.42.292-.838.36-1.254a.63.63 0 0 1 .15-.312c.08-.088.182-.176.306-.264z" class="P"/><path d="M43.366 27.096c.012.328.102.438.27.33.192.124.24.378.144.762-.064.268-.268.314-.612.138.16-.38.226-.79.198-1.23z" class="K"/><path d="M31.927 32.927c.387-.027.686-.255.668-.51s-.346-.439-.733-.412-.686.255-.668.51.346.439.733.412z" class="M"/><path d="M12.25 59.424c.16.268.086.46-.222.576H5.734c.304-2.648 1.046-5.18 2.226-7.596.624-1.268 1.548-2.48 2.772-3.636l.594 8.982c.084 1.068.392 1.626.924 1.674zM52.935 49.5c.776.74 1.49 1.762 2.142 3.066 1.272 2.548 2.034 5.026 2.286 7.434h-5.814c.028-.104-.064-.252-.276-.444.528-.032.812-.334.852-.906l.612-8.85c.008-.068.074-.168.198-.3z" fill="#2a38cb"/><path d="M11.921 50.247l3.65 3.33a2.85 2.85 0 0 1-1.35-.35c-.293-.153-.6-.21-.92-.17-.687.087-.97.477-.85 1.17.153.907.623 1.703 1.41 2.39.787.68 1.53.66 2.23-.06.24-.247.337-.54.29-.88-.093-.607-.293-1.193-.6-1.76a.88.88 0 0 1 .52-.16c.133.007.283.077.45.21 2.327 1.907 4.44 4.017 6.34 6.33l-1.93-.01c-.18-1.273-.88-2.023-2.1-2.25-.347-.067-.597.057-.75.37-.3.62-.48 1.253-.54 1.9l-16.09.01c-.17 0-.335-.053-.475-.151s-.246-.237-.305-.398c-.93-2.52-1.56-6.3.29-8.58 2.69-3.34 6.7-2.22 10.11-.8a.47.47 0 0 0 .39-.01c.153-.067.23-.11.23-.13zm-3.76.09c-.547-.22-1.087-.273-1.62-.16a1.39 1.39 0 0 0-1.007.858 1.39 1.39 0 0 0 .167 1.312c.66.927 1.63 1.65 2.91 2.17a.71.71 0 0 0 .615-.036.71.71 0 0 0 .355-.504c.153-.907-.027-1.85-.54-2.83-.2-.387-.493-.657-.88-.81zm-5.26 6.92l2.55 2.19a.54.54 0 0 0 .76-.06l.27-.31c.346-.405.522-.927.488-1.452s-.274-1.01-.668-1.348l-.39-.34c-.195-.169-.422-.296-.668-.376s-.507-.109-.767-.086-.515.096-.749.216-.444.285-.616.486l-.27.31a.54.54 0 0 0-.132.398.54.54 0 0 0 .192.372z" fill="#c39e6c"/><path d="M9.04 51.147c.513.98.693 1.923.54 2.83a.71.71 0 0 1-.355.504.71.71 0 0 1-.615.036c-1.28-.52-2.25-1.243-2.91-2.17a1.39 1.39 0 0 1-.167-1.312 1.39 1.39 0 0 1 1.007-.858c.533-.113 1.073-.06 1.62.16.387.153.68.423.88.81z" fill="#df392e"/><path d="M15.571 53.577c-.14.033-.07.147.21.34.307.567.507 1.153.6 1.76.047.34-.05.633-.29.88-.7.72-1.443.74-2.23.06-.787-.687-1.257-1.483-1.41-2.39-.12-.693.163-1.083.85-1.17.32-.04.627.017.92.17a2.85 2.85 0 0 0 1.35.35z" fill="#6925e1"/><path d="M2.901 57.257a.54.54 0 0 1-.192-.372.54.54 0 0 1 .132-.398l.27-.31c.173-.2.382-.365.616-.486s.489-.194.749-.216.521.007.767.086a1.92 1.92 0 0 1 .668.376l.39.34c.394.338.635.823.668 1.348s-.142 1.047-.488 1.452l-.27.31a.54.54 0 0 1-.76.06l-2.55-2.19z" fill="#37c955"/><path d="M18.658 33.768l24.762-.03h1.554l7.236-.012c.156.188.366.31.63.366.056-.068.146.038.27.318-.356.22-.826.338-1.41.354l-6.33.066c-2.128-.24-4.268-.314-6.42-.222-.498.018-.96-.174-1.41-.174-4.424-.02-8.846-.02-13.266 0-3.612.018-8.43.324-12.678.258a.88.88 0 0 1-.492-.114c-.168-.096-.21-.232-.126-.408l.228-.474 7.452.072z" fill="#cac9cd"/><path d="M11.206 33.696l-.228.474c-.084.176-.042.312.126.408a.88.88 0 0 0 .492.114l3.81.216c.552.008 1.05.164 1.494.468a.45.45 0 0 0 .312.078c.496-.04.912.148 1.248.564.616.76.826 1.584.63 2.472a.53.53 0 0 0 .138.498.64.64 0 0 0 .348.198.6.6 0 0 1 .438.36c.164.372.094.634-.21.786-.164.084-.18.192-.048.324a.43.43 0 0 0 .204.114c.043.009.085.026.121.05s.068.056.093.093.041.078.05.121.008.088 0 .131c-.14.676.046 1.234.558 1.674.024.024.052.038.084.042.112.012.15-.036.114-.144-.003-.009-.003-.019 0-.029s.009-.017.017-.023.017-.009.027-.01.019.002.028.008a.87.87 0 0 1 .252.312c.06.128.072.26.036.396-.084.3-.02.546.192.738.164.148.27.328.318.54l.204.936c.024.115.078.221.157.309s.18.153.293.189a.88.88 0 0 1 .588.57c.18.484.564.804 1.152.96.14.036.2.116.18.24a.5.5 0 0 0 .294.588l.99.51c.204.104.374.066.51-.114.18-.236.388-.262.624-.078.276.216.4.15.372-.198-.012-.144.06-.228.216-.252a.66.66 0 0 0 .576-.522c.24-.932.73-1.644 1.47-2.136.4-.264.834-.44 1.302-.528.368-.072.756-.24 1.164-.504.3-.192.456-.158.468.102-.344.24-.54.496-.588.768-.044.228.052.354.288.378.44.036.738-.264.894-.9.296-.108.532-.056.708.156a.53.53 0 0 0 .372.204c.404.04.728.2.972.48.14.156.306.248.498.276.16.028.286.11.378.246.248.36.658.488 1.23.384.284-.048.43-.198.438-.45.008-.192.076-.36.204-.504l.816-.906c.14-.156.2-.34.18-.552-.052-.508.142-.872.582-1.092.724-.36.946-.868.666-1.524-.064-.156-.09-.318-.078-.486l.228-3.276c.003-.046.018-.091.044-.129s.06-.071.1-.093a.58.58 0 0 0 .324-.612.33.33 0 0 1 .102-.282l.288-.288a.83.83 0 0 0 .222-.396c.096-.412.346-.636.75-.672 1.098-.096 2.19-.54 3.342-.642l6.33-.066-4.29.3a.52.52 0 0 0-.306.126c-.18.152-.378.194-.594.126a.37.37 0 0 0-.145-.013c-.048.005-.096.02-.138.044a.36.36 0 0 0-.11.093c-.03.038-.051.082-.064.128-.152.58-.2 1.132-.144 1.656a.66.66 0 0 1-.186.552 2.09 2.09 0 0 0-.534.918c-.006.027-.007.056-.001.083s.016.053.032.076a.19.19 0 0 0 .06.055c.024.014.05.022.077.025.128.012.232.068.312.168a.26.26 0 0 1-.03.408.74.74 0 0 1-.24.15c-.083.035-.155.091-.207.163s-.082.157-.087.245l-.258 4.53c-.008.14-.062.26-.162.36l-.144.15a.43.43 0 0 0-.132.3 2.76 2.76 0 0 1-.438 1.428c-.112.172-.164.362-.156.57.02.412-.102.786-.366 1.122a2.41 2.41 0 0 0-.426.816c-.312 1.02-.708 1.96-1.188 2.82-.092.168-.138.348-.138.54.012.582-.096 1.278-.486 1.716a9.36 9.36 0 0 0-1.194 1.704 2.35 2.35 0 0 1-.948.948l-1.674.852a.27.27 0 0 0-.162.372c.016.056.01.11-.018.162-.076.128-.19.198-.342.21l-4.092.336c-.106.008-.212-.015-.306-.066a.76.76 0 0 0-.444-.102 25.81 25.81 0 0 1-5.994-.306c-.084-.012-.154-.054-.21-.126-.076-.1-.174-.124-.294-.072-.876.42-1.592.142-2.148-.834-.011-.019-.014-.042-.008-.063s.019-.04.038-.051a.22.22 0 0 1 .174-.012c.356.12.366.096.03-.072l-1.14-.582c-.1-.052-.204-.06-.312-.024l-.246.09c-.216.076-.358.006-.426-.21a.42.42 0 0 0-.294-.294c-.208-.072-.32-.218-.336-.438-.028-.46-.24-.684-.636-.672-.156.004-.296-.044-.42-.144-.292-.232-.496-.48-.612-.744-.128-.284-.278-.54-.45-.768A17.21 17.21 0 0 1 17.2 50.97c-.324-.654-.072-1.284-.72-1.752a.62.62 0 0 1-.258-.696c.124-.516-.014-.938-.414-1.266a.28.28 0 0 1-.114-.276c.108-.848-.09-1.592-.594-2.232-.02-.024-.032-.052-.036-.084-.004-.076.02-.126.072-.15.112-.06.156-.15.132-.27l-.696-3.588c-.148-.896-.412-1.796-.792-2.7-.08-.188-.096-.378-.048-.57.136-.536-.036-1.034-.516-1.494-.74-.716-1.806-.898-3.198-.546.18-.428.272-.814.276-1.158.524-.024.71-.138.558-.342.224-.024.342-.074.354-.15zM33.55 47.508l.402-.906c.136-.296.042-.462-.282-.498a3.88 3.88 0 0 0-1.638.144.86.86 0 0 1-.54-.006c-1.348-.456-2.108.008-2.28 1.392-.12.936.2 1.82.96 2.652a.69.69 0 0 0 .528.234l2.172-.006a1.18 1.18 0 0 0 .611-.171c.184-.112.334-.272.435-.462s.147-.406.135-.622a1.2 1.2 0 0 0-.203-.604l-.234-.348c-.077-.116-.124-.25-.135-.39s.012-.28.069-.408z" fill="#8a8d8f"/><path d="M45.37 34.83c-1.152.102-2.244.546-3.342.642-.404.036-.654.26-.75.672a.83.83 0 0 1-.222.396l-.288.288a.33.33 0 0 0-.102.282.58.58 0 0 1-.324.612c-.041.022-.075.054-.1.093s-.04.083-.044.129l-.228 3.276c-.012.168.014.33.078.486.28.656.058 1.164-.666 1.524-.44.22-.634.584-.582 1.092.02.212-.04.396-.18.552l-.816.906c-.128.144-.196.312-.204.504-.008.252-.154.402-.438.45-.572.104-.982-.024-1.23-.384-.092-.136-.218-.218-.378-.246-.192-.028-.358-.12-.498-.276-.244-.28-.568-.44-.972-.48a.53.53 0 0 1-.372-.204c-.176-.212-.412-.264-.708-.156a.73.73 0 0 0-.012-.192c-.032-.148-.122-.208-.27-.18a.87.87 0 0 0-.312.126c-.012-.26-.168-.294-.468-.102-.408.264-.796.432-1.164.504-.468.088-.902.264-1.302.528-.74.492-1.23 1.204-1.47 2.136a.66.66 0 0 1-.576.522c-.156.024-.228.108-.216.252.028.348-.096.414-.372.198-.236-.184-.444-.158-.624.078-.136.18-.306.218-.51.114l-.99-.51a.5.5 0 0 1-.294-.588c.02-.124-.04-.204-.18-.24-.588-.156-.972-.476-1.152-.96a.88.88 0 0 0-.588-.57c-.113-.037-.214-.102-.293-.189s-.133-.194-.157-.309l-.204-.936c-.048-.212-.154-.392-.318-.54-.212-.192-.276-.438-.192-.738.036-.136.024-.268-.036-.396a.87.87 0 0 0-.252-.312c-.008-.005-.018-.008-.028-.008s-.019.004-.027.01-.014.014-.017.023-.003.019 0 .029c.036.108-.002.156-.114.144-.032-.004-.06-.018-.084-.042-.512-.44-.698-.998-.558-1.674.009-.043.009-.088 0-.131s-.026-.085-.05-.121-.056-.068-.093-.093-.078-.042-.121-.05a.43.43 0 0 1-.204-.114c-.132-.132-.116-.24.048-.324.304-.152.374-.414.21-.786a.6.6 0 0 0-.438-.36.64.64 0 0 1-.348-.198.53.53 0 0 1-.138-.498c.196-.888-.014-1.712-.63-2.472-.336-.416-.752-.604-1.248-.564a.45.45 0 0 1-.312-.078c-.444-.304-.942-.46-1.494-.468l-3.81-.216c4.248.066 9.066-.24 12.678-.258H37.54c.45 0 .912.192 1.41.174 2.152-.092 4.292-.018 6.42.222z" fill="#929496"/><path d="M53.11 34.41c.38.848.55 1.58.51 2.196l-.858 12.444c-.008.14.05.29.174.45-.124.132-.19.232-.198.3l-.612 8.85c-.04.572-.324.874-.852.906l-3.024-.246-36 .114c-.532-.048-.84-.606-.924-1.674l-.594-8.982-.714-13.422c1.392-.352 2.458-.17 3.198.546.48.46.652.958.516 1.494-.048.192-.032.382.048.57.38.904.644 1.804.792 2.7a72.64 72.64 0 0 0 .696 3.588c.024.12-.02.21-.132.27-.052.024-.076.074-.072.15.004.032.016.06.036.084.504.64.702 1.384.594 2.232a.28.28 0 0 0 .114.276c.4.328.538.75.414 1.266a.62.62 0 0 0 .258.696c.648.468.396 1.098.72 1.752a17.21 17.21 0 0 0 1.548 2.544c.172.228.322.484.45.768.116.264.32.512.612.744.124.1.264.148.42.144.396-.012.608.212.636.672.016.22.128.366.336.438a.42.42 0 0 1 .294.294c.068.216.21.286.426.21l.246-.09c.108-.036.212-.028.312.024l1.14.582c.336.168.326.192-.03.072a.22.22 0 0 0-.174.012c-.019.011-.033.029-.038.051s-.003.044.008.063c.556.976 1.272 1.254 2.148.834.12-.052.218-.028.294.072.056.072.126.114.21.126a25.81 25.81 0 0 0 5.994.306.76.76 0 0 1 .444.102c.094.051.2.074.306.066l4.092-.336c.152-.012.266-.082.342-.21.028-.052.034-.106.018-.162a.27.27 0 0 1 .162-.372 24.52 24.52 0 0 0 1.674-.852 2.35 2.35 0 0 0 .948-.948 9.36 9.36 0 0 1 1.194-1.704c.39-.438.498-1.134.486-1.716 0-.192.046-.372.138-.54.48-.86.876-1.8 1.188-2.82a2.41 2.41 0 0 1 .426-.816c.264-.336.386-.71.366-1.122-.008-.208.044-.398.156-.57a2.76 2.76 0 0 0 .438-1.428.43.43 0 0 1 .132-.3l.144-.15c.1-.1.154-.22.162-.36l.258-4.53c.005-.088.035-.173.087-.245s.124-.129.207-.163a.74.74 0 0 0 .24-.15.26.26 0 0 0 .03-.408c-.08-.1-.184-.156-.312-.168-.027-.003-.053-.011-.077-.025s-.044-.033-.06-.056-.027-.049-.032-.076-.005-.056.001-.083a2.09 2.09 0 0 1 .534-.918.66.66 0 0 0 .186-.552c-.056-.524-.008-1.076.144-1.656.012-.047.034-.09.064-.128a.36.36 0 0 1 .11-.093c.042-.024.09-.038.138-.044a.37.37 0 0 1 .145.013c.216.068.414.026.594-.126a.52.52 0 0 1 .306-.126l4.29-.3c.584-.016 1.054-.134 1.41-.354z" fill="#828588"/><path d="M33.005 44.988c-.156.636-.454.936-.894.9-.236-.024-.332-.15-.288-.378.048-.272.244-.528.588-.768a.87.87 0 0 1 .312-.126c.148-.028.238.032.27.18a.73.73 0 0 1 .012.192zm.611 3.318l.234.348a1.2 1.2 0 0 1 .068 1.226 1.18 1.18 0 0 1-1.046.633l-2.172.006a.69.69 0 0 1-.528-.234c-.76-.832-1.08-1.716-.96-2.652.172-1.384.932-1.848 2.28-1.392a.86.86 0 0 0 .54.006 3.88 3.88 0 0 1 1.638-.144c.324.036.418.202.282.498l-.402.906a.83.83 0 0 0-.069.408c.012.139.058.274.135.39z" fill="#fff"/><path d="M51.273 59.556c.212.192.304.34.276.444H12.027c.308-.116.382-.308.222-.576l36-.114c.496 0 1.504.082 3.024.246z" fill="#5f6665"/><path d="M51.36 4.243c-2.687 1.633-5.77 2.633-9.25 3a96.31 96.31 0 0 0-11.03 1.82c-.32.073-.603.223-.85.45-.24.227-.527.32-.86.28s-.667-.037-1 .01l-5.02.65c-1.167.147-2.84.253-5.02.32a46.96 46.96 0 0 0-8.23.99c-1.227.253-2.593.317-4.1.19 1.093-1.693 2.833-3.09 5.22-4.19 5.52-2.54 10.83-4.31 15.93-5.31.394-.077.745-.294.99-.61.753-.96 1.63-1.1 2.63-.42.316.213.695.309 1.07.27 3.86-.453 8.363-.583 13.51-.39 3.3.12 5.303 1.1 6.01 2.94z" fill="#6b5454"/><path d="M51.36 4.243c.76 3.29-1 5.07-1.4 7.68l-.71 5.09c-.067.567-.32 1.13-.76 1.69-1.42-.667-2.893-.703-4.42-.11-.327.127-.613.067-.86-.18l-.3-.3a1.22 1.22 0 0 0-.91-.36 1.85 1.85 0 0 1-1.21-.4 1.88 1.88 0 0 0-.94-.38c-6.547-.747-12.297-.87-17.25-.37-2.413.24-5.127.933-8.14 2.08-.433-.507-.757-1.3-.97-2.38-.06-.327-.253-.52-.58-.58-2.78-.52-5.72-.7-6.91-3.77 1.507.127 2.873.063 4.1-.19a46.94 46.94 0 0 1 8.23-.99c2.18-.067 3.853-.173 5.02-.32l5.02-.65c.333-.047.667-.05 1-.01s.62-.053.86-.28c.247-.227.53-.377.85-.45a96.31 96.31 0 0 1 11.03-1.82c3.48-.367 6.563-1.367 9.25-3z" fill="#302626"/></svg>