<svg width="61" height="61" viewBox="0 0 61 61" fill="none" xmlns="http://www.w3.org/2000/svg">
<path d="M45.8909 10.6325C45.4909 10.5165 45.3129 10.5125 45.3569 10.6205C45.4489 10.8525 45.5329 11.1145 45.6089 11.4065C45.6249 11.4545 45.6069 11.4745 45.5549 11.4665C45.5189 11.4625 45.4969 11.4425 45.4889 11.4065C45.3809 10.6345 44.9649 10.0185 44.2409 9.55848C43.6849 9.20648 43.1649 8.80448 42.6809 8.35248C41.6489 7.38448 40.5649 6.55248 39.4289 5.85648C39.2849 5.76848 39.1289 5.72048 38.9609 5.71248C38.7809 5.70448 38.6569 5.62048 38.5889 5.46048C38.5089 5.27648 38.3749 5.14648 38.1869 5.07048C36.6749 4.49048 35.1889 4.17648 33.7289 4.12848C30.2969 4.01448 26.8349 3.86448 23.7449 5.21448C23.6555 5.25442 23.5784 5.31715 23.5214 5.39623C23.4645 5.47532 23.4298 5.5679 23.4209 5.66448C23.3289 6.78048 23.6189 7.82848 24.2909 8.80848" stroke="#FEC000" stroke-width="2"/>
<path d="M24.2906 8.80876C23.9146 8.70076 23.6846 8.46076 23.6006 8.08876C23.5532 7.89947 23.4628 7.72478 23.3366 7.57876C23.0286 7.22276 22.7906 6.82676 22.6226 6.39076C22.5506 6.21076 22.5906 6.06276 22.7426 5.94676C23.0186 5.73476 23.1426 5.39476 23.1146 4.92676" stroke="#F1AA01" stroke-width="2"/>
<path d="M45.8924 10.6324C45.9044 10.7124 45.9144 10.7884 45.9224 10.8604C45.9344 11.0124 45.9864 11.1484 46.0784 11.2684C46.7384 12.1604 47.0504 13.0204 47.0144 13.8484C46.9624 15.0684 46.3664 15.6124 45.2264 15.4804C43.6784 15.3004 42.0284 15.0364 40.2764 14.6884C39.6764 14.5684 39.1184 14.7544 38.5904 14.3404C38.4504 14.2284 38.2884 14.1684 38.1044 14.1604C37.5324 14.1324 36.9424 14.0084 36.3344 13.7884C35.8144 13.5964 35.2544 13.4524 34.6544 13.3564C32.8224 13.0644 30.9784 12.5924 29.1224 11.9404C29.1144 11.9364 29.1084 11.9324 29.1044 11.9284C29.0724 11.8884 29.0424 11.8484 29.0144 11.8084C28.9344 11.7044 28.8284 11.6484 28.6964 11.6404C27.6644 11.5564 27.1544 10.7824 26.2304 10.3804C25.8584 10.2164 25.4704 10.0424 25.0664 9.8584" stroke="#FEC000" stroke-width="2"/>
<path d="M25.065 9.85859L24.291 8.80859" stroke="#F2B101" stroke-width="2"/>
<path d="M41.6912 8.25029C41.6832 8.08229 41.6172 7.94229 41.4932 7.83029C40.2372 6.67829 38.8292 5.81629 37.2692 5.24429C36.6732 5.02829 36.0632 4.81429 35.4392 4.60229C34.8952 4.41829 34.3352 4.30429 33.7592 4.26029C30.7432 4.01629 27.6752 4.32629 24.5552 5.19029C22.6772 5.71229 23.9492 7.69229 24.5792 8.64629C24.6632 8.77429 24.7792 8.85829 24.9272 8.89829C25.8752 9.16629 26.8232 9.41429 27.7712 9.64229C28.2952 9.76629 28.8072 9.95429 29.3072 10.2063C30.3452 10.7403 31.7372 10.6503 32.9072 10.7583C33.5312 10.8183 34.1232 10.9663 34.6832 11.2023C36.1592 11.8203 37.7552 11.7783 39.2792 12.2523C40.8552 12.7483 42.4412 13.1543 44.0372 13.4703C44.3612 13.5343 44.5632 13.4063 44.6432 13.0863C44.7792 12.5543 44.6992 12.0303 44.4032 11.5143C43.7032 10.2943 42.8752 9.34229 41.9192 8.65829C41.8533 8.6114 41.7987 8.55047 41.7593 8.47992C41.7199 8.40936 41.6966 8.33093 41.6912 8.25029Z" stroke="#FFDE65" stroke-width="2"/>
<path d="M25.0664 9.8584L25.6244 11.3164" stroke="#F1AA01" stroke-width="2"/>
<path d="M25.6243 11.3167C24.4683 10.4047 23.6523 9.30465 23.1763 8.01665C23.1308 7.89249 23.0594 7.77946 22.9668 7.68499C22.8741 7.59053 22.7623 7.51678 22.6387 7.46859C22.5152 7.42041 22.3826 7.39889 22.2498 7.40545C22.117 7.41201 21.987 7.4465 21.8683 7.50665C21.7723 7.55465 21.7683 7.85465 21.8563 8.40665C22.2003 10.5627 22.3103 12.6007 22.1863 14.5207C22.0623 16.5087 21.3163 18.1927 19.9483 19.5727C19.8403 19.6847 19.7103 19.7527 19.5583 19.7767C19.3583 19.8087 19.2623 19.9366 19.2703 20.1606C19.2783 20.3287 19.2063 20.4507 19.0543 20.5267L18.0523 21.0307C17.8963 21.1107 17.7503 21.2067 17.6143 21.3187L14.3203 24.0787" stroke="#BD7301" stroke-width="2"/>
<path d="M14.3188 24.078C14.1148 24.434 13.9348 24.64 13.7788 24.696C13.4548 24.816 13.4208 24.714 13.6768 24.39C13.9808 24.002 14.3408 23.652 14.7568 23.34C14.8368 23.28 14.8488 23.208 14.7928 23.124L14.6728 22.938C14.6568 22.918 14.6388 22.912 14.6188 22.92C13.8508 23.192 13.2688 23.648 12.8728 24.288C12.6768 24.608 12.6188 24.586 12.6988 24.222C12.9188 23.25 13.4668 22.706 14.3428 22.59C14.9108 22.514 15.2068 22.474 15.2308 22.47C15.9668 22.294 16.5448 21.976 16.9648 21.516C17.4888 20.948 18.0368 20.346 18.6088 19.71C18.7408 19.566 18.8008 19.402 18.7888 19.218C18.7768 19.018 18.8288 18.834 18.9448 18.666C19.9208 17.274 20.6148 15.752 21.0268 14.1C21.2108 13.352 21.3788 12.666 21.5308 12.042" stroke="#F1AA01" stroke-width="2"/>
<path d="M21.5313 12.042L21.3513 7.158C21.3473 6.974 21.2533 6.864 21.0693 6.828L20.6973 6.75" stroke="#F2C866" stroke-width="2"/>
<path d="M20.6968 6.7506C20.7288 6.7266 20.5968 6.6486 20.3008 6.5166" stroke="#F1AA01" stroke-width="2"/>
<path d="M20.6981 6.75L16.9961 11.802" stroke="#FED765" stroke-width="2"/>
<path d="M16.9964 11.8026C15.9204 12.4106 15.4224 13.3826 15.5024 14.7186C15.5144 14.9226 15.6244 15.0306 15.8324 15.0426C17.6764 15.1546 19.2264 14.5586 20.4824 13.2546C21.0904 12.6186 21.3524 11.5666 21.2684 10.0986" stroke="#FEC000" stroke-width="2"/>
<path d="M21.2676 10.0986L21.5316 12.0426" stroke="#FED765" stroke-width="2"/>
<path d="M14.3198 24.0781C14.2238 24.4301 14.0138 24.7381 13.6898 25.0021C13.6538 25.0381 13.6498 25.0761 13.6778 25.1161C13.7138 25.1681 13.7538 25.2121 13.7978 25.2481C13.8132 25.2608 13.8311 25.2701 13.8503 25.2754C13.8695 25.2808 13.8896 25.2821 13.9094 25.2793C13.9291 25.2764 13.9481 25.2695 13.965 25.259C13.9819 25.2485 13.9965 25.2346 14.0078 25.2181C14.0838 25.1101 14.1518 24.9941 14.2118 24.8701C14.2518 24.7941 14.2738 24.8001 14.2778 24.8881C14.2818 24.9401 14.2818 24.9941 14.2778 25.0501C14.2778 25.0621 14.2718 25.0721 14.2598 25.0801C13.3638 25.9961 12.8378 26.6621 12.6818 27.0781C12.0298 28.8301 11.5738 30.6341 11.3138 32.4901C11.2858 32.6981 11.2038 32.9181 11.0678 33.1501C10.9078 33.4221 10.8358 33.6541 10.8518 33.8461" stroke="#C98200" stroke-width="2"/>
<path d="M10.851 33.8467C11.003 34.0507 10.817 34.1647 10.293 34.1887" stroke="#C4A348" stroke-width="2"/>
<path d="M21.2669 10.0986L20.4149 11.9286C20.3149 12.1486 20.1749 12.3366 19.9949 12.4926C19.1989 13.1926 18.1829 13.6086 16.9469 13.7406C16.6909 13.7686 16.5549 13.6546 16.5389 13.3986C16.5189 12.9306 16.6709 12.3986 16.9949 11.8026" stroke="#FFDE65" stroke-width="2"/>
<path d="M25.623 11.3164C25.875 11.4724 26.069 11.6844 26.205 11.9524" stroke="#C98200" stroke-width="2"/>
<path d="M26.2051 11.9521C26.2811 12.7081 26.7371 13.2861 27.5731 13.6861C27.6411 13.7181 27.6591 13.7681 27.6271 13.8361C27.5991 13.8961 27.5551 13.9321 27.4951 13.9441C27.2591 13.9921 27.2631 14.0221 27.5071 14.0341C27.7911 14.0461 28.0011 14.1741 28.1371 14.4181C28.2291 14.5861 28.3611 14.7141 28.5331 14.8021L31.2451 16.2541" stroke="#BD7301" stroke-width="2"/>
<path d="M31.2461 16.2549L33.7541 17.8329" stroke="#C98200" stroke-width="2"/>
<path d="M33.7539 17.832C36.3219 19.4 39.0519 20.584 41.9439 21.384" stroke="#CA8900" stroke-width="2"/>
<path d="M41.9434 21.3848L46.1374 22.5008" stroke="#C98200" stroke-width="2"/>
<path d="M46.1367 22.5L49.6587 24.114C49.6868 24.1262 49.7115 24.145 49.7306 24.1691C49.7497 24.1931 49.7628 24.2215 49.7686 24.2521C49.7745 24.2826 49.773 24.3143 49.7644 24.3446C49.7557 24.3748 49.74 24.4027 49.7187 24.426L49.6107 24.546C49.5707 24.59 49.5447 24.608 49.5327 24.6C48.6287 24.176 47.8307 23.84 47.1387 23.592C45.9827 23.176 45.9087 23.318 46.9167 24.018C48.5927 25.186 50.0187 27.012 51.1947 29.496" stroke="#BD7301" stroke-width="2"/>
<path d="M51.1953 29.4961L52.2093 33.7261" stroke="#C98200" stroke-width="2"/>
<path d="M52.2087 33.7266L44.9727 33.7386" stroke="#B08A67" stroke-width="2"/>
<path d="M44.973 33.7387C44.921 33.1147 45.023 32.4927 45.279 31.8727C45.635 31.0207 45.831 30.4427 45.867 30.1387C45.993 29.1727 46.113 27.2767 45.543 26.4667C45.367 26.2187 45.201 25.9667 45.045 25.7107C44.849 25.3907 44.579 25.0807 44.235 24.7807C43.643 24.2607 43.161 23.6567 42.789 22.9687C42.693 22.8007 42.555 22.6807 42.375 22.6087L38.781 21.1747C38.593 21.0987 38.409 21.1087 38.229 21.2047C37.873 21.4007 37.495 21.4867 37.095 21.4627C36.715 21.4387 36.647 21.2807 36.891 20.9887C36.951 20.9167 36.967 20.8287 36.939 20.7247C36.895 20.5567 36.793 20.4347 36.633 20.3587C35.317 19.7227 33.929 19.1787 32.469 18.7267C31.635 18.4747 31.017 17.9227 30.099 17.7667C29.483 17.6627 29.017 17.3447 28.701 16.8127C28.597 16.6327 28.445 16.5127 28.245 16.4527C27.053 16.0767 25.885 15.5587 24.741 14.8987C24.608 14.8222 24.4601 14.7749 24.3073 14.76C24.1545 14.7451 24.0003 14.7629 23.855 14.8123C23.7096 14.8617 23.5765 14.9415 23.4644 15.0464C23.3523 15.1514 23.2639 15.279 23.205 15.4207C22.285 17.6447 21.091 19.5647 19.623 21.1807" stroke="#BD7301" stroke-width="2"/>
<path d="M19.6234 21.1807C18.9994 21.6127 18.4454 22.0927 17.9614 22.6207C17.4854 23.1447 17.1974 23.7907 17.0974 24.5587C16.6894 27.6907 17.2094 30.7607 18.6574 33.7687" stroke="#CA8900" stroke-width="2"/>
<path d="M18.6571 33.7683L11.2051 33.6963" stroke="#B08A67" stroke-width="2"/>
<path d="M11.2056 33.6963C11.1936 33.7723 11.0756 33.8223 10.8516 33.8463" stroke="#906C48" stroke-width="2"/>
<path d="M52.839 34.0926C52.575 34.0366 52.365 33.9146 52.209 33.7266" stroke="#E4C167" stroke-width="2"/>
<path d="M51.1947 29.496C51.2427 28.396 51.0627 27.376 50.6547 26.436C50.5507 26.2 50.5267 25.956 50.5827 25.704L50.7267 25.032C50.7787 24.8 50.7207 24.6 50.5527 24.432L49.0047 22.866C48.8487 22.706 48.6607 22.622 48.4407 22.614L46.1367 22.5" stroke="#F1AA01" stroke-width="2"/>
<path d="M41.9443 21.3845C42.6403 21.4085 43.0923 21.3825 43.3003 21.3065C43.8323 21.1105 43.8483 20.7625 43.3483 20.2625C43.2033 20.1176 43.02 20.0176 42.8203 19.9745C41.3843 19.6745 39.8883 19.3405 38.3323 18.9725C37.6043 18.8005 36.8663 18.4825 36.1183 18.0185C35.3903 17.5705 34.6403 17.1585 33.8683 16.7825C33.6683 16.6825 33.5303 16.7385 33.4543 16.9505C33.3783 17.1665 33.4783 17.4605 33.7543 17.8325" stroke="#FEC000" stroke-width="2"/>
<path d="M31.2451 16.2541C30.3171 15.2381 29.3411 14.3481 28.3171 13.5841C28.2771 13.5561 28.2331 13.5401 28.1851 13.5361C28.1331 13.5321 28.0831 13.5441 28.0351 13.5721C27.9911 13.5961 27.9511 13.5901 27.9151 13.5541L26.2051 11.9521" stroke="#F1AA01" stroke-width="2"/>
<path d="M44.9739 33.7383H43.4199" stroke="#D8B268" stroke-width="2"/>
<path d="M43.4199 33.7381C43.5479 32.7061 43.7859 31.7182 44.1339 30.7742C44.3379 30.2062 44.4359 29.6782 44.4279 29.1902C44.4159 28.6342 44.4279 28.0961 44.4639 27.5761C44.4799 27.3401 44.3739 27.2501 44.1459 27.3061L43.6359 27.4261" stroke="#F2B101" stroke-width="2"/>
<path d="M43.6352 27.4267C43.4672 27.5347 43.3772 27.4247 43.3652 27.0967" stroke="#F1AA01" stroke-width="2"/>
<path d="M43.3652 27.0967C43.4612 27.1087 43.5592 27.1207 43.6592 27.1327" stroke="#F2C866" stroke-width="2"/>
<path d="M43.6591 27.1325C43.4751 25.7845 42.7571 24.7705 41.5051 24.0905C41.3051 23.9825 41.1771 24.0585 41.1211 24.3185" stroke="#BD7301" stroke-width="2"/>
<path d="M41.1219 24.3184C41.0059 24.3584 40.8279 24.2744 40.5879 24.0664" stroke="#F2B101" stroke-width="2"/>
<path d="M40.5873 24.0666C40.6313 24.0426 40.6773 24.0206 40.7253 24.0006C40.7573 23.9846 40.7653 23.9586 40.7493 23.9226C40.6093 23.5906 40.3613 23.4206 40.0053 23.4126C39.7653 23.4046 39.5833 23.5006 39.4593 23.7006C39.3793 23.8326 39.2633 23.9106 39.1113 23.9346C39.0473 23.9466 39.0173 23.9206 39.0213 23.8566C39.0253 23.8006 39.0173 23.7426 38.9973 23.6826C38.9733 23.6066 38.9233 23.5566 38.8473 23.5326C38.6953 23.4846 38.5333 23.4766 38.3613 23.5086" stroke="#BD7301" stroke-width="2"/>
<path d="M38.3611 23.5084C38.5171 23.3924 38.5911 23.2744 38.5831 23.1544C38.5743 23.0435 38.5252 22.9398 38.4455 22.8634C38.3657 22.7869 38.2608 22.7431 38.1511 22.7404C36.7871 22.6964 35.5871 22.2024 34.5511 21.2584C34.0711 20.8224 33.5331 20.5324 32.9371 20.3884C32.7936 20.3535 32.6682 20.2706 32.5831 20.1544C32.4111 19.9104 32.1831 19.8124 31.8991 19.8604C31.7031 19.8924 31.5191 19.8604 31.3471 19.7644C29.4671 18.7204 28.2271 18.0604 27.6271 17.7844C26.0111 17.0484 24.6691 17.3024 23.6011 18.5464C23.4051 18.7784 23.2911 19.0424 23.2591 19.3384C23.2231 19.7104 23.3751 19.9544 23.7151 20.0704C23.8751 20.1264 24.0491 20.1504 24.2371 20.1424C24.5611 20.1264 24.7431 20.2284 24.7831 20.4484" stroke="#F1AA01" stroke-width="2"/>
<path d="M24.7834 20.4482C23.4954 20.3602 22.2474 20.5862 21.0394 21.1262C20.9754 21.1542 20.9434 21.2022 20.9434 21.2702L20.9494 21.5162C20.9534 21.6162 21.0014 21.6502 21.0934 21.6182L22.1614 21.2762" stroke="#BD7301" stroke-width="2"/>
<path d="M22.1619 21.2767C21.7819 21.8887 21.3139 22.4107 20.7579 22.8427C20.6139 22.9547 20.5339 23.1047 20.5179 23.2927C20.5099 23.3487 20.4959 23.4007 20.4759 23.4487C20.3039 23.8807 20.2159 23.8647 20.2119 23.4007C20.1999 22.6767 20.5879 22.2527 21.3759 22.1287C21.3839 22.1287 21.3859 22.1227 21.3819 22.1107L21.3399 21.9607C21.3119 21.8647 21.2539 21.8387 21.1659 21.8827C20.5819 22.1707 20.2279 22.6007 20.1039 23.1727C20.0519 23.4127 19.9539 23.6327 19.8099 23.8327L19.0479 24.8647C18.9039 25.0647 18.8399 25.0407 18.8559 24.7927C18.9079 23.9327 19.1139 23.0967 19.4739 22.2847C19.5819 22.0327 19.5399 22.0027 19.3479 22.1947L19.1799 22.3627C19.0599 22.1187 19.2079 21.7247 19.6239 21.1807" stroke="#F2B101" stroke-width="2"/>
<path d="M38.3611 23.5088C37.7571 23.6888 37.1771 24.0188 36.6211 24.4988" stroke="#C98200" stroke-width="2"/>
<path d="M36.6221 24.4989C36.6501 24.3229 36.7701 24.1149 36.9821 23.8749C37.0821 23.7549 37.0581 23.6769 36.9101 23.6409L34.5221 23.0649C34.2981 23.0129 34.1181 22.8949 33.9821 22.7109C33.7901 22.4549 33.5401 22.3529 33.2321 22.4049C32.9961 22.4489 32.7741 22.4089 32.5661 22.2849C31.1141 21.4249 29.7121 20.5589 28.3601 19.6869C27.6681 19.2389 26.9601 19.1449 26.2361 19.4049C26.0401 19.4729 25.9341 19.6089 25.9181 19.8129L25.8281 20.8629" stroke="#FEC000" stroke-width="2"/>
<path d="M25.8272 20.8622L24.7832 20.4482" stroke="#C98200" stroke-width="2"/>
<path d="M36.6219 24.498C36.1459 24.934 36.0719 25.2 36.3999 25.296" stroke="#CA8900" stroke-width="2"/>
<path d="M36.399 25.2969L34.893 28.0569C34.8497 28.1361 34.8241 28.2243 34.8179 28.3154C34.8117 28.4064 34.825 28.4983 34.857 28.5849C35.129 29.2689 35.565 29.7209 36.165 29.9409C38.821 30.9129 41.155 30.3749 43.167 28.3269" stroke="#FFDE65" stroke-width="2"/>
<path d="M43.168 28.3268C43.512 28.5028 43.716 28.4568 43.78 28.1888C43.876 27.8048 43.828 27.5508 43.636 27.4268" stroke="#FEC000" stroke-width="2"/>
<path d="M43.4202 33.7383L18.6582 33.7683" stroke="#E5C867" stroke-width="2"/>
<path d="M19.1793 22.3623C19.1113 22.3623 19.0493 22.3743 18.9933 22.3983C18.8773 22.4463 18.8073 22.5343 18.7833 22.6623C18.6513 23.3383 18.3973 23.9603 18.0213 24.5283C18.0053 24.5483 18.0093 24.5643 18.0333 24.5763L18.1653 24.6543C18.2533 24.7063 18.3213 24.6883 18.3693 24.6003C18.7893 23.9043 19.0593 23.1583 19.1793 22.3623Z" stroke="#F2B101" stroke-width="2"/>
<path d="M22.1621 21.2763C22.5741 21.0243 23.0361 20.9523 23.5481 21.0603" stroke="#CA8900" stroke-width="2"/>
<path d="M23.548 21.0605C22.528 21.1925 22.026 21.6425 22.042 22.4105C22.046 22.6425 21.946 22.8145 21.742 22.9265C21.278 23.1785 20.872 23.4845 20.524 23.8445C20.4799 23.8899 20.446 23.9442 20.4246 24.0038C20.4032 24.0633 20.3948 24.1267 20.3999 24.1898C20.405 24.2529 20.4235 24.3141 20.4542 24.3694C20.485 24.4247 20.5271 24.4729 20.578 24.5105C20.634 24.5505 20.758 24.5505 20.95 24.5105" stroke="#FEC000" stroke-width="2"/>
<path d="M20.95 24.5107C20.126 25.2187 19.544 26.0687 19.204 27.0607C19.188 27.1127 19.194 27.1627 19.222 27.2107C19.262 27.2827 19.304 27.3327 19.348 27.3607C19.432 27.4087 19.498 27.3907 19.546 27.3067C19.638 27.1507 19.756 27.0087 19.9 26.8807" stroke="#CA8900" stroke-width="2"/>
<path d="M19.9004 26.8805C20.0804 30.6245 25.1264 31.0445 27.6344 29.5385C27.8965 29.3823 28.0988 29.1431 28.2086 28.8591C28.3185 28.5751 28.3297 28.2629 28.2404 27.9725C27.9364 26.9685 27.3524 25.9705 26.4884 24.9785" stroke="#FFDE65" stroke-width="2"/>
<path d="M26.4876 24.9788C27.0596 24.9548 26.8476 24.6168 25.8516 23.9648" stroke="#CA8900" stroke-width="2"/>
<path d="M25.8512 23.965C25.1392 23.157 24.0892 23.013 22.7012 23.533" stroke="#F2B101" stroke-width="2"/>
<path d="M22.7024 23.5322C22.3304 21.7042 23.2664 20.9482 25.5104 21.2642" stroke="#FEC000" stroke-width="2"/>
<path d="M25.5098 21.2643C25.6898 21.3323 25.8798 21.3703 26.0798 21.3783C26.2638 21.3863 26.3058 21.3123 26.2058 21.1563C26.1338 21.0483 26.0078 20.9503 25.8278 20.8623" stroke="#CA8900" stroke-width="2"/>
<path d="M32.5946 32.4174C32.5861 32.2952 32.5041 32.1831 32.3667 32.1059C32.2294 32.0286 32.0479 31.9925 31.8621 32.0055C31.6764 32.0185 31.5017 32.0795 31.3764 32.1751C31.2511 32.2707 31.1856 32.3931 31.1941 32.5153C31.2026 32.6376 31.2846 32.7496 31.422 32.8269C31.5594 32.9041 31.7409 32.9402 31.9266 32.9272C32.1123 32.9143 32.287 32.8532 32.4123 32.7576C32.5376 32.662 32.6032 32.5396 32.5946 32.4174Z" stroke="#FFDE65" stroke-width="2"/>
<path d="M25.5089 21.2642C24.7849 20.9282 24.1309 20.8602 23.5469 21.0602" stroke="#C98200" stroke-width="2"/>
<path d="M22.7012 23.5324C22.7732 23.5164 22.8452 23.5004 22.9172 23.4844" stroke="#F1AA01" stroke-width="2"/>
<path d="M22.9172 23.4844L20.9492 24.5104" stroke="#C98200" stroke-width="2"/>
<path d="M25.8523 23.9645C25.7803 23.9365 25.7123 23.9245 25.6483 23.9285C25.4523 23.9445 25.4203 24.0245 25.5523 24.1685L25.9183 24.5765" stroke="#BD7301" stroke-width="2"/>
<path d="M25.9176 24.5762C25.5136 24.6322 25.3656 24.7342 25.4736 24.8822" stroke="#F2C866" stroke-width="2"/>
<path d="M25.4736 24.8826C24.7616 24.4826 24.0536 24.3646 23.3496 24.5286" stroke="#835904" stroke-width="2"/>
<path d="M23.3486 24.5283C23.2726 24.2883 23.0646 24.1503 22.7246 24.1143" stroke="#F2C866" stroke-width="2"/>
<path d="M22.7246 24.1144C22.9646 24.0864 23.0966 23.9984 23.1206 23.8504C23.1566 23.6584 23.0886 23.5364 22.9166 23.4844" stroke="#BD7301" stroke-width="2"/>
<path d="M40.5875 24.0662C40.3795 24.0022 40.1815 23.9762 39.9935 23.9882C39.8895 23.9962 39.8055 24.0322 39.7415 24.0962C39.6375 24.2042 39.6155 24.3102 39.6755 24.4142" stroke="#CA8900" stroke-width="2"/>
<path d="M39.675 24.4141L38.793 24.5821" stroke="#5B3103" stroke-width="2"/>
<path d="M38.7943 24.5823C38.1863 24.1303 37.7503 24.0763 37.4863 24.4203" stroke="#CA8900" stroke-width="2"/>
<path d="M37.4864 24.4209L36.4004 25.2969" stroke="#CAA065" stroke-width="2"/>
<path d="M22.7264 24.1143C21.4544 24.5783 20.5124 25.5003 19.9004 26.8803" stroke="#CAA065" stroke-width="2"/>
<path d="M26.488 24.9782L25.918 24.5762" stroke="#CAA065" stroke-width="2"/>
<path d="M41.1211 24.3184C41.1771 24.4224 41.2611 24.5024 41.3731 24.5584" stroke="#CA8900" stroke-width="2"/>
<path d="M41.374 24.5586C41.09 24.6306 40.91 24.7406 40.834 24.8886" stroke="#FFDE65" stroke-width="2"/>
<path d="M40.8338 24.8881L39.6758 24.4141" stroke="#906F03" stroke-width="2"/>
<path d="M23.3499 24.5283C21.6059 25.0643 21.1799 26.4363 22.0719 28.6443" stroke="#908668" stroke-width="2"/>
<path d="M22.0723 28.644C23.9443 30.204 25.3803 30.008 26.3803 28.056C26.8483 27.144 26.7603 26.306 26.1163 25.542" stroke="#F2C866" stroke-width="2"/>
<path d="M26.1147 25.5428C25.9267 25.2468 25.7127 25.0268 25.4727 24.8828" stroke="#908668" stroke-width="2"/>
<path d="M38.7934 24.582C38.4374 24.526 38.0974 24.612 37.7734 24.84" stroke="#CA8900" stroke-width="2"/>
<path d="M37.7743 24.8409C37.7703 24.5929 37.6743 24.4529 37.4863 24.4209" stroke="#FFDE65" stroke-width="2"/>
<path d="M43.659 27.1326L41.373 24.5586" stroke="#CAA065" stroke-width="2"/>
<path d="M26.1163 25.542C26.1363 25.682 26.0183 25.806 25.7623 25.914C25.5543 26.002 25.4703 26.156 25.5103 26.376C25.7803 27.876 24.5803 28.77 23.1403 28.188C22.9483 28.108 22.7683 28.13 22.6003 28.254L22.0723 28.644" stroke="#835904" stroke-width="2"/>
<path d="M23.8939 25.2248C23.8567 25.1589 23.8048 25.1022 23.7411 25.0578C23.6774 25.0135 23.6031 24.9825 23.5224 24.9665C23.4418 24.9506 23.3564 24.95 23.2712 24.9648C23.186 24.9796 23.1025 25.0095 23.0256 25.0528C22.9487 25.0962 22.8799 25.152 22.8231 25.2173C22.7663 25.2825 22.7226 25.3559 22.6944 25.4331C22.6663 25.5103 22.6544 25.5899 22.6593 25.6674C22.6642 25.7449 22.6858 25.8187 22.7229 25.8846C22.76 25.9505 22.812 26.0072 22.8757 26.0515C22.9394 26.0958 23.0137 26.1268 23.0943 26.1428C23.175 26.1588 23.2603 26.1594 23.3456 26.1446C23.4308 26.1298 23.5143 26.0998 23.5912 26.0565C23.6681 26.0132 23.7369 25.9573 23.7937 25.8921C23.8505 25.8268 23.8942 25.7535 23.9223 25.6763C23.9505 25.599 23.9624 25.5194 23.9575 25.4419C23.9526 25.3645 23.931 25.2907 23.8939 25.2248Z" stroke="#908668" stroke-width="2"/>
<path d="M37.7736 24.8408C37.6736 24.8888 37.5596 24.9888 37.4316 25.1408" stroke="#CAA065" stroke-width="2"/>
<path d="M37.4311 25.1406C36.7191 25.9486 36.5751 26.9406 36.9991 28.1166" stroke="#908668" stroke-width="2"/>
<path d="M37 28.1169C37.368 29.1289 38.074 29.6229 39.118 29.5989C40.854 29.5509 41.772 28.5809 41.872 26.6889C41.904 26.1369 41.742 25.7969 41.386 25.6689" stroke="#F2C866" stroke-width="2"/>
<path d="M41.386 25.6687C41.258 25.3527 41.074 25.0927 40.834 24.8887" stroke="#908668" stroke-width="2"/>
<path d="M43.366 27.0967C43.394 27.5367 43.328 27.9467 43.168 28.3267" stroke="#FED765" stroke-width="2"/>
<path d="M41.386 25.6689C41.262 25.7569 41.16 25.8449 41.08 25.9329C41 26.0249 40.95 26.1289 40.93 26.2449C40.862 26.6609 40.742 27.0789 40.57 27.4989C40.414 27.8709 40.12 28.1149 39.688 28.2309C38.972 28.4149 38.076 28.3769 37 28.1169" stroke="#835904" stroke-width="2"/>
<path d="M37.4316 25.1406C37.5996 25.1046 37.7536 25.1686 37.8936 25.3326" stroke="#5B3103" stroke-width="2"/>
<path d="M37.8945 25.3327C37.8945 25.4087 37.8945 25.4767 37.8945 25.5367C37.9017 25.6725 37.951 25.8028 38.0356 25.9093C38.1202 26.0158 38.236 26.0932 38.3667 26.1309C38.4974 26.1685 38.6366 26.1644 38.7649 26.1192C38.8932 26.074 39.0043 25.9899 39.0825 25.8787C39.3025 25.5627 39.2185 25.2327 38.8305 24.8887" stroke="#908668" stroke-width="2"/>
<path d="M38.8295 24.888C38.7615 24.78 38.7495 24.678 38.7935 24.582" stroke="#5B3103" stroke-width="2"/>
<path d="M38.8305 24.8887C38.4265 24.9567 38.1145 25.1047 37.8945 25.3327" stroke="#CAA065" stroke-width="2"/>
<path d="M53.1092 34.4102C52.7532 34.6302 52.2832 34.7482 51.6992 34.7642" stroke="#A6A7AB" stroke-width="2"/>
<path d="M51.6991 34.7646L45.3691 34.8306" stroke="#AAABAE" stroke-width="2"/>
<path d="M45.3697 34.8309C43.2417 34.5909 41.1017 34.5169 38.9497 34.6089C38.4517 34.6269 37.9897 34.4349 37.5397 34.4349C33.1157 34.4149 28.6937 34.4149 24.2737 34.4349C20.6617 34.4529 15.8437 34.7589 11.5957 34.6929" stroke="#AEAFB2" stroke-width="2"/>
<path d="M11.5955 34.6923C11.4115 34.7003 11.2475 34.6623 11.1035 34.5783C10.9355 34.4823 10.8935 34.3463 10.9775 34.1703L11.2055 33.6963" stroke="#AAABAE" stroke-width="2"/>
<path d="M11.5957 34.6924C12.8717 34.8204 14.1417 34.8924 15.4057 34.9084C15.9577 34.9164 16.4557 35.0724 16.8997 35.3764C16.9917 35.4404 17.0957 35.4664 17.2117 35.4544C17.7077 35.4144 18.1237 35.6024 18.4597 36.0184C19.0757 36.7784 19.2857 37.6024 19.0897 38.4904C19.0497 38.6824 19.0957 38.8484 19.2277 38.9884C19.3237 39.0924 19.4397 39.1584 19.5757 39.1864C19.7837 39.2344 19.9297 39.3544 20.0137 39.5464C20.1777 39.9184 20.1077 40.1804 19.8037 40.3324C19.6397 40.4164 19.6237 40.5244 19.7557 40.6564C19.8117 40.7124 19.8797 40.7504 19.9597 40.7704C20.0031 40.779 20.0443 40.7961 20.0811 40.8206C20.1178 40.8452 20.1494 40.8768 20.1739 40.9136C20.1984 40.9504 20.2155 40.9916 20.224 41.035C20.2325 41.0784 20.2324 41.123 20.2237 41.1664C20.0837 41.8424 20.2697 42.4004 20.7817 42.8404C20.8057 42.8644 20.8337 42.8784 20.8657 42.8824C20.9777 42.8944 21.0157 42.8464 20.9797 42.7384C20.9769 42.729 20.9771 42.719 20.9802 42.7097C20.9832 42.7004 20.9891 42.6922 20.9969 42.6863C21.0048 42.6805 21.0142 42.6771 21.024 42.6768C21.0338 42.6764 21.0435 42.6791 21.0517 42.6844C21.1597 42.7684 21.2437 42.8724 21.3037 42.9964C21.3637 43.1244 21.3757 43.2564 21.3397 43.3924C21.2557 43.6924 21.3197 43.9384 21.5317 44.1304C21.6957 44.2784 21.8017 44.4584 21.8497 44.6704L22.0537 45.6064C22.0772 45.721 22.1312 45.8275 22.2103 45.915C22.2894 46.0025 22.3906 46.0678 22.5037 46.1044C22.7917 46.1964 22.9877 46.3864 23.0917 46.6744C23.2717 47.1584 23.6557 47.4784 24.2437 47.6344C24.3837 47.6704 24.4437 47.7504 24.4237 47.8744C24.3757 48.1424 24.4737 48.3384 24.7177 48.4624L25.7077 48.9724C25.9117 49.0764 26.0817 49.0384 26.2177 48.8584C26.3977 48.6224 26.6057 48.5964 26.8417 48.7804C27.1177 48.9964 27.2417 48.9304 27.2137 48.5824C27.2017 48.4384 27.2737 48.3544 27.4297 48.3304C27.7337 48.2824 27.9257 48.1084 28.0057 47.8084C28.2457 46.8764 28.7357 46.1644 29.4757 45.6724C29.8757 45.4084 30.3097 45.2324 30.7777 45.1444C31.1457 45.0724 31.5337 44.9044 31.9417 44.6404C32.2417 44.4484 32.3977 44.4824 32.4097 44.7424" stroke="#8E9193" stroke-width="2"/>
<path d="M32.4089 44.7422C32.0649 44.9822 31.8689 45.2382 31.8209 45.5102C31.7769 45.7382 31.8729 45.8642 32.1089 45.8882C32.5489 45.9242 32.8469 45.6242 33.0029 44.9882" stroke="#C5C6C7" stroke-width="2"/>
<path d="M33.0039 44.9881C33.2999 44.8801 33.5359 44.9321 33.7119 45.1441C33.8079 45.2641 33.9319 45.3321 34.0839 45.3481C34.4879 45.3881 34.8119 45.5481 35.0559 45.8281C35.1959 45.9841 35.3619 46.0761 35.5539 46.1041C35.7139 46.1321 35.8399 46.2141 35.9319 46.3501C36.1799 46.7101 36.5899 46.8381 37.1619 46.7341C37.4459 46.6861 37.5919 46.5361 37.5999 46.2841C37.6079 46.0921 37.6759 45.9241 37.8039 45.7801L38.6199 44.8741C38.7599 44.7181 38.8199 44.5341 38.7999 44.3221C38.7479 43.8141 38.9419 43.4501 39.3819 43.2301C40.1059 42.8701 40.3279 42.3621 40.0479 41.7061C39.9839 41.5501 39.9579 41.3881 39.9699 41.2201L40.1979 37.9441C40.2014 37.898 40.2164 37.8535 40.2416 37.8147C40.2667 37.7759 40.3012 37.7441 40.3419 37.7221C40.5819 37.5941 40.6899 37.3901 40.6659 37.1101C40.6539 37.0021 40.6879 36.9081 40.7679 36.8281L41.0559 36.5401C41.1657 36.4304 41.2425 36.2933 41.2779 36.1441C41.3739 35.7321 41.6239 35.5081 42.0279 35.4721C43.1259 35.3761 44.2179 34.9321 45.3699 34.8301" stroke="#8E9193" stroke-width="2"/>
<path d="M51.6996 34.7646L47.4096 35.0646C47.2966 35.0723 47.1892 35.1166 47.1036 35.1907C46.9236 35.3427 46.7256 35.3846 46.5096 35.3166C46.4626 35.3028 46.4133 35.2983 46.3647 35.3035C46.3162 35.3088 46.2692 35.3236 46.2267 35.3471C46.1842 35.3706 46.1469 35.4023 46.1172 35.4404C46.0875 35.4784 46.0658 35.522 46.0536 35.5686C45.9016 36.1486 45.8536 36.7006 45.9096 37.2246C45.9336 37.4366 45.8716 37.6206 45.7236 37.7766C45.4596 38.0486 45.2816 38.3546 45.1896 38.6946C45.1834 38.7221 45.1829 38.7505 45.1883 38.7781C45.1936 38.8056 45.2046 38.8316 45.2205 38.8543C45.2364 38.877 45.2568 38.8959 45.2805 38.9098C45.3041 38.9236 45.3304 38.9321 45.3576 38.9346C45.4856 38.9466 45.5896 39.0026 45.6696 39.1026C45.7896 39.2466 45.7796 39.3826 45.6396 39.5106C45.5716 39.5746 45.4916 39.6246 45.3996 39.6606C45.3165 39.6952 45.2449 39.7518 45.1929 39.8239C45.141 39.8961 45.1107 39.9809 45.1056 40.0686L44.8476 44.5986C44.8396 44.7386 44.7856 44.8586 44.6856 44.9586L44.5416 45.1086C44.4576 45.1926 44.4136 45.2926 44.4096 45.4086C44.3936 45.9286 44.2476 46.4046 43.9716 46.8366C43.8596 47.0086 43.8076 47.1986 43.8156 47.4066C43.8356 47.8186 43.7136 48.1926 43.4496 48.5286C43.2576 48.7686 43.1156 49.0406 43.0236 49.3446C42.7116 50.3646 42.3156 51.3046 41.8356 52.1646C41.7436 52.3326 41.6976 52.5126 41.6976 52.7046C41.7096 53.2866 41.6016 53.9826 41.2116 54.4206C40.7556 54.9366 40.3576 55.5046 40.0176 56.1246C39.8016 56.5246 39.4856 56.8406 39.0696 57.0726C38.5016 57.3886 37.9436 57.6726 37.3956 57.9246C37.2316 58.0006 37.1776 58.1247 37.2336 58.2967C37.2496 58.3527 37.2436 58.4066 37.2156 58.4586C37.1396 58.5866 37.0256 58.6566 36.8736 58.6686L32.7816 59.0046C32.6757 59.0125 32.5694 58.9896 32.4756 58.9386C32.3356 58.8586 32.1876 58.8246 32.0316 58.8366C30.0396 58.9686 28.0416 58.8666 26.0376 58.5306C25.9536 58.5186 25.8836 58.4766 25.8276 58.4046C25.7516 58.3046 25.6536 58.2806 25.5336 58.3326C24.6576 58.7526 23.9416 58.4746 23.3856 57.4986C23.3746 57.4795 23.3716 57.4568 23.3772 57.4355C23.3828 57.4142 23.3966 57.3959 23.4156 57.3846C23.4716 57.3566 23.5296 57.3526 23.5896 57.3726C23.9456 57.4926 23.9556 57.4686 23.6196 57.3006C23.2356 57.1086 22.8556 56.9146 22.4796 56.7186C22.3796 56.6666 22.2756 56.6586 22.1676 56.6946L21.9216 56.7846C21.7056 56.8606 21.5636 56.7906 21.4956 56.5746C21.4516 56.4266 21.3536 56.3286 21.2016 56.2806C20.9936 56.2086 20.8816 56.0626 20.8656 55.8426C20.8376 55.3826 20.6256 55.1586 20.2296 55.1706C20.0736 55.1746 19.9336 55.1266 19.8096 55.0266C19.5176 54.7946 19.3136 54.5466 19.1976 54.2826C19.0696 53.9986 18.9196 53.7426 18.7476 53.5146C18.1796 52.7466 17.6636 51.8986 17.1996 50.9706C16.8756 50.3166 17.1276 49.6866 16.4796 49.2186C16.2396 49.0426 16.1536 48.8107 16.2216 48.5227C16.3456 48.0067 16.2076 47.5846 15.8076 47.2566C15.7156 47.1846 15.6776 47.0927 15.6936 46.9807C15.8016 46.1327 15.6036 45.3886 15.0996 44.7486C15.0796 44.7246 15.0676 44.6967 15.0636 44.6647C15.0596 44.5887 15.0836 44.5387 15.1356 44.5147C15.2476 44.4547 15.2916 44.3646 15.2676 44.2446C15.0036 43.0446 14.7716 41.8487 14.5716 40.6567C14.4236 39.7607 14.1596 38.8606 13.7796 37.9566C13.6996 37.7686 13.6836 37.5786 13.7316 37.3866C13.8676 36.8506 13.6956 36.3526 13.2156 35.8926C12.4756 35.1766 11.4096 34.9946 10.0176 35.3466" stroke="#86898C" stroke-width="2"/>
<path d="M33.55 47.5088L33.952 46.6028C34.088 46.3068 33.994 46.1408 33.67 46.1048C33.102 46.0368 32.556 46.0848 32.032 46.2488C31.852 46.3048 31.672 46.3028 31.492 46.2428C30.144 45.7868 29.384 46.2508 29.212 47.6348C29.092 48.5708 29.412 49.4548 30.172 50.2868C30.316 50.4428 30.492 50.5208 30.7 50.5208L32.872 50.5148C33.0874 50.5143 33.2984 50.455 33.4825 50.3434C33.6667 50.2318 33.817 50.0719 33.9174 49.8809C34.0178 49.6899 34.0646 49.4749 34.0528 49.2589C34.0409 49.043 33.9708 48.8341 33.85 48.6548L33.616 48.3068C33.5388 48.1906 33.4922 48.0565 33.4807 47.917C33.4691 47.7775 33.493 47.637 33.55 47.5088Z" stroke="#C5C6C7" stroke-width="2"/>
<path d="M33.0042 44.9881C33.0082 44.9161 33.0042 44.8521 32.9922 44.7961C32.9602 44.6481 32.8702 44.5881 32.7222 44.6161C32.6142 44.6361 32.5102 44.6781 32.4102 44.7421" stroke="#C9CACB" stroke-width="2"/>
<path d="M52.9354 49.5C52.8114 49.632 52.7454 49.732 52.7374 49.8C52.5494 52.752 52.3454 55.702 52.1254 58.65C52.0854 59.222 51.8014 59.524 51.2734 59.556" stroke="#565FAA" stroke-width="2"/>
<path d="M51.274 59.5565C49.754 59.3925 48.746 59.3105 48.25 59.3105C36.27 59.3345 24.27 59.3725 12.25 59.4245" stroke="#717677" stroke-width="2"/>
<path d="M12.2504 59.4246C11.7184 59.3766 11.4104 58.8186 11.3264 57.7506C11.0984 54.8746 10.9004 51.8806 10.7324 48.7686" stroke="#565FAA" stroke-width="2"/>
<path d="M12.2493 59.4248C12.4093 59.6928 12.3353 59.8848 12.0273 60.0008" stroke="#454F98" stroke-width="2"/>
<path d="M51.5494 60.0006C51.5774 59.8966 51.4854 59.7486 51.2734 59.5566" stroke="#454F98" stroke-width="2"/>
<path d="M45.8926 10.6324C45.4926 10.5164 45.3146 10.5124 45.3586 10.6204C45.4506 10.8524 45.5346 11.1144 45.6106 11.4064C45.6266 11.4544 45.6086 11.4744 45.5566 11.4664C45.5206 11.4624 45.4986 11.4424 45.4906 11.4064C45.3826 10.6344 44.9666 10.0184 44.2426 9.5584C43.6866 9.2064 43.1666 8.8044 42.6826 8.3524C41.6506 7.3844 40.5666 6.5524 39.4306 5.8564C39.2866 5.7684 39.1306 5.7204 38.9626 5.7124C38.7826 5.7044 38.6586 5.6204 38.5906 5.4604C38.5106 5.2764 38.3766 5.1464 38.1886 5.0704C36.6766 4.4904 35.1906 4.1764 33.7306 4.1284C30.2986 4.0144 26.8366 3.8644 23.7466 5.2144C23.6572 5.25434 23.58 5.31707 23.5231 5.39616C23.4662 5.47524 23.4315 5.56782 23.4226 5.6644C23.3306 6.7804 23.6206 7.8284 24.2926 8.8084C23.9166 8.7004 23.6866 8.4604 23.6026 8.0884C23.5552 7.89911 23.4648 7.72442 23.3386 7.5784C23.0306 7.2224 22.7926 6.8264 22.6246 6.3904C22.5526 6.2104 22.5926 6.0624 22.7446 5.9464C23.0206 5.7344 23.1446 5.3944 23.1166 4.9264C27.3646 3.3464 31.8346 3.0604 36.5266 4.0684C38.5626 4.5084 40.3826 5.3884 41.9866 6.7084C43.4106 7.8844 44.7126 9.1924 45.8926 10.6324Z" fill="#FDB800"/>
<path d="M45.8929 10.6325C45.9049 10.7125 45.9149 10.7885 45.9229 10.8605C45.9349 11.0125 45.9869 11.1485 46.0789 11.2685C46.7389 12.1605 47.0509 13.0205 47.0149 13.8485C46.9629 15.0685 46.3669 15.6125 45.2269 15.4805C43.6789 15.3005 42.0289 15.0365 40.2769 14.6885C39.6769 14.5685 39.1189 14.7545 38.5909 14.3405C38.4509 14.2285 38.2889 14.1685 38.1049 14.1605C37.5329 14.1325 36.9429 14.0085 36.3349 13.7885C35.8149 13.5965 35.2549 13.4525 34.6549 13.3565C32.8229 13.0645 30.9789 12.5925 29.1229 11.9405C29.1149 11.9365 29.1089 11.9325 29.1049 11.9285C29.0729 11.8885 29.0429 11.8485 29.0149 11.8085C28.9349 11.7045 28.8289 11.6485 28.6969 11.6405C27.6649 11.5565 27.1549 10.7825 26.2309 10.3805C25.8589 10.2165 25.4709 10.0425 25.0669 9.85848L24.2929 8.80848C23.6209 7.82848 23.3309 6.78048 23.4229 5.66448C23.4318 5.5679 23.4665 5.47532 23.5234 5.39623C23.5803 5.31715 23.6575 5.25442 23.7469 5.21448C26.8369 3.86448 30.2989 4.01448 33.7309 4.12848C35.1909 4.17648 36.6769 4.49048 38.1889 5.07048C38.3769 5.14648 38.5109 5.27648 38.5909 5.46048C38.6589 5.62048 38.7829 5.70448 38.9629 5.71248C39.1309 5.72048 39.2869 5.76848 39.4309 5.85648C40.5669 6.55248 41.6509 7.38448 42.6829 8.35248C43.1669 8.80448 43.6869 9.20648 44.2429 9.55848C44.9669 10.0185 45.3829 10.6345 45.4909 11.4065C45.4989 11.4425 45.5209 11.4625 45.5569 11.4665C45.6089 11.4745 45.6269 11.4545 45.6109 11.4065C45.5349 11.1145 45.4509 10.8525 45.3589 10.6205C45.3149 10.5125 45.4929 10.5165 45.8929 10.6325ZM41.6929 8.25048C41.6849 8.08248 41.6189 7.94248 41.4949 7.83048C40.2389 6.67848 38.8309 5.81648 37.2709 5.24448C36.6749 5.02848 36.0649 4.81448 35.4409 4.60248C34.8969 4.41848 34.3369 4.30448 33.7609 4.26048C30.7449 4.01648 27.6769 4.32648 24.5569 5.19048C22.6789 5.71248 23.9509 7.69248 24.5809 8.64648C24.6649 8.77448 24.7809 8.85848 24.9289 8.89848C25.8769 9.16648 26.8249 9.41448 27.7729 9.64248C28.2969 9.76648 28.8089 9.95448 29.3089 10.2065C30.3469 10.7405 31.7389 10.6505 32.9089 10.7585C33.5329 10.8185 34.1249 10.9665 34.6849 11.2025C36.1609 11.8205 37.7569 11.7785 39.2809 12.2525C40.8569 12.7485 42.4429 13.1545 44.0389 13.4705C44.3629 13.5345 44.5649 13.4065 44.6449 13.0865C44.7809 12.5545 44.7009 12.0305 44.4049 11.5145C43.7049 10.2945 42.8769 9.34248 41.9209 8.65848C41.855 8.61159 41.8004 8.55066 41.761 8.48011C41.7216 8.40955 41.6983 8.33112 41.6929 8.25048Z" fill="#FFC700"/>
<path d="M41.9192 8.65829C42.8752 9.34229 43.7032 10.2943 44.4032 11.5143C44.6992 12.0303 44.7792 12.5543 44.6432 13.0863C44.5632 13.4063 44.3612 13.5343 44.0372 13.4703C42.4412 13.1543 40.8552 12.7483 39.2792 12.2523C37.7552 11.7783 36.1592 11.8203 34.6832 11.2023C34.1232 10.9663 33.5312 10.8183 32.9072 10.7583C31.7372 10.6503 30.3452 10.7403 29.3072 10.2063C28.8072 9.95429 28.2952 9.76629 27.7712 9.64229C26.8232 9.41429 25.8752 9.16629 24.9272 8.89829C24.7792 8.85829 24.6632 8.77429 24.5792 8.64629C23.9492 7.69229 22.6772 5.71229 24.5552 5.19029C27.6752 4.32629 30.7432 4.01629 33.7592 4.26029C34.3352 4.30429 34.8952 4.41829 35.4392 4.60229C36.0632 4.81429 36.6732 5.02829 37.2692 5.24429C38.8292 5.81629 40.2372 6.67829 41.4932 7.83029C41.6172 7.94229 41.6832 8.08229 41.6912 8.25029C41.6966 8.33093 41.7199 8.40936 41.7593 8.47992C41.7987 8.55047 41.8533 8.6114 41.9192 8.65829Z" fill="#FFF5CA"/>
<path d="M23.1168 4.92578C23.1448 5.39378 23.0208 5.73378 22.7448 5.94578C22.5928 6.06178 22.5528 6.20978 22.6248 6.38978C22.7928 6.82578 23.0308 7.22178 23.3388 7.57778C23.465 7.7238 23.5554 7.89849 23.6028 8.08778C23.6868 8.45978 23.9168 8.69978 24.2928 8.80778L25.0668 9.85778L25.6248 11.3158C24.4688 10.4038 23.6528 9.30378 23.1768 8.01578C23.1313 7.89162 23.0599 7.77859 22.9673 7.68413C22.8746 7.58966 22.7628 7.51591 22.6392 7.46772C22.5156 7.41954 22.3831 7.39802 22.2503 7.40458C22.1175 7.41114 21.9875 7.44563 21.8688 7.50578C21.7728 7.55378 21.7688 7.85378 21.8568 8.40578C22.2008 10.5618 22.3108 12.5998 22.1868 14.5198C22.0628 16.5078 21.3168 18.1918 19.9488 19.5718C19.8408 19.6838 19.7108 19.7518 19.5588 19.7758C19.3588 19.8078 19.2628 19.9358 19.2708 20.1598C19.2788 20.3278 19.2068 20.4498 19.0548 20.5258L18.0528 21.0298C17.8968 21.1098 17.7508 21.2058 17.6148 21.3178L14.3208 24.0778C14.1168 24.4338 13.9368 24.6398 13.7808 24.6958C13.4568 24.8158 13.4228 24.7138 13.6788 24.3898C13.9828 24.0018 14.3428 23.6518 14.7588 23.3398C14.8388 23.2798 14.8508 23.2078 14.7948 23.1238L14.6748 22.9378C14.6588 22.9178 14.6408 22.9118 14.6208 22.9198C13.8528 23.1918 13.2708 23.6478 12.8748 24.2878C12.6788 24.6078 12.6208 24.5858 12.7008 24.2218C12.9208 23.2498 13.4688 22.7058 14.3448 22.5898C14.9128 22.5138 15.2088 22.4738 15.2328 22.4698C15.9688 22.2938 16.5468 21.9758 16.9668 21.5158C17.4908 20.9478 18.0388 20.3458 18.6108 19.7098C18.7428 19.5658 18.8028 19.4018 18.7908 19.2178C18.7788 19.0178 18.8308 18.8338 18.9468 18.6658C19.9228 17.2738 20.6168 15.7518 21.0288 14.0998C21.2128 13.3518 21.3808 12.6658 21.5328 12.0418L21.3528 7.15778C21.3488 6.97378 21.2548 6.86378 21.0708 6.82778L20.6988 6.74978C20.7308 6.72578 20.5988 6.64778 20.3028 6.51578L23.1168 4.92578Z" fill="#E59B02"/>
<path d="M20.3029 6.51562C20.5989 6.64762 20.7309 6.72563 20.6989 6.74963L16.9969 11.8016C15.9209 12.4096 15.4229 13.3816 15.5029 14.7176C15.5149 14.9216 15.6249 15.0296 15.8329 15.0416C17.6769 15.1536 19.2269 14.5576 20.4829 13.2536C21.0909 12.6176 21.3529 11.5656 21.2689 10.0976L21.5329 12.0416C21.3809 12.6656 21.2129 13.3516 21.0289 14.0996C20.6169 15.7516 19.9229 17.2736 18.9469 18.6656C18.8309 18.8336 18.7789 19.0176 18.7909 19.2176C18.8029 19.4016 18.7429 19.5656 18.6109 19.7096C18.0389 20.3456 17.4909 20.9476 16.9669 21.5156C16.5469 21.9756 15.9689 22.2936 15.2329 22.4696C15.2089 22.4736 14.9129 22.5136 14.3449 22.5896C13.4689 22.7056 12.9209 23.2496 12.7009 24.2216C12.6209 24.5856 12.6789 24.6076 12.8749 24.2876C13.2709 23.6476 13.8529 23.1916 14.6209 22.9196C14.6409 22.9116 14.6589 22.9176 14.6749 22.9376L14.7949 23.1236C14.8509 23.2076 14.8389 23.2796 14.7589 23.3396C14.3429 23.6516 13.9829 24.0016 13.6789 24.3896C13.4229 24.7136 13.4569 24.8156 13.7809 24.6956C13.9369 24.6396 14.1169 24.4336 14.3209 24.0776C14.2249 24.4296 14.0149 24.7376 13.6909 25.0016C13.6549 25.0376 13.6509 25.0756 13.6789 25.1156C13.7149 25.1676 13.7549 25.2116 13.7989 25.2476C13.8144 25.2603 13.8322 25.2695 13.8514 25.2749C13.8707 25.2803 13.8908 25.2816 13.9105 25.2788C13.9303 25.2759 13.9492 25.269 13.9661 25.2585C13.9831 25.248 13.9976 25.2341 14.0089 25.2176C14.0849 25.1096 14.1529 24.9936 14.2129 24.8696C14.2529 24.7936 14.2749 24.7996 14.2789 24.8876C14.2829 24.9396 14.2829 24.9936 14.2789 25.0496C14.2789 25.0616 14.2729 25.0716 14.2609 25.0796C13.3649 25.9956 12.8389 26.6616 12.6829 27.0776C12.0309 28.8296 11.5749 30.6336 11.3149 32.4896C11.2869 32.6976 11.2049 32.9176 11.0689 33.1496C10.9089 33.4216 10.8369 33.6536 10.8529 33.8456C11.0049 34.0496 10.8189 34.1636 10.2949 34.1876C10.4389 25.4036 12.5089 16.6736 17.5609 9.37162C18.0649 8.63962 18.9789 7.68762 20.3029 6.51562Z" fill="#FDB800"/>
<path d="M20.6988 6.75L21.0708 6.828C21.2548 6.864 21.3488 6.974 21.3528 7.158L21.5328 12.042L21.2688 10.098L20.4168 11.928C20.3168 12.148 20.1768 12.336 19.9968 12.492C19.2008 13.192 18.1848 13.608 16.9488 13.74C16.6928 13.768 16.5568 13.654 16.5408 13.398C16.5208 12.93 16.6728 12.398 16.9968 11.802L20.6988 6.75Z" fill="#FFF5CA"/>
<path d="M25.6238 11.3157C25.8758 11.4717 26.0698 11.6837 26.2058 11.9517C26.2818 12.7077 26.7378 13.2857 27.5738 13.6857C27.6418 13.7177 27.6598 13.7677 27.6278 13.8357C27.5998 13.8957 27.5558 13.9317 27.4958 13.9437C27.2598 13.9917 27.2638 14.0217 27.5078 14.0337C27.7918 14.0457 28.0018 14.1737 28.1378 14.4177C28.2298 14.5857 28.3618 14.7137 28.5338 14.8017L31.2458 16.2537L33.7538 17.8317C36.3218 19.3997 39.0518 20.5837 41.9438 21.3837L46.1378 22.4997L49.6598 24.1137C49.6879 24.1258 49.7126 24.1447 49.7317 24.1687C49.7508 24.1927 49.7638 24.2212 49.7697 24.2517C49.7756 24.2823 49.7741 24.314 49.7654 24.3442C49.7567 24.3745 49.7411 24.4024 49.7198 24.4257L49.6118 24.5457C49.5718 24.5897 49.5458 24.6077 49.5338 24.5997C48.6298 24.1757 47.8318 23.8397 47.1398 23.5917C45.9838 23.1757 45.9098 23.3177 46.9178 24.0177C48.5938 25.1857 50.0198 27.0117 51.1958 29.4957L52.2098 33.7257L44.9738 33.7377C44.9218 33.1137 45.0238 32.4917 45.2798 31.8717C45.6358 31.0197 45.8318 30.4417 45.8678 30.1377C45.9938 29.1717 46.1138 27.2757 45.5438 26.4657C45.3678 26.2177 45.2018 25.9657 45.0458 25.7097C44.8498 25.3897 44.5798 25.0797 44.2358 24.7797C43.6438 24.2597 43.1618 23.6557 42.7898 22.9677C42.6938 22.7997 42.5558 22.6797 42.3758 22.6077L38.7818 21.1737C38.5938 21.0977 38.4098 21.1077 38.2298 21.2037C37.8738 21.3997 37.4958 21.4857 37.0958 21.4617C36.7158 21.4377 36.6478 21.2797 36.8918 20.9877C36.9518 20.9157 36.9678 20.8277 36.9398 20.7237C36.8958 20.5557 36.7938 20.4337 36.6338 20.3577C35.3178 19.7217 33.9298 19.1777 32.4698 18.7257C31.6358 18.4737 31.0178 17.9217 30.0998 17.7657C29.4838 17.6617 29.0178 17.3437 28.7018 16.8117C28.5978 16.6317 28.4458 16.5117 28.2458 16.4517C27.0538 16.0757 25.8858 15.5577 24.7418 14.8977C24.6087 14.8211 24.4609 14.7738 24.3081 14.7589C24.1553 14.744 24.0011 14.7619 23.8557 14.8112C23.7104 14.8606 23.5772 14.9405 23.4651 15.0454C23.3531 15.1503 23.2647 15.2779 23.2058 15.4197C22.2858 17.6437 21.0918 19.5637 19.6238 21.1797C18.9998 21.6117 18.4458 22.0917 17.9618 22.6197C17.4858 23.1437 17.1978 23.7897 17.0978 24.5577C16.6898 27.6897 17.2098 30.7597 18.6578 33.7677L11.2058 33.6957C11.1938 33.7717 11.0758 33.8217 10.8518 33.8457C10.8358 33.6537 10.9078 33.4217 11.0678 33.1497C11.2038 32.9177 11.2858 32.6977 11.3138 32.4897C11.5738 30.6337 12.0298 28.8297 12.6818 27.0777C12.8378 26.6617 13.3638 25.9957 14.2598 25.0797C14.2718 25.0717 14.2778 25.0617 14.2778 25.0497C14.2818 24.9937 14.2818 24.9397 14.2778 24.8877C14.2738 24.7997 14.2518 24.7937 14.2118 24.8697C14.1518 24.9937 14.0838 25.1097 14.0078 25.2177C13.9965 25.2341 13.9819 25.2481 13.965 25.2586C13.9481 25.2691 13.9291 25.276 13.9094 25.2788C13.8896 25.2816 13.8695 25.2803 13.8503 25.275C13.8311 25.2696 13.8132 25.2603 13.7978 25.2477C13.7538 25.2117 13.7138 25.1677 13.6778 25.1157C13.6498 25.0757 13.6538 25.0377 13.6898 25.0017C14.0138 24.7377 14.2238 24.4297 14.3198 24.0777L17.6138 21.3177C17.7498 21.2057 17.8958 21.1097 18.0518 21.0297L19.0538 20.5257C19.2058 20.4497 19.2778 20.3277 19.2698 20.1597C19.2618 19.9357 19.3578 19.8077 19.5578 19.7757C19.7098 19.7517 19.8398 19.6837 19.9478 19.5717C21.3158 18.1917 22.0618 16.5077 22.1858 14.5197C22.3098 12.5997 22.1998 10.5617 21.8558 8.40567C21.7678 7.85367 21.7718 7.55367 21.8678 7.50567C21.9865 7.44552 22.1165 7.41103 22.2493 7.40447C22.3821 7.39791 22.5146 7.41943 22.6382 7.46762C22.7618 7.5158 22.8736 7.58955 22.9663 7.68402C23.0589 7.77848 23.1303 7.89152 23.1758 8.01567C23.6518 9.30367 24.4678 10.4037 25.6238 11.3157Z" fill="#954B00"/>
<path d="M25.0664 9.8584C25.4704 10.0424 25.8584 10.2164 26.2304 10.3804C27.1544 10.7824 27.6644 11.5564 28.6964 11.6404C28.8284 11.6484 28.9344 11.7044 29.0144 11.8084C29.0424 11.8484 29.0724 11.8884 29.1044 11.9284C29.1084 11.9324 29.1144 11.9364 29.1224 11.9404C30.9784 12.5924 32.8224 13.0644 34.6544 13.3564C35.2544 13.4524 35.8144 13.5964 36.3344 13.7884C36.9424 14.0084 37.5324 14.1324 38.1044 14.1604C38.2884 14.1684 38.4504 14.2284 38.5904 14.3404C39.1184 14.7544 39.6764 14.5684 40.2764 14.6884C42.0284 15.0364 43.6784 15.3004 45.2264 15.4804C46.3664 15.6124 46.9624 15.0684 47.0144 13.8484C47.0504 13.0204 46.7384 12.1604 46.0784 11.2684C45.9864 11.1484 45.9344 11.0124 45.9224 10.8604C45.9144 10.7884 45.9044 10.7124 45.8924 10.6324C50.8004 17.3524 52.9964 25.7764 52.8404 34.0924C52.5764 34.0364 52.3664 33.9144 52.2104 33.7264L51.1964 29.4964C51.2444 28.3964 51.0644 27.3764 50.6564 26.4364C50.5524 26.2004 50.5284 25.9564 50.5844 25.7044L50.7284 25.0324C50.7804 24.8004 50.7224 24.6004 50.5544 24.4324L49.0064 22.8664C48.8504 22.7064 48.6624 22.6224 48.4424 22.6144L46.1384 22.5004L41.9444 21.3844C42.6404 21.4084 43.0924 21.3824 43.3004 21.3064C43.8324 21.1104 43.8484 20.7624 43.3484 20.2624C43.2034 20.1175 43.0201 20.0175 42.8204 19.9744C41.3844 19.6744 39.8884 19.3404 38.3324 18.9724C37.6044 18.8004 36.8664 18.4824 36.1184 18.0184C35.3904 17.5704 34.6404 17.1584 33.8684 16.7824C33.6684 16.6824 33.5304 16.7384 33.4544 16.9504C33.3784 17.1664 33.4784 17.4604 33.7544 17.8324L31.2464 16.2544C30.3184 15.2384 29.3424 14.3484 28.3184 13.5844C28.2784 13.5564 28.2344 13.5404 28.1864 13.5364C28.1344 13.5324 28.0844 13.5444 28.0364 13.5724C27.9924 13.5964 27.9524 13.5904 27.9164 13.5544L26.2064 11.9524C26.0704 11.6844 25.8764 11.4724 25.6244 11.3164L25.0664 9.8584Z" fill="#FDB800"/>
<path d="M21.2684 10.0977C21.3524 11.5657 21.0904 12.6177 20.4824 13.2537C19.2264 14.5577 17.6764 15.1537 15.8324 15.0417C15.6244 15.0297 15.5144 14.9217 15.5024 14.7177C15.4224 13.3817 15.9204 12.4097 16.9964 11.8017C16.6724 12.3977 16.5204 12.9297 16.5404 13.3977C16.5564 13.6537 16.6924 13.7677 16.9484 13.7397C18.1844 13.6077 19.2004 13.1917 19.9964 12.4917C20.1764 12.3357 20.3164 12.1477 20.4164 11.9277L21.2684 10.0977Z" fill="#FFC700"/>
<path d="M26.2051 11.9521L27.9151 13.5541C27.9511 13.5901 27.9911 13.5961 28.0351 13.5721C28.0831 13.5441 28.1331 13.5321 28.1851 13.5361C28.2331 13.5401 28.2771 13.5561 28.3171 13.5841C29.3411 14.3481 30.3171 15.2381 31.2451 16.2541L28.5331 14.8021C28.3611 14.7141 28.2291 14.5861 28.1371 14.4181C28.0011 14.1741 27.7911 14.0461 27.5071 14.0341C27.2631 14.0221 27.2591 13.9921 27.4951 13.9441C27.5551 13.9321 27.5991 13.8961 27.6271 13.8361C27.6591 13.7681 27.6411 13.7181 27.5731 13.6861C26.7371 13.2861 26.2811 12.7081 26.2051 11.9521Z" fill="#E59B02"/>
<path d="M44.9739 33.7378H43.4199C43.5479 32.7058 43.7859 31.7178 44.1339 30.7738C44.3379 30.2058 44.4359 29.6778 44.4279 29.1898C44.4159 28.6338 44.4279 28.0958 44.4639 27.5758C44.4799 27.3398 44.3739 27.2498 44.1459 27.3058L43.6359 27.4258C43.4679 27.5338 43.3779 27.4238 43.3659 27.0958C43.4619 27.1078 43.5599 27.1198 43.6599 27.1318C43.4759 25.7838 42.7579 24.7698 41.5059 24.0898C41.3059 23.9818 41.1779 24.0578 41.1219 24.3178C41.0059 24.3578 40.8279 24.2738 40.5879 24.0658C40.6319 24.0418 40.6779 24.0198 40.7259 23.9998C40.7579 23.9838 40.7659 23.9578 40.7499 23.9218C40.6099 23.5898 40.3619 23.4198 40.0059 23.4118C39.7659 23.4038 39.5839 23.4998 39.4599 23.6998C39.3799 23.8318 39.2639 23.9098 39.1119 23.9338C39.0479 23.9458 39.0179 23.9198 39.0219 23.8558C39.0259 23.7998 39.0179 23.7418 38.9979 23.6818C38.9739 23.6058 38.9239 23.5558 38.8479 23.5318C38.6959 23.4838 38.5339 23.4758 38.3619 23.5078C38.5179 23.3918 38.5919 23.2738 38.5839 23.1538C38.5751 23.0429 38.5261 22.9392 38.4463 22.8627C38.3665 22.7863 38.2616 22.7425 38.1519 22.7398C36.7879 22.6958 35.5879 22.2018 34.5519 21.2578C34.0719 20.8218 33.5339 20.5318 32.9379 20.3878C32.7944 20.3529 32.669 20.27 32.5839 20.1538C32.4119 19.9098 32.1839 19.8118 31.8999 19.8598C31.7039 19.8918 31.5199 19.8598 31.3479 19.7638C29.4679 18.7198 28.2279 18.0598 27.6279 17.7838C26.0119 17.0478 24.6699 17.3018 23.6019 18.5458C23.4059 18.7778 23.2919 19.0418 23.2599 19.3378C23.2239 19.7098 23.3759 19.9538 23.7159 20.0698C23.8759 20.1258 24.0499 20.1498 24.2379 20.1418C24.5619 20.1258 24.7439 20.2278 24.7839 20.4478C23.4959 20.3598 22.2479 20.5858 21.0399 21.1258C20.9759 21.1538 20.9439 21.2018 20.9439 21.2698L20.9499 21.5158C20.9539 21.6158 21.0019 21.6498 21.0939 21.6178L22.1619 21.2758C21.7819 21.8878 21.3139 22.4098 20.7579 22.8418C20.6139 22.9538 20.5339 23.1038 20.5179 23.2918C20.5099 23.3478 20.4959 23.3998 20.4759 23.4478C20.3039 23.8798 20.2159 23.8638 20.2119 23.3998C20.1999 22.6758 20.5879 22.2518 21.3759 22.1278C21.3839 22.1278 21.3859 22.1218 21.3819 22.1098L21.3399 21.9598C21.3119 21.8638 21.2539 21.8378 21.1659 21.8818C20.5819 22.1698 20.2279 22.5998 20.1039 23.1718C20.0519 23.4118 19.9539 23.6318 19.8099 23.8318L19.0479 24.8638C18.9039 25.0638 18.8399 25.0398 18.8559 24.7918C18.9079 23.9318 19.1139 23.0958 19.4739 22.2838C19.5819 22.0318 19.5399 22.0018 19.3479 22.1938L19.1799 22.3618C19.0599 22.1178 19.2079 21.7238 19.6239 21.1798C21.0919 19.5638 22.2859 17.6438 23.2059 15.4198C23.2648 15.278 23.3532 15.1504 23.4653 15.0455C23.5773 14.9406 23.7105 14.8607 23.8558 14.8113C24.0012 14.7619 24.1554 14.7441 24.3082 14.759C24.461 14.7739 24.6088 14.8212 24.7419 14.8978C25.8859 15.5578 27.0539 16.0758 28.2459 16.4518C28.4459 16.5118 28.5979 16.6318 28.7019 16.8118C29.0179 17.3438 29.4839 17.6618 30.0999 17.7658C31.0179 17.9218 31.6359 18.4738 32.4699 18.7258C33.9299 19.1778 35.3179 19.7218 36.6339 20.3578C36.7939 20.4338 36.8959 20.5558 36.9399 20.7238C36.9679 20.8278 36.9519 20.9158 36.8919 20.9878C36.6479 21.2798 36.7159 21.4378 37.0959 21.4618C37.4959 21.4858 37.8739 21.3998 38.2299 21.2038C38.4099 21.1078 38.5939 21.0978 38.7819 21.1738L42.3759 22.6078C42.5559 22.6798 42.6939 22.7998 42.7899 22.9678C43.1619 23.6558 43.6439 24.2598 44.2359 24.7798C44.5799 25.0798 44.8499 25.3898 45.0459 25.7098C45.2019 25.9658 45.3679 26.2178 45.5439 26.4658C46.1139 27.2758 45.9939 29.1718 45.8679 30.1378C45.8319 30.4418 45.6359 31.0198 45.2799 31.8718C45.0239 32.4918 44.9219 33.1138 44.9739 33.7378Z" fill="#E59B02"/>
<path d="M41.9443 21.3845C39.0523 20.5845 36.3223 19.4005 33.7543 17.8325C33.4783 17.4605 33.3783 17.1665 33.4543 16.9505C33.5303 16.7385 33.6683 16.6825 33.8683 16.7825C34.6403 17.1585 35.3903 17.5705 36.1183 18.0185C36.8663 18.4825 37.6043 18.8005 38.3323 18.9725C39.8883 19.3405 41.3843 19.6745 42.8203 19.9745C43.02 20.0176 43.2033 20.1176 43.3483 20.2625C43.8483 20.7625 43.8323 21.1105 43.3003 21.3065C43.0923 21.3825 42.6403 21.4085 41.9443 21.3845Z" fill="#FFC700"/>
<path d="M38.3611 23.5084C37.7571 23.6884 37.1771 24.0184 36.6211 24.4984C36.6491 24.3224 36.7691 24.1144 36.9811 23.8744C37.0811 23.7544 37.0571 23.6764 36.9091 23.6404L34.5211 23.0644C34.2971 23.0124 34.1171 22.8944 33.9811 22.7104C33.7891 22.4544 33.5391 22.3524 33.2311 22.4044C32.9951 22.4484 32.7731 22.4084 32.5651 22.2844C31.1131 21.4244 29.7111 20.5584 28.3591 19.6864C27.6671 19.2384 26.9591 19.1444 26.2351 19.4044C26.0391 19.4724 25.9331 19.6084 25.9171 19.8124L25.8271 20.8624L24.7831 20.4484C24.7431 20.2284 24.5611 20.1264 24.2371 20.1424C24.0491 20.1504 23.8751 20.1264 23.7151 20.0704C23.3751 19.9544 23.2231 19.7104 23.2591 19.3384C23.2911 19.0424 23.4051 18.7784 23.6011 18.5464C24.6691 17.3024 26.0111 17.0484 27.6271 17.7844C28.2271 18.0604 29.4671 18.7204 31.3471 19.7644C31.5191 19.8604 31.7031 19.8924 31.8991 19.8604C32.1831 19.8124 32.4111 19.9104 32.5831 20.1544C32.6682 20.2706 32.7936 20.3535 32.9371 20.3884C33.5331 20.5324 34.0711 20.8224 34.5511 21.2584C35.5871 22.2024 36.7871 22.6964 38.1511 22.7404C38.2608 22.7431 38.3657 22.7869 38.4455 22.8634C38.5252 22.9398 38.5743 23.0435 38.5831 23.1544C38.5911 23.2744 38.5171 23.3924 38.3611 23.5084Z" fill="#FDB800"/>
<path d="M36.6214 24.498C36.1454 24.934 36.0714 25.2 36.3994 25.296L34.8934 28.056C34.8502 28.1352 34.8246 28.2234 34.8183 28.3145C34.8121 28.4055 34.8255 28.4974 34.8574 28.584C35.1294 29.268 35.5654 29.72 36.1654 29.94C38.8214 30.912 41.1554 30.374 43.1674 28.326C43.5114 28.502 43.7154 28.456 43.7794 28.188C43.8754 27.804 43.8274 27.55 43.6354 27.426L44.1454 27.306C44.3734 27.25 44.4794 27.34 44.4634 27.576C44.4274 28.096 44.4154 28.634 44.4274 29.19C44.4354 29.678 44.3374 30.206 44.1334 30.774C43.7854 31.718 43.5474 32.706 43.4194 33.738L18.6574 33.768C17.2094 30.76 16.6894 27.69 17.0974 24.558C17.1974 23.79 17.4854 23.144 17.9614 22.62C18.4454 22.092 18.9994 21.612 19.6234 21.18C19.2074 21.724 19.0594 22.118 19.1794 22.362C19.1114 22.362 19.0494 22.374 18.9934 22.398C18.8774 22.446 18.8074 22.534 18.7834 22.662C18.6514 23.338 18.3974 23.96 18.0214 24.528C18.0054 24.548 18.0094 24.564 18.0334 24.576L18.1654 24.654C18.2534 24.706 18.3214 24.688 18.3694 24.6C18.7894 23.904 19.0594 23.158 19.1794 22.362L19.3474 22.194C19.5394 22.002 19.5814 22.032 19.4734 22.284C19.1134 23.096 18.9074 23.932 18.8554 24.792C18.8394 25.04 18.9034 25.064 19.0474 24.864L19.8094 23.832C19.9534 23.632 20.0514 23.412 20.1034 23.172C20.2274 22.6 20.5814 22.17 21.1654 21.882C21.2534 21.838 21.3114 21.864 21.3394 21.96L21.3814 22.11C21.3854 22.122 21.3834 22.128 21.3754 22.128C20.5874 22.252 20.1994 22.676 20.2114 23.4C20.2154 23.864 20.3034 23.88 20.4754 23.448C20.4954 23.4 20.5094 23.348 20.5174 23.292C20.5334 23.104 20.6134 22.954 20.7574 22.842C21.3134 22.41 21.7814 21.888 22.1614 21.276C22.5734 21.024 23.0354 20.952 23.5474 21.06C22.5274 21.192 22.0254 21.642 22.0414 22.41C22.0454 22.642 21.9454 22.814 21.7414 22.926C21.2774 23.178 20.8714 23.484 20.5234 23.844C20.4793 23.8893 20.4455 23.9436 20.4241 24.0032C20.4027 24.0627 20.3942 24.1261 20.3994 24.1892C20.4045 24.2523 20.423 24.3135 20.4537 24.3688C20.4844 24.4242 20.5266 24.4723 20.5774 24.51C20.6334 24.55 20.7574 24.55 20.9494 24.51C20.1254 25.218 19.5434 26.068 19.2034 27.06C19.1874 27.112 19.1934 27.162 19.2214 27.21C19.2614 27.282 19.3034 27.332 19.3474 27.36C19.4314 27.408 19.4974 27.39 19.5454 27.306C19.6374 27.15 19.7554 27.008 19.8994 26.88C20.0794 30.624 25.1254 31.044 27.6334 29.538C27.8956 29.3818 28.0978 29.1425 28.2077 28.8586C28.3176 28.5746 28.3288 28.2624 28.2394 27.972C27.9354 26.968 27.3514 25.97 26.4874 24.978C27.0594 24.954 26.8474 24.616 25.8514 23.964C25.1394 23.156 24.0894 23.012 22.7014 23.532C22.3294 21.704 23.2654 20.948 25.5094 21.264C25.6894 21.332 25.8794 21.37 26.0794 21.378C26.2634 21.386 26.3054 21.312 26.2054 21.156C26.1334 21.048 26.0074 20.95 25.8274 20.862L25.9174 19.812C25.9334 19.608 26.0394 19.472 26.2354 19.404C26.9594 19.144 27.6674 19.238 28.3594 19.686C29.7114 20.558 31.1134 21.424 32.5654 22.284C32.7734 22.408 32.9954 22.448 33.2314 22.404C33.5394 22.352 33.7894 22.454 33.9814 22.71C34.1174 22.894 34.2974 23.012 34.5214 23.064L36.9094 23.64C37.0574 23.676 37.0814 23.754 36.9814 23.874C36.7694 24.114 36.6494 24.322 36.6214 24.498ZM32.5937 32.417C32.5851 32.2948 32.5032 32.1827 32.3658 32.1055C32.2284 32.0282 32.0469 31.9921 31.8612 32.0051C31.6755 32.0181 31.5008 32.0791 31.3755 32.1747C31.2502 32.2703 31.1846 32.3927 31.1932 32.5149C31.2017 32.6371 31.2837 32.7492 31.4211 32.8265C31.5584 32.9037 31.7399 32.9398 31.9256 32.9268C32.1114 32.9138 32.2861 32.8528 32.4114 32.7572C32.5366 32.6616 32.6022 32.5392 32.5937 32.417Z" fill="#FFC700"/>
<path d="M24.7834 20.4482L25.8274 20.8622C26.0074 20.9502 26.1334 21.0482 26.2054 21.1562C26.3054 21.3122 26.2634 21.3862 26.0794 21.3782C25.8794 21.3702 25.6894 21.3322 25.5094 21.2642C24.7854 20.9282 24.1314 20.8602 23.5474 21.0602C23.0354 20.9522 22.5734 21.0242 22.1614 21.2762L21.0934 21.6182C21.0014 21.6502 20.9534 21.6162 20.9494 21.5162L20.9434 21.2702C20.9434 21.2022 20.9754 21.1542 21.0394 21.1262C22.2474 20.5862 23.4954 20.3602 24.7834 20.4482Z" fill="#954B00"/>
<path d="M23.548 21.0602C24.132 20.8602 24.786 20.9282 25.51 21.2642C23.266 20.9482 22.33 21.7042 22.702 23.5322C22.774 23.5162 22.846 23.5002 22.918 23.4842L20.95 24.5102C20.758 24.5502 20.634 24.5502 20.578 24.5102C20.5271 24.4725 20.485 24.4244 20.4542 24.3691C20.4235 24.3137 20.405 24.2525 20.3999 24.1894C20.3948 24.1264 20.4032 24.0629 20.4246 24.0034C20.446 23.9439 20.4799 23.8896 20.524 23.8442C20.872 23.4842 21.278 23.1782 21.742 22.9262C21.946 22.8142 22.046 22.6422 22.042 22.4102C22.026 21.6422 22.528 21.1922 23.548 21.0602Z" fill="#FDB800"/>
<path d="M19.1793 22.3623C19.0593 23.1583 18.7893 23.9043 18.3693 24.6003C18.3213 24.6883 18.2533 24.7063 18.1653 24.6543L18.0333 24.5763C18.0093 24.5643 18.0053 24.5483 18.0213 24.5283C18.3973 23.9603 18.6513 23.3383 18.7833 22.6623C18.8073 22.5343 18.8773 22.4463 18.9933 22.3983C19.0493 22.3743 19.1113 22.3623 19.1793 22.3623Z" fill="#E59B02"/>
<path d="M46.1387 22.5L48.4427 22.614C48.6627 22.622 48.8507 22.706 49.0067 22.866L50.5547 24.432C50.7227 24.6 50.7807 24.8 50.7287 25.032L50.5847 25.704C50.5287 25.956 50.5527 26.2 50.6567 26.436C51.0647 27.376 51.2447 28.396 51.1967 29.496C50.0207 27.012 48.5947 25.186 46.9187 24.018C45.9107 23.318 45.9847 23.176 47.1407 23.592C47.8327 23.84 48.6307 24.176 49.5347 24.6C49.5467 24.608 49.5727 24.59 49.6127 24.546L49.7207 24.426C49.742 24.4027 49.7576 24.3748 49.7663 24.3446C49.775 24.3143 49.7765 24.2826 49.7706 24.2521C49.7647 24.2215 49.7517 24.1931 49.7326 24.1691C49.7134 24.145 49.6888 24.1262 49.6607 24.114L46.1387 22.5Z" fill="#E59B02"/>
<path d="M25.8512 23.964C25.7792 23.936 25.7112 23.924 25.6472 23.928C25.4512 23.944 25.4192 24.024 25.5512 24.168L25.9172 24.576C25.5132 24.632 25.3652 24.734 25.4732 24.882C24.7612 24.482 24.0532 24.364 23.3492 24.528C23.2732 24.288 23.0652 24.15 22.7252 24.114C22.9652 24.086 23.0972 23.998 23.1212 23.85C23.1572 23.658 23.0892 23.536 22.9172 23.484C22.8452 23.5 22.7732 23.516 22.7012 23.532C24.0892 23.012 25.1392 23.156 25.8512 23.964Z" fill="#E59B02"/>
<path d="M40.5879 24.0656C40.3799 24.0016 40.1819 23.9756 39.9939 23.9876C39.8899 23.9956 39.8059 24.0316 39.7419 24.0956C39.6379 24.2036 39.6159 24.3096 39.6759 24.4136L38.7939 24.5816C38.1859 24.1296 37.7499 24.0756 37.4859 24.4196L36.3999 25.2956C36.0719 25.1996 36.1459 24.9336 36.6219 24.4976C37.1779 24.0176 37.7579 23.6876 38.3619 23.5076C38.5339 23.4756 38.6959 23.4836 38.8479 23.5316C38.9239 23.5556 38.9739 23.6056 38.9979 23.6816C39.0179 23.7416 39.0259 23.7996 39.0219 23.8556C39.0179 23.9196 39.0479 23.9456 39.1119 23.9336C39.2639 23.9096 39.3799 23.8316 39.4599 23.6996C39.5839 23.4996 39.7659 23.4036 40.0059 23.4116C40.3619 23.4196 40.6099 23.5896 40.7499 23.9216C40.7659 23.9576 40.7579 23.9836 40.7259 23.9996C40.6779 24.0196 40.6319 24.0416 40.5879 24.0656Z" fill="#954B00"/>
<path d="M22.918 23.4844C23.09 23.5364 23.158 23.6584 23.122 23.8504C23.098 23.9984 22.966 24.0864 22.726 24.1144C21.454 24.5784 20.512 25.5004 19.9 26.8804C19.756 27.0084 19.638 27.1504 19.546 27.3064C19.498 27.3904 19.432 27.4084 19.348 27.3604C19.304 27.3324 19.262 27.2824 19.222 27.2104C19.194 27.1624 19.188 27.1124 19.204 27.0604C19.544 26.0684 20.126 25.2184 20.95 24.5104L22.918 23.4844Z" fill="#954B00"/>
<path d="M25.8523 23.9645C26.8483 24.6165 27.0603 24.9545 26.4883 24.9785L25.9183 24.5765L25.5523 24.1685C25.4203 24.0245 25.4523 23.9445 25.6483 23.9285C25.7123 23.9245 25.7803 23.9365 25.8523 23.9645Z" fill="#954B00"/>
<path d="M40.5875 24.0662C40.8275 24.2742 41.0055 24.3582 41.1215 24.3182C41.1775 24.4222 41.2615 24.5022 41.3735 24.5582C41.0895 24.6302 40.9095 24.7402 40.8335 24.8882L39.6755 24.4142C39.6155 24.3102 39.6375 24.2042 39.7415 24.0962C39.8055 24.0322 39.8895 23.9962 39.9935 23.9882C40.1815 23.9762 40.3795 24.0022 40.5875 24.0662Z" fill="#FFC700"/>
<path d="M22.7264 24.1143C23.0664 24.1503 23.2744 24.2883 23.3504 24.5283C21.6064 25.0643 21.1804 26.4363 22.0724 28.6443C23.9444 30.2043 25.3804 30.0083 26.3804 28.0563C26.8484 27.1443 26.7604 26.3063 26.1164 25.5423C25.9284 25.2463 25.7144 25.0263 25.4744 24.8823C25.3664 24.7343 25.5144 24.6323 25.9184 24.5763L26.4884 24.9783C27.3524 25.9703 27.9364 26.9683 28.2404 27.9723C28.3297 28.2627 28.3185 28.5749 28.2086 28.8589C28.0988 29.1428 27.8965 29.3821 27.6344 29.5383C25.1264 31.0443 20.0804 30.6243 19.9004 26.8803C20.5124 25.5003 21.4544 24.5783 22.7264 24.1143Z" fill="#FFF5CA"/>
<path d="M38.7943 24.5823C38.4383 24.5263 38.0983 24.6123 37.7743 24.8403C37.7703 24.5923 37.6743 24.4523 37.4863 24.4203C37.7503 24.0763 38.1863 24.1303 38.7943 24.5823Z" fill="#FFC700"/>
<path d="M43.6591 27.1315L41.3731 24.5575C41.2611 24.5015 41.1771 24.4215 41.1211 24.3175C41.1771 24.0575 41.3051 23.9815 41.5051 24.0895C42.7571 24.7695 43.4751 25.7835 43.6591 27.1315Z" fill="#954B00"/>
<path d="M25.4739 24.8816C25.7139 25.0256 25.9279 25.2456 26.1159 25.5416C26.1359 25.6816 26.0179 25.8056 25.7619 25.9136C25.5539 26.0016 25.4699 26.1556 25.5099 26.3756C25.7799 27.8756 24.5799 28.7696 23.1399 28.1876C22.9479 28.1076 22.7679 28.1296 22.5999 28.2536L22.0719 28.6436C21.1799 26.4356 21.6059 25.0636 23.3499 24.5276C24.0539 24.3636 24.7619 24.4816 25.4739 24.8816ZM23.8934 25.2237C23.8563 25.1578 23.8043 25.1011 23.7406 25.0568C23.6769 25.0124 23.6026 24.9814 23.522 24.9655C23.4413 24.9495 23.356 24.9489 23.2707 24.9637C23.1855 24.9785 23.102 25.0084 23.0251 25.0517C22.9482 25.0951 22.8794 25.1509 22.8226 25.2162C22.7658 25.2814 22.7221 25.3548 22.694 25.432C22.6659 25.5092 22.6539 25.5888 22.6588 25.6663C22.6637 25.7438 22.6853 25.8176 22.7224 25.8835C22.7596 25.9494 22.8115 26.0061 22.8752 26.0504C22.9389 26.0947 23.0132 26.1258 23.0939 26.1417C23.1745 26.1577 23.2599 26.1583 23.3451 26.1435C23.4304 26.1287 23.5138 26.0988 23.5907 26.0554C23.6676 26.0121 23.7364 25.9562 23.7932 25.891C23.85 25.8257 23.8938 25.7524 23.9219 25.6752C23.95 25.5979 23.9619 25.5183 23.957 25.4409C23.9522 25.3634 23.9305 25.2896 23.8934 25.2237Z" fill="#211606"/>
<path d="M37.4869 24.4199C37.6749 24.4519 37.7709 24.5919 37.7749 24.8399C37.6749 24.8879 37.5609 24.9879 37.4329 25.1399C36.7209 25.9479 36.5769 26.9399 37.0009 28.1159C37.3689 29.1279 38.0749 29.6219 39.1189 29.5979C40.8549 29.5499 41.7729 28.5799 41.8729 26.6879C41.9049 26.1359 41.7429 25.7959 41.3869 25.6679C41.2589 25.3519 41.0749 25.0919 40.8349 24.8879C40.9109 24.7399 41.0909 24.6299 41.3749 24.5579L43.6609 27.1319C43.5609 27.1199 43.4629 27.1079 43.3669 27.0959C43.3949 27.5359 43.3289 27.9459 43.1689 28.3259C41.1569 30.3739 38.8229 30.9119 36.1669 29.9399C35.5669 29.7199 35.1309 29.2679 34.8589 28.5839C34.827 28.4974 34.8136 28.4055 34.8198 28.3144C34.8261 28.2233 34.8517 28.1352 34.8949 28.0559L36.4009 25.2959L37.4869 24.4199Z" fill="#FFF5CA"/>
<path d="M39.6751 24.4141L40.8331 24.8881C41.0731 25.0921 41.2571 25.3521 41.3851 25.6681C41.2611 25.7561 41.1591 25.8441 41.0791 25.9321C40.9991 26.0241 40.9491 26.1281 40.9291 26.2441C40.8611 26.6601 40.7411 27.0781 40.5691 27.4981C40.4131 27.8701 40.1191 28.1141 39.6871 28.2301C38.9711 28.4141 38.0751 28.3761 36.9991 28.1161C36.5751 26.9401 36.7191 25.9481 37.4311 25.1401C37.5991 25.1041 37.7531 25.1681 37.8931 25.3321C37.8931 25.4081 37.8931 25.4761 37.8931 25.5361C37.9002 25.6719 37.9495 25.8022 38.0342 25.9087C38.1188 26.0152 38.2345 26.0926 38.3653 26.1302C38.496 26.1679 38.6352 26.1638 38.7635 26.1186C38.8918 26.0734 39.0028 25.9893 39.0811 25.8781C39.3011 25.5621 39.2171 25.2321 38.8291 24.8881C38.7611 24.7801 38.7491 24.6781 38.7931 24.5821L39.6751 24.4141Z" fill="#211606"/>
<path d="M38.7936 24.582C38.7496 24.678 38.7616 24.78 38.8296 24.888C38.4256 24.956 38.1136 25.104 37.8936 25.332C37.7536 25.168 37.5996 25.104 37.4316 25.14C37.5596 24.988 37.6736 24.888 37.7736 24.84C38.0976 24.612 38.4376 24.526 38.7936 24.582Z" fill="#954B00"/>
<path d="M23.5904 26.0556C23.9138 25.8734 24.0493 25.501 23.8931 25.2239C23.737 24.9467 23.3482 24.8698 23.0249 25.0519C22.7016 25.2341 22.566 25.6065 22.7222 25.8837C22.8784 26.1608 23.2671 26.2378 23.5904 26.0556Z" fill="#FFF5CA"/>
<path d="M38.8305 24.8877C39.2185 25.2317 39.3025 25.5617 39.0825 25.8777C39.0043 25.989 38.8932 26.073 38.7649 26.1182C38.6366 26.1634 38.4974 26.1675 38.3667 26.1299C38.236 26.0922 38.1202 26.0148 38.0356 25.9083C37.951 25.8018 37.9017 25.6715 37.8945 25.5357C37.8945 25.4757 37.8945 25.4077 37.8945 25.3317C38.1145 25.1037 38.4265 24.9557 38.8305 24.8877Z" fill="#FFF5CA"/>
<path d="M26.1163 25.542C26.7603 26.306 26.8483 27.144 26.3803 28.056C25.3803 30.008 23.9443 30.204 22.0723 28.644L22.6003 28.254C22.7683 28.13 22.9483 28.108 23.1403 28.188C24.5803 28.77 25.7803 27.876 25.5103 26.376C25.4703 26.156 25.5543 26.002 25.7623 25.914C26.0183 25.806 26.1363 25.682 26.1163 25.542Z" fill="#E59B02"/>
<path d="M41.386 25.668C41.742 25.796 41.904 26.136 41.872 26.688C41.772 28.58 40.854 29.55 39.118 29.598C38.074 29.622 37.368 29.128 37 28.116C38.076 28.376 38.972 28.414 39.688 28.23C40.12 28.114 40.414 27.87 40.57 27.498C40.742 27.078 40.862 26.66 40.93 26.244C40.95 26.128 41 26.024 41.08 25.932C41.16 25.844 41.262 25.756 41.386 25.668Z" fill="#E59B02"/>
<path d="M43.366 27.0957C43.378 27.4237 43.468 27.5337 43.636 27.4257C43.828 27.5497 43.876 27.8037 43.78 28.1877C43.716 28.4557 43.512 28.5017 43.168 28.3257C43.328 27.9457 43.394 27.5357 43.366 27.0957Z" fill="#FDB800"/>
<path d="M31.9269 32.9265C32.3136 32.8994 32.6127 32.6712 32.5949 32.4166C32.5771 32.1621 32.2492 31.9777 31.8624 32.0047C31.4756 32.0318 31.1765 32.2601 31.1943 32.5146C31.2121 32.7691 31.5401 32.9535 31.9269 32.9265Z" fill="#FFF5CA"/>
<path d="M12.2504 59.4236C12.4104 59.6916 12.3364 59.8836 12.0284 59.9996H5.73438C6.03838 57.3516 6.78038 54.8196 7.96038 52.4036C8.58438 51.1356 9.50838 49.9236 10.7324 48.7676C10.9004 51.8796 11.0984 54.8736 11.3264 57.7496C11.4104 58.8176 11.7184 59.3756 12.2504 59.4236Z" fill="#2A38CB"/>
<path d="M52.9354 49.5C53.7114 50.24 54.4254 51.262 55.0774 52.566C56.3494 55.114 57.1114 57.592 57.3634 60H51.5494C51.5774 59.896 51.4854 59.748 51.2734 59.556C51.8014 59.524 52.0854 59.222 52.1254 58.65C52.3454 55.702 52.5494 52.752 52.7374 49.8C52.7454 49.732 52.8114 49.632 52.9354 49.5Z" fill="#2A38CB"/>
<path d="M11.9213 50.247L15.5713 53.577C15.1113 53.577 14.6613 53.4603 14.2213 53.227C13.928 53.0737 13.6213 53.017 13.3013 53.057C12.6147 53.1437 12.3313 53.5337 12.4513 54.227C12.6047 55.1337 13.0747 55.9303 13.8613 56.617C14.648 57.297 15.3913 57.277 16.0913 56.557C16.3313 56.3103 16.428 56.017 16.3813 55.677C16.288 55.0703 16.088 54.4837 15.7813 53.917C15.9547 53.8037 16.128 53.7503 16.3013 53.757C16.4347 53.7637 16.5847 53.8337 16.7513 53.967C19.078 55.8737 21.1913 57.9837 23.0913 60.297L21.1613 60.287C20.9813 59.0137 20.2813 58.2637 19.0613 58.037C18.7147 57.9703 18.4647 58.0937 18.3113 58.407C18.0113 59.027 17.8313 59.6603 17.7713 60.307L1.68134 60.317C1.51166 60.3167 1.34594 60.2638 1.20648 60.1655C1.06703 60.0671 0.960535 59.9281 0.901338 59.767C-0.0286618 57.247 -0.658662 53.467 1.19134 51.187C3.88134 47.847 7.89134 48.967 11.3013 50.387C11.4347 50.4403 11.5647 50.437 11.6913 50.377C11.8447 50.3103 11.9213 50.267 11.9213 50.247ZM8.16134 50.337C7.61467 50.117 7.07467 50.0637 6.54134 50.177C6.31544 50.2251 6.10508 50.3287 5.92927 50.4784C5.75346 50.6282 5.61773 50.8194 5.53436 51.0348C5.45098 51.2502 5.42259 51.4829 5.45175 51.712C5.4809 51.9411 5.56668 52.1594 5.70134 52.347C6.36134 53.2737 7.33134 53.997 8.61134 54.517C8.71001 54.5575 8.81653 54.5753 8.92301 54.569C9.02948 54.5627 9.13317 54.5324 9.22636 54.4806C9.31955 54.4287 9.39986 54.3565 9.46131 54.2693C9.52277 54.1821 9.56379 54.0822 9.58134 53.977C9.73467 53.0703 9.55467 52.127 9.04134 51.147C8.84134 50.7603 8.548 50.4903 8.16134 50.337ZM2.90134 57.257L5.45134 59.447C5.56018 59.5396 5.70128 59.5853 5.84373 59.574C5.98619 59.5628 6.11837 59.4955 6.21134 59.387L6.48134 59.077C6.82781 58.6724 7.00347 58.1502 6.96972 57.6252C6.93597 57.1001 6.69557 56.6153 6.30134 56.277L5.91134 55.937C5.71649 55.7683 5.48943 55.6406 5.24317 55.5614C4.99691 55.4821 4.73628 55.4528 4.4762 55.4751C4.21611 55.4974 3.96169 55.5709 3.72749 55.6913C3.49329 55.8117 3.28391 55.9768 3.11134 56.177L2.84134 56.487C2.79395 56.5411 2.75785 56.6042 2.73518 56.6725C2.7125 56.7408 2.7037 56.8129 2.70929 56.8846C2.71488 56.9564 2.73475 57.0263 2.76773 57.0902C2.80071 57.1541 2.84613 57.2109 2.90134 57.257Z" fill="#C39E6C"/>
<path d="M9.04016 51.1469C9.5535 52.1269 9.7335 53.0703 9.58016 53.9769C9.56262 54.0821 9.5216 54.1821 9.46014 54.2692C9.39869 54.3564 9.31838 54.4286 9.22519 54.4805C9.13199 54.5324 9.02831 54.5626 8.92183 54.5689C8.81536 54.5752 8.70883 54.5575 8.61017 54.5169C7.33017 53.9969 6.36016 53.2736 5.70016 52.3469C5.56551 52.1593 5.47973 51.9411 5.45057 51.712C5.42142 51.4829 5.44981 51.2501 5.53318 51.0347C5.61656 50.8193 5.75228 50.6281 5.9281 50.4784C6.10391 50.3286 6.31427 50.225 6.54016 50.1769C7.0735 50.0636 7.6135 50.1169 8.16016 50.3369C8.54683 50.4903 8.84016 50.7603 9.04016 51.1469Z" fill="#DF392E"/>
<path d="M15.5706 53.5773C15.4306 53.6107 15.5006 53.724 15.7806 53.9173C16.0873 54.484 16.2873 55.0707 16.3806 55.6773C16.4273 56.0173 16.3306 56.3107 16.0906 56.5573C15.3906 57.2773 14.6473 57.2973 13.8606 56.6173C13.0739 55.9307 12.6039 55.134 12.4506 54.2273C12.3306 53.534 12.6139 53.144 13.3006 53.0573C13.6206 53.0173 13.9273 53.074 14.2206 53.2273C14.6606 53.4607 15.1106 53.5773 15.5706 53.5773Z" fill="#6925E1"/>
<path d="M2.90071 57.2569C2.84551 57.2108 2.80008 57.1541 2.7671 57.0901C2.73412 57.0262 2.71425 56.9563 2.70866 56.8845C2.70307 56.8128 2.71188 56.7407 2.73455 56.6724C2.75723 56.6041 2.79332 56.5411 2.84071 56.4869L3.11071 56.1769C3.28328 55.9767 3.49266 55.8117 3.72686 55.6912C3.96107 55.5708 4.21549 55.4973 4.47557 55.475C4.73565 55.4527 4.99629 55.482 5.24255 55.5613C5.48881 55.6406 5.71586 55.7682 5.91071 55.9369L6.30071 56.2769C6.69494 56.6152 6.93534 57.1001 6.96909 57.6251C7.00284 58.1501 6.82719 58.6723 6.48071 59.0769L6.21071 59.3869C6.11775 59.4954 5.98556 59.5627 5.84311 59.5739C5.70066 59.5852 5.55955 59.5395 5.45071 59.4469L2.90071 57.2569Z" fill="#37C955"/>
<path d="M18.6575 33.7683L43.4195 33.7383H44.9735L52.2095 33.7263C52.3655 33.9143 52.5755 34.0363 52.8395 34.0923C52.8955 34.0243 52.9855 34.1303 53.1095 34.4103C52.7535 34.6303 52.2835 34.7483 51.6995 34.7643L45.3695 34.8303C43.2415 34.5903 41.1015 34.5163 38.9495 34.6083C38.4515 34.6263 37.9895 34.4343 37.5395 34.4343C33.1155 34.4143 28.6935 34.4143 24.2735 34.4343C20.6615 34.4523 15.8435 34.7583 11.5955 34.6923C11.4115 34.7003 11.2475 34.6623 11.1035 34.5783C10.9355 34.4823 10.8935 34.3463 10.9775 34.1703L11.2055 33.6963L18.6575 33.7683Z" fill="#CAC9CD"/>
<path d="M11.2056 33.6963L10.9776 34.1703C10.8936 34.3463 10.9356 34.4823 11.1036 34.5783C11.2476 34.6623 11.4116 34.7003 11.5956 34.6923C12.8716 34.8203 14.1416 34.8923 15.4056 34.9083C15.9576 34.9163 16.4556 35.0723 16.8996 35.3763C16.9916 35.4403 17.0956 35.4663 17.2116 35.4543C17.7076 35.4143 18.1236 35.6023 18.4596 36.0183C19.0756 36.7783 19.2856 37.6023 19.0896 38.4903C19.0496 38.6823 19.0956 38.8483 19.2276 38.9883C19.3236 39.0923 19.4396 39.1583 19.5756 39.1863C19.7836 39.2343 19.9296 39.3543 20.0136 39.5463C20.1776 39.9183 20.1076 40.1803 19.8036 40.3323C19.6396 40.4163 19.6236 40.5243 19.7556 40.6563C19.8116 40.7123 19.8796 40.7503 19.9596 40.7703C20.0029 40.7789 20.0442 40.796 20.0809 40.8205C20.1177 40.8451 20.1493 40.8767 20.1738 40.9135C20.1983 40.9503 20.2153 40.9915 20.2239 41.0349C20.2324 41.0783 20.2323 41.1229 20.2236 41.1663C20.0836 41.8423 20.2696 42.4003 20.7816 42.8403C20.8056 42.8643 20.8336 42.8783 20.8656 42.8823C20.9776 42.8943 21.0156 42.8463 20.9796 42.7383C20.9768 42.7289 20.977 42.7189 20.98 42.7096C20.9831 42.7003 20.989 42.6921 20.9968 42.6863C21.0046 42.6804 21.0141 42.677 21.0239 42.6767C21.0337 42.6763 21.0433 42.679 21.0516 42.6843C21.1596 42.7683 21.2436 42.8723 21.3036 42.9963C21.3636 43.1243 21.3756 43.2563 21.3396 43.3923C21.2556 43.6923 21.3196 43.9383 21.5316 44.1303C21.6956 44.2783 21.8016 44.4583 21.8496 44.6703L22.0536 45.6063C22.0771 45.7209 22.1311 45.8274 22.2102 45.9149C22.2892 46.0024 22.3905 46.0678 22.5036 46.1043C22.7916 46.1963 22.9876 46.3863 23.0916 46.6743C23.2716 47.1583 23.6556 47.4783 24.2436 47.6343C24.3836 47.6703 24.4436 47.7503 24.4236 47.8743C24.3756 48.1423 24.4736 48.3383 24.7176 48.4623L25.7076 48.9723C25.9116 49.0763 26.0816 49.0383 26.2176 48.8583C26.3976 48.6223 26.6056 48.5963 26.8416 48.7803C27.1176 48.9963 27.2416 48.9303 27.2136 48.5823C27.2016 48.4383 27.2736 48.3543 27.4296 48.3303C27.7336 48.2823 27.9256 48.1083 28.0056 47.8083C28.2456 46.8763 28.7356 46.1643 29.4756 45.6723C29.8756 45.4083 30.3096 45.2323 30.7776 45.1443C31.1456 45.0723 31.5336 44.9043 31.9416 44.6403C32.2416 44.4483 32.3976 44.4823 32.4096 44.7423C32.0656 44.9823 31.8696 45.2383 31.8216 45.5103C31.7776 45.7383 31.8736 45.8643 32.1096 45.8883C32.5496 45.9243 32.8476 45.6243 33.0036 44.9883C33.2996 44.8803 33.5356 44.9323 33.7116 45.1443C33.8076 45.2643 33.9316 45.3323 34.0836 45.3483C34.4876 45.3883 34.8116 45.5483 35.0556 45.8283C35.1956 45.9843 35.3616 46.0763 35.5536 46.1043C35.7136 46.1323 35.8396 46.2143 35.9316 46.3503C36.1796 46.7103 36.5896 46.8383 37.1616 46.7343C37.4456 46.6863 37.5916 46.5363 37.5996 46.2843C37.6076 46.0923 37.6756 45.9243 37.8036 45.7803L38.6196 44.8743C38.7596 44.7183 38.8196 44.5343 38.7996 44.3223C38.7476 43.8143 38.9416 43.4503 39.3816 43.2303C40.1056 42.8703 40.3276 42.3623 40.0476 41.7063C39.9836 41.5503 39.9576 41.3883 39.9696 41.2203L40.1976 37.9443C40.2011 37.8982 40.2161 37.8537 40.2412 37.8149C40.2664 37.7761 40.3009 37.7443 40.3416 37.7223C40.5816 37.5943 40.6896 37.3903 40.6656 37.1103C40.6536 37.0023 40.6876 36.9083 40.7676 36.8283L41.0556 36.5403C41.1653 36.4306 41.2422 36.2935 41.2776 36.1443C41.3736 35.7323 41.6236 35.5083 42.0276 35.4723C43.1256 35.3763 44.2176 34.9323 45.3696 34.8303L51.6996 34.7643L47.4096 35.0643C47.2966 35.072 47.1892 35.1162 47.1036 35.1903C46.9236 35.3423 46.7256 35.3843 46.5096 35.3163C46.4626 35.3024 46.4133 35.298 46.3647 35.3032C46.3162 35.3084 46.2692 35.3232 46.2267 35.3467C46.1842 35.3702 46.1469 35.4019 46.1172 35.44C46.0875 35.4781 46.0658 35.5217 46.0536 35.5683C45.9016 36.1483 45.8536 36.7003 45.9096 37.2243C45.9336 37.4363 45.8716 37.6203 45.7236 37.7763C45.4596 38.0483 45.2816 38.3543 45.1896 38.6943C45.1834 38.7217 45.1829 38.7502 45.1883 38.7777C45.1936 38.8053 45.2046 38.8312 45.2205 38.854C45.2364 38.8767 45.2568 38.8956 45.2805 38.9094C45.3041 38.9233 45.3304 38.9318 45.3576 38.9343C45.4856 38.9463 45.5896 39.0023 45.6696 39.1023C45.7896 39.2463 45.7796 39.3823 45.6396 39.5103C45.5716 39.5743 45.4916 39.6243 45.3996 39.6603C45.3165 39.6948 45.2449 39.7514 45.1929 39.8236C45.141 39.8957 45.1107 39.9805 45.1056 40.0683L44.8476 44.5983C44.8396 44.7383 44.7856 44.8583 44.6856 44.9583L44.5416 45.1083C44.4576 45.1923 44.4136 45.2923 44.4096 45.4083C44.3936 45.9283 44.2476 46.4043 43.9716 46.8363C43.8596 47.0083 43.8076 47.1983 43.8156 47.4063C43.8356 47.8183 43.7136 48.1923 43.4496 48.5283C43.2576 48.7683 43.1156 49.0403 43.0236 49.3443C42.7116 50.3643 42.3156 51.3043 41.8356 52.1643C41.7436 52.3323 41.6976 52.5123 41.6976 52.7043C41.7096 53.2863 41.6016 53.9823 41.2116 54.4203C40.7556 54.9363 40.3576 55.5043 40.0176 56.1243C39.8016 56.5243 39.4856 56.8403 39.0696 57.0723C38.5016 57.3883 37.9436 57.6723 37.3956 57.9243C37.2316 58.0003 37.1776 58.1243 37.2336 58.2963C37.2496 58.3523 37.2436 58.4063 37.2156 58.4583C37.1396 58.5863 37.0256 58.6563 36.8736 58.6683L32.7816 59.0043C32.6757 59.0122 32.5694 58.9893 32.4756 58.9383C32.3356 58.8583 32.1876 58.8243 32.0316 58.8363C30.0396 58.9683 28.0416 58.8663 26.0376 58.5303C25.9536 58.5183 25.8836 58.4763 25.8276 58.4043C25.7516 58.3043 25.6536 58.2803 25.5336 58.3323C24.6576 58.7523 23.9416 58.4743 23.3856 57.4983C23.3746 57.4792 23.3716 57.4565 23.3772 57.4351C23.3828 57.4138 23.3966 57.3955 23.4156 57.3843C23.4716 57.3563 23.5296 57.3523 23.5896 57.3723C23.9456 57.4923 23.9556 57.4683 23.6196 57.3003C23.2356 57.1083 22.8556 56.9143 22.4796 56.7183C22.3796 56.6663 22.2756 56.6583 22.1676 56.6943L21.9216 56.7843C21.7056 56.8603 21.5636 56.7903 21.4956 56.5743C21.4516 56.4263 21.3536 56.3283 21.2016 56.2803C20.9936 56.2083 20.8816 56.0623 20.8656 55.8423C20.8376 55.3823 20.6256 55.1583 20.2296 55.1703C20.0736 55.1743 19.9336 55.1263 19.8096 55.0263C19.5176 54.7943 19.3136 54.5463 19.1976 54.2823C19.0696 53.9983 18.9196 53.7423 18.7476 53.5143C18.1796 52.7463 17.6636 51.8983 17.1996 50.9703C16.8756 50.3163 17.1276 49.6863 16.4796 49.2183C16.2396 49.0423 16.1536 48.8103 16.2216 48.5223C16.3456 48.0063 16.2076 47.5843 15.8076 47.2563C15.7156 47.1843 15.6776 47.0923 15.6936 46.9803C15.8016 46.1323 15.6036 45.3883 15.0996 44.7483C15.0796 44.7243 15.0676 44.6963 15.0636 44.6643C15.0596 44.5883 15.0836 44.5383 15.1356 44.5143C15.2476 44.4543 15.2916 44.3643 15.2676 44.2443C15.0036 43.0443 14.7716 41.8483 14.5716 40.6563C14.4236 39.7603 14.1596 38.8603 13.7796 37.9563C13.6996 37.7683 13.6836 37.5783 13.7316 37.3863C13.8676 36.8503 13.6956 36.3523 13.2156 35.8923C12.4756 35.1763 11.4096 34.9943 10.0176 35.3463C10.1976 34.9183 10.2896 34.5323 10.2936 34.1883C10.8176 34.1643 11.0036 34.0503 10.8516 33.8463C11.0756 33.8223 11.1936 33.7723 11.2056 33.6963ZM33.5496 47.5083L33.9516 46.6023C34.0876 46.3063 33.9936 46.1403 33.6696 46.1043C33.1016 46.0363 32.5556 46.0843 32.0316 46.2483C31.8516 46.3043 31.6716 46.3023 31.4916 46.2423C30.1436 45.7863 29.3836 46.2503 29.2116 47.6343C29.0916 48.5703 29.4116 49.4543 30.1716 50.2863C30.3156 50.4423 30.4916 50.5203 30.6996 50.5203L32.8716 50.5143C33.0869 50.5138 33.2979 50.4546 33.4821 50.3429C33.6662 50.2313 33.8165 50.0714 33.9169 49.8804C34.0174 49.6894 34.0641 49.4744 34.0523 49.2585C34.0404 49.0425 33.9704 48.8337 33.8496 48.6543L33.6156 48.3063C33.5383 48.1901 33.4917 48.056 33.4802 47.9165C33.4687 47.777 33.4925 47.6366 33.5496 47.5083Z" fill="#8A8D8F"/>
<path d="M45.3697 34.8299C44.2177 34.9319 43.1257 35.3759 42.0277 35.4719C41.6237 35.5079 41.3737 35.7319 41.2777 36.1439C41.2423 36.2932 41.1655 36.4303 41.0557 36.5399L40.7677 36.8279C40.6877 36.9079 40.6537 37.0019 40.6657 37.1099C40.6897 37.3899 40.5817 37.5939 40.3417 37.7219C40.301 37.7439 40.2665 37.7758 40.2414 37.8146C40.2162 37.8534 40.2012 37.8978 40.1977 37.9439L39.9697 41.2199C39.9577 41.3879 39.9837 41.5499 40.0477 41.7059C40.3277 42.3619 40.1057 42.8699 39.3817 43.2299C38.9417 43.4499 38.7477 43.8139 38.7997 44.3219C38.8197 44.5339 38.7597 44.7179 38.6197 44.8739L37.8037 45.7799C37.6757 45.9239 37.6077 46.0919 37.5997 46.2839C37.5917 46.5359 37.4457 46.6859 37.1617 46.7339C36.5897 46.8379 36.1797 46.7099 35.9317 46.3499C35.8397 46.2139 35.7137 46.1319 35.5537 46.1039C35.3617 46.0759 35.1957 45.9839 35.0557 45.8279C34.8117 45.5479 34.4877 45.3879 34.0837 45.3479C33.9317 45.3319 33.8077 45.2639 33.7117 45.1439C33.5357 44.9319 33.2997 44.8799 33.0037 44.9879C33.0077 44.9159 33.0037 44.8519 32.9917 44.7959C32.9597 44.6479 32.8697 44.5879 32.7217 44.6159C32.6137 44.6359 32.5097 44.6779 32.4097 44.7419C32.3977 44.4819 32.2417 44.4479 31.9417 44.6399C31.5337 44.9039 31.1457 45.0719 30.7777 45.1439C30.3097 45.2319 29.8757 45.4079 29.4757 45.6719C28.7357 46.1639 28.2457 46.8759 28.0057 47.8079C27.9257 48.1079 27.7337 48.2819 27.4297 48.3299C27.2737 48.3539 27.2017 48.4379 27.2137 48.5819C27.2417 48.9299 27.1177 48.9959 26.8417 48.7799C26.6057 48.5959 26.3977 48.6219 26.2177 48.8579C26.0817 49.0379 25.9117 49.0759 25.7077 48.9719L24.7177 48.4619C24.4737 48.3379 24.3757 48.1419 24.4237 47.8739C24.4437 47.7499 24.3837 47.6699 24.2437 47.6339C23.6557 47.4779 23.2717 47.1579 23.0917 46.6739C22.9877 46.3859 22.7917 46.1959 22.5037 46.1039C22.3906 46.0674 22.2894 46.0021 22.2103 45.9146C22.1312 45.8271 22.0772 45.7206 22.0537 45.6059L21.8497 44.6699C21.8017 44.4579 21.6957 44.2779 21.5317 44.1299C21.3197 43.9379 21.2557 43.6919 21.3397 43.3919C21.3757 43.2559 21.3637 43.1239 21.3037 42.9959C21.2437 42.8719 21.1597 42.7679 21.0517 42.6839C21.0435 42.6786 21.0338 42.676 21.024 42.6763C21.0142 42.6767 21.0048 42.68 20.9969 42.6859C20.9891 42.6918 20.9832 42.6999 20.9802 42.7092C20.9771 42.7185 20.9769 42.7286 20.9797 42.7379C21.0157 42.8459 20.9777 42.8939 20.8657 42.8819C20.8337 42.8779 20.8057 42.8639 20.7817 42.8399C20.2697 42.3999 20.0837 41.8419 20.2237 41.1659C20.2324 41.1226 20.2325 41.078 20.224 41.0346C20.2155 40.9912 20.1984 40.9499 20.1739 40.9131C20.1494 40.8764 20.1178 40.8448 20.0811 40.8202C20.0443 40.7956 20.0031 40.7785 19.9597 40.7699C19.8797 40.7499 19.8117 40.7119 19.7557 40.6559C19.6237 40.5239 19.6397 40.4159 19.8037 40.3319C20.1077 40.1799 20.1777 39.9179 20.0137 39.5459C19.9297 39.3539 19.7837 39.2339 19.5757 39.1859C19.4397 39.1579 19.3237 39.0919 19.2277 38.9879C19.0957 38.8479 19.0497 38.6819 19.0897 38.4899C19.2857 37.6019 19.0757 36.7779 18.4597 36.0179C18.1237 35.6019 17.7077 35.4139 17.2117 35.4539C17.0957 35.4659 16.9917 35.4399 16.8997 35.3759C16.4557 35.0719 15.9577 34.9159 15.4057 34.9079C14.1417 34.8919 12.8717 34.8199 11.5957 34.6919C15.8437 34.7579 20.6617 34.4519 24.2737 34.4339C28.6937 34.4139 33.1157 34.4139 37.5397 34.4339C37.9897 34.4339 38.4517 34.6259 38.9497 34.6079C41.1017 34.5159 43.2417 34.5899 45.3697 34.8299Z" fill="#929496"/>
<path d="M53.1096 34.4102C53.4896 35.2582 53.6596 35.9902 53.6196 36.6062C53.3316 40.7502 53.0456 44.8982 52.7616 49.0502C52.7536 49.1902 52.8116 49.3402 52.9356 49.5002C52.8116 49.6322 52.7456 49.7322 52.7376 49.8002C52.5496 52.7522 52.3456 55.7022 52.1256 58.6502C52.0856 59.2222 51.8016 59.5242 51.2736 59.5562C49.7536 59.3922 48.7456 59.3102 48.2496 59.3102C36.2696 59.3342 24.2696 59.3722 12.2496 59.4242C11.7176 59.3762 11.4096 58.8182 11.3256 57.7502C11.0976 54.8742 10.8996 51.8802 10.7316 48.7682L10.0176 35.3462C11.4096 34.9942 12.4756 35.1762 13.2156 35.8922C13.6956 36.3522 13.8676 36.8502 13.7316 37.3862C13.6836 37.5782 13.6996 37.7682 13.7796 37.9562C14.1596 38.8602 14.4236 39.7602 14.5716 40.6562C14.7716 41.8482 15.0036 43.0442 15.2676 44.2442C15.2916 44.3642 15.2476 44.4542 15.1356 44.5142C15.0836 44.5382 15.0596 44.5882 15.0636 44.6642C15.0676 44.6962 15.0796 44.7242 15.0996 44.7482C15.6036 45.3882 15.8016 46.1322 15.6936 46.9802C15.6776 47.0922 15.7156 47.1842 15.8076 47.2562C16.2076 47.5842 16.3456 48.0062 16.2216 48.5222C16.1536 48.8102 16.2396 49.0422 16.4796 49.2182C17.1276 49.6862 16.8756 50.3162 17.1996 50.9702C17.6636 51.8982 18.1796 52.7462 18.7476 53.5142C18.9196 53.7422 19.0696 53.9982 19.1976 54.2822C19.3136 54.5462 19.5176 54.7942 19.8096 55.0262C19.9336 55.1262 20.0736 55.1742 20.2296 55.1702C20.6256 55.1582 20.8376 55.3822 20.8656 55.8422C20.8816 56.0622 20.9936 56.2082 21.2016 56.2802C21.3536 56.3282 21.4516 56.4262 21.4956 56.5742C21.5636 56.7902 21.7056 56.8602 21.9216 56.7842L22.1676 56.6942C22.2756 56.6582 22.3796 56.6662 22.4796 56.7182C22.8556 56.9142 23.2356 57.1082 23.6196 57.3002C23.9556 57.4682 23.9456 57.4922 23.5896 57.3722C23.5296 57.3522 23.4716 57.3562 23.4156 57.3842C23.3966 57.3954 23.3828 57.4137 23.3772 57.435C23.3716 57.4563 23.3746 57.479 23.3856 57.4982C23.9416 58.4742 24.6576 58.7522 25.5336 58.3322C25.6536 58.2802 25.7516 58.3042 25.8276 58.4042C25.8836 58.4762 25.9536 58.5182 26.0376 58.5302C28.0416 58.8662 30.0396 58.9682 32.0316 58.8362C32.1876 58.8242 32.3356 58.8582 32.4756 58.9382C32.5695 58.9891 32.6757 59.012 32.7816 59.0042L36.8736 58.6682C37.0256 58.6562 37.1396 58.5862 37.2156 58.4582C37.2436 58.4062 37.2496 58.3522 37.2336 58.2962C37.1776 58.1242 37.2316 58.0002 37.3956 57.9242C37.9436 57.6722 38.5016 57.3882 39.0696 57.0722C39.4856 56.8402 39.8016 56.5242 40.0176 56.1242C40.3576 55.5042 40.7556 54.9362 41.2116 54.4202C41.6016 53.9822 41.7096 53.2862 41.6976 52.7042C41.6976 52.5122 41.7436 52.3322 41.8356 52.1642C42.3156 51.3042 42.7116 50.3642 43.0236 49.3442C43.1156 49.0402 43.2576 48.7682 43.4496 48.5282C43.7136 48.1922 43.8356 47.8182 43.8156 47.4062C43.8076 47.1982 43.8596 47.0082 43.9716 46.8362C44.2476 46.4042 44.3936 45.9282 44.4096 45.4082C44.4136 45.2922 44.4576 45.1922 44.5416 45.1082L44.6856 44.9582C44.7856 44.8582 44.8396 44.7382 44.8476 44.5982L45.1056 40.0682C45.1107 39.9804 45.141 39.8956 45.1929 39.8234C45.2449 39.7513 45.3165 39.6947 45.3996 39.6602C45.4916 39.6242 45.5716 39.5742 45.6396 39.5102C45.7796 39.3822 45.7896 39.2462 45.6696 39.1022C45.5896 39.0022 45.4856 38.9462 45.3576 38.9342C45.3304 38.9316 45.3041 38.9232 45.2805 38.9093C45.2568 38.8954 45.2364 38.8765 45.2205 38.8538C45.2046 38.8311 45.1936 38.8051 45.1883 38.7776C45.1829 38.7501 45.1834 38.7216 45.1896 38.6942C45.2816 38.3542 45.4596 38.0482 45.7236 37.7762C45.8716 37.6202 45.9336 37.4362 45.9096 37.2242C45.8536 36.7002 45.9016 36.1482 46.0536 35.5682C46.0658 35.5216 46.0875 35.4779 46.1172 35.4399C46.1469 35.4018 46.1842 35.3701 46.2267 35.3466C46.2692 35.3231 46.3162 35.3083 46.3648 35.3031C46.4133 35.2978 46.4626 35.3023 46.5096 35.3162C46.7256 35.3842 46.9236 35.3422 47.1036 35.1902C47.1892 35.1161 47.2966 35.0719 47.4096 35.0642L51.6996 34.7642C52.2836 34.7482 52.7536 34.6302 53.1096 34.4102Z" fill="#828588"/>
<path d="M33.0049 44.9881C32.8489 45.6241 32.5509 45.9241 32.1109 45.8881C31.8749 45.8641 31.7789 45.7381 31.8229 45.5101C31.8709 45.2381 32.0669 44.9821 32.4109 44.7421C32.5109 44.6781 32.6149 44.6361 32.7229 44.6161C32.8709 44.5881 32.9609 44.6481 32.9929 44.7961C33.0049 44.8521 33.0089 44.9161 33.0049 44.9881Z" fill="white"/>
<path d="M33.616 48.3058L33.85 48.6538C33.9708 48.8332 34.0409 49.042 34.0528 49.258C34.0646 49.4739 34.0178 49.6889 33.9174 49.8799C33.817 50.0709 33.6667 50.2308 33.4825 50.3424C33.2984 50.4541 33.0874 50.5133 32.872 50.5138L30.7 50.5198C30.492 50.5198 30.316 50.4418 30.172 50.2858C29.412 49.4538 29.092 48.5698 29.212 47.6338C29.384 46.2498 30.144 45.7858 31.492 46.2418C31.672 46.3018 31.852 46.3038 32.032 46.2478C32.556 46.0838 33.102 46.0358 33.67 46.1038C33.994 46.1398 34.088 46.3058 33.952 46.6018L33.55 47.5078C33.493 47.6361 33.4691 47.7765 33.4807 47.916C33.4922 48.0555 33.5388 48.1896 33.616 48.3058Z" fill="white"/>
<path d="M51.2733 59.5556C51.4853 59.7476 51.5773 59.8956 51.5493 59.9996H12.0273C12.3353 59.8836 12.4093 59.6916 12.2493 59.4236C24.2693 59.3716 36.2693 59.3336 48.2493 59.3096C48.7453 59.3096 49.7533 59.3916 51.2733 59.5556Z" fill="#5F6665"/>
<path d="M51.36 4.24293C48.6733 5.87626 45.59 6.87626 42.11 7.24293C38.3967 7.63626 34.72 8.24293 31.08 9.06293C30.76 9.13626 30.4767 9.28626 30.23 9.51293C29.99 9.73959 29.7033 9.83293 29.37 9.79293C29.0367 9.75293 28.7033 9.75626 28.37 9.80293C26.7033 10.0229 25.03 10.2396 23.35 10.4529C22.1833 10.5996 20.51 10.7063 18.33 10.7729C15.5633 10.8596 12.82 11.1896 10.1 11.7629C8.87333 12.0163 7.50667 12.0796 6 11.9529C7.09333 10.2596 8.83333 8.86293 11.22 7.76293C16.74 5.22293 22.05 3.45293 27.15 2.45293C27.5436 2.37559 27.8954 2.15887 28.14 1.84293C28.8933 0.882927 29.77 0.742927 30.77 1.42293C31.0862 1.63633 31.465 1.73191 31.84 1.69293C35.7 1.23959 40.2033 1.10959 45.35 1.30293C48.65 1.42293 50.6533 2.40293 51.36 4.24293Z" fill="#6B5454"/>
<path d="M51.36 4.24316C52.12 7.53316 50.36 9.31316 49.96 11.9232C49.7067 13.6165 49.47 15.3132 49.25 17.0132C49.1833 17.5798 48.93 18.1432 48.49 18.7032C47.07 18.0365 45.5967 17.9998 44.07 18.5932C43.7433 18.7198 43.4567 18.6598 43.21 18.4132L42.91 18.1132C42.6567 17.8665 42.3533 17.7465 42 17.7532C41.56 17.7665 41.1567 17.6332 40.79 17.3532C40.51 17.1398 40.1967 17.0132 39.85 16.9732C33.3033 16.2265 27.5533 16.1032 22.6 16.6032C20.1867 16.8432 17.4733 17.5365 14.46 18.6832C14.0267 18.1765 13.7033 17.3832 13.49 16.3032C13.43 15.9765 13.2367 15.7832 12.91 15.7232C10.13 15.2032 7.19 15.0232 6 11.9532C7.50667 12.0798 8.87333 12.0165 10.1 11.7632C12.82 11.1898 15.5633 10.8598 18.33 10.7732C20.51 10.7065 22.1833 10.5998 23.35 10.4532C25.03 10.2398 26.7033 10.0232 28.37 9.80316C28.7033 9.7565 29.0367 9.75316 29.37 9.79316C29.7033 9.83316 29.99 9.73983 30.23 9.51316C30.4767 9.2865 30.76 9.1365 31.08 9.06316C34.72 8.24316 38.3967 7.6365 42.11 7.24316C45.59 6.8765 48.6733 5.8765 51.36 4.24316Z" fill="#302626"/>
</svg>
