<svg width="300" height="300" viewBox="0 0 300 300" fill="none" xmlns="http://www.w3.org/2000/svg">
<rect width="300" height="300" rx="150" fill="#EAEAE5"/>
<path d="M71.4219 218L70.8359 208.234L83.1406 205.109C83.401 204.458 83.5964 202.766 83.7266 200.031C83.987 197.297 84.1823 193.781 84.3125 189.484C84.4427 185.057 84.5078 180.24 84.5078 175.031V146.32C84.5078 140.982 84.4427 136.099 84.3125 131.672C84.1823 127.245 83.987 123.664 83.7266 120.93C83.5964 118.065 83.401 116.438 83.1406 116.047L70.8359 113.117L71.4219 103.352H123.961L124.547 113.117L112.047 116.047C111.786 116.698 111.526 118.456 111.266 121.32C111.135 124.055 111.005 127.635 110.875 132.062C110.875 136.359 110.875 141.112 110.875 146.32V175.031C110.875 180.109 110.875 184.797 110.875 189.094C111.005 193.391 111.135 196.971 111.266 199.836C111.526 202.701 111.786 204.458 112.047 205.109L124.547 208.234L123.961 218H71.4219ZM184.117 219.562C175.003 219.562 166.995 217.74 160.094 214.094C153.193 210.318 147.789 205.174 143.883 198.664C139.977 192.023 138.023 184.471 138.023 176.008C138.023 166.372 140.237 158.169 144.664 151.398C149.091 144.628 154.885 139.484 162.047 135.969C169.208 132.453 176.826 130.695 184.898 130.695C193.492 130.695 201.044 132.518 207.555 136.164C214.195 139.81 219.339 144.953 222.984 151.594C226.76 158.104 228.648 165.591 228.648 174.055C228.648 182.648 226.63 190.396 222.594 197.297C218.688 204.068 213.349 209.471 206.578 213.508C199.807 217.544 192.32 219.562 184.117 219.562ZM186.07 207.062C189.326 207.062 192.06 206.021 194.273 203.938C196.617 201.854 198.375 198.794 199.547 194.758C200.849 190.721 201.5 185.904 201.5 180.305C201.5 169.107 199.677 159.992 196.031 152.961C192.516 145.93 187.763 142.414 181.773 142.414C176.826 142.414 172.919 144.953 170.055 150.031C167.19 154.979 165.758 161.75 165.758 170.344C165.758 177.245 166.604 183.495 168.297 189.094C170.12 194.693 172.529 199.12 175.523 202.375C178.648 205.5 182.164 207.062 186.07 207.062Z" fill="#096F52"/>
</svg>
