<svg width="300" height="300" viewBox="0 0 300 300" fill="none" xmlns="http://www.w3.org/2000/svg">
<rect width="300" height="300" rx="150" fill="#EAEAE5"/>
<path d="M30.7109 184L30.418 179.117L36.5703 177.555C36.7005 177.229 36.7982 176.383 36.8633 175.016C36.9935 173.648 37.0911 171.891 37.1562 169.742C37.2214 167.529 37.2539 165.12 37.2539 162.516V148.16C37.2539 145.491 37.2214 143.049 37.1562 140.836C37.0911 138.622 36.9935 136.832 36.8633 135.465C36.7982 134.033 36.7005 133.219 36.5703 133.023L30.418 131.559L30.7109 126.676H56.9805L57.2734 131.559L51.0234 133.023C50.8932 133.349 50.763 134.228 50.6328 135.66C50.5677 137.027 50.5026 138.818 50.4375 141.031C50.4375 143.18 50.4375 145.556 50.4375 148.16V162.516C50.4375 165.055 50.4375 167.398 50.4375 169.547C50.5026 171.695 50.5677 173.486 50.6328 174.918C50.763 176.35 50.8932 177.229 51.0234 177.555L57.2734 179.117L56.9805 184H30.7109ZM87.0586 184.781C82.5013 184.781 78.4974 183.87 75.0469 182.047C71.5964 180.159 68.8945 177.587 66.9414 174.332C64.9883 171.012 64.0117 167.236 64.0117 163.004C64.0117 158.186 65.1185 154.085 67.332 150.699C69.5456 147.314 72.4427 144.742 76.0234 142.984C79.6042 141.227 83.4128 140.348 87.4492 140.348C91.7461 140.348 95.5221 141.259 98.7773 143.082C102.098 144.905 104.669 147.477 106.492 150.797C108.38 154.052 109.324 157.796 109.324 162.027C109.324 166.324 108.315 170.198 106.297 173.648C104.344 177.034 101.674 179.736 98.2891 181.754C94.9036 183.772 91.1602 184.781 87.0586 184.781ZM88.0352 178.531C89.6628 178.531 91.0299 178.01 92.1367 176.969C93.3086 175.927 94.1875 174.397 94.7734 172.379C95.4245 170.361 95.75 167.952 95.75 165.152C95.75 159.553 94.8385 154.996 93.0156 151.48C91.2578 147.965 88.8815 146.207 85.8867 146.207C83.4128 146.207 81.4596 147.477 80.0273 150.016C78.5951 152.49 77.8789 155.875 77.8789 160.172C77.8789 163.622 78.3021 166.747 79.1484 169.547C80.0599 172.346 81.2643 174.56 82.7617 176.188C84.3242 177.75 86.082 178.531 88.0352 178.531ZM114.695 184L114.402 179.508L120.457 177.848C120.522 177.587 120.587 177.001 120.652 176.09C120.717 175.113 120.783 173.941 120.848 172.574C120.913 171.142 120.945 169.645 120.945 168.082L121.043 160.758C121.043 158.805 120.978 157.079 120.848 155.582C120.717 154.02 120.49 152.392 120.164 150.699L113.914 149.332V144.938L130.809 140.543L133.348 142.203L132.957 149.918L133.25 150.016C135.138 146.37 137.026 143.896 138.914 142.594C140.867 141.292 142.853 140.641 144.871 140.641C146.629 140.641 148.159 141.129 149.461 142.105C150.828 143.082 151.512 144.612 151.512 146.695C151.512 148.779 150.796 150.406 149.363 151.578C147.931 152.75 146.271 153.336 144.383 153.336C142.82 153.336 141.421 153.076 140.184 152.555C138.947 151.969 137.579 150.96 136.082 149.527L138.816 149.82C137.84 150.536 136.896 151.448 135.984 152.555C135.073 153.661 134.292 154.931 133.641 156.363L133.738 164.078C133.803 166.487 133.836 168.668 133.836 170.621C133.901 172.509 133.966 174.104 134.031 175.406C134.096 176.643 134.161 177.457 134.227 177.848L142.723 179.312L142.43 184H114.695ZM154.246 184L153.953 179.41L160.496 177.848C160.561 177.587 160.626 177.001 160.691 176.09C160.757 175.113 160.822 173.941 160.887 172.574C160.952 171.207 160.984 169.71 160.984 168.082L161.082 160.758C161.082 158.805 161.017 157.047 160.887 155.484C160.757 153.922 160.529 152.327 160.203 150.699L153.66 149.332V144.938L171.629 140.543L174.266 142.203C174.07 144.286 173.908 146.402 173.777 148.551C173.712 150.634 173.68 153.01 173.68 155.68V167.984C173.68 170.133 173.712 172.184 173.777 174.137C173.908 176.09 174.038 177.327 174.168 177.848L180.711 179.41L180.418 184H154.246ZM167.43 132.535C164.826 132.535 162.775 131.754 161.277 130.191C159.78 128.564 159.031 126.708 159.031 124.625C159.031 122.542 159.78 120.719 161.277 119.156C162.775 117.529 164.826 116.715 167.43 116.715C170.034 116.715 172.052 117.529 173.484 119.156C174.917 120.719 175.633 122.542 175.633 124.625C175.633 126.708 174.917 128.564 173.484 130.191C172.052 131.754 170.034 132.535 167.43 132.535ZM195.75 184.977C193.211 184.977 191.03 184.13 189.207 182.438C187.449 180.68 186.57 178.564 186.57 176.09C186.57 174.397 186.961 172.867 187.742 171.5C188.589 170.133 189.695 169.059 191.062 168.277C192.495 167.431 194.025 167.008 195.652 167.008C198.257 167.008 200.438 167.887 202.195 169.645C204.018 171.402 204.93 173.551 204.93 176.09C204.93 178.564 204.018 180.68 202.195 182.438C200.438 184.13 198.289 184.977 195.75 184.977Z" fill="#096F52"/>
<path d="M246.133 184L245.84 179.117L250.918 178.141C250.527 177.424 250.104 176.773 249.648 176.188C249.258 175.536 248.607 174.625 247.695 173.453L235.586 158.707H231.777V154.117L235.879 153.336L255.996 132.633L249.746 131.559L250.039 126.676H272.109L272.402 131.754L265.957 132.73L244.473 151.969L244.277 147.77L263.027 170.23C264.59 171.988 265.827 173.421 266.738 174.527C267.65 175.569 268.366 176.383 268.887 176.969C269.408 177.49 269.831 177.913 270.156 178.238L275.137 179.02V184H246.133ZM214.004 184L213.711 179.117L219.961 177.555C220.091 177.164 220.189 175.602 220.254 172.867C220.319 170.068 220.352 166.617 220.352 162.516V148.16C220.352 145.491 220.319 143.082 220.254 140.934C220.189 138.72 220.091 136.93 219.961 135.562C219.896 134.195 219.798 133.382 219.668 133.121L213.516 131.559L213.809 126.676H240.078L240.371 131.559L234.121 133.121C233.991 133.382 233.861 134.228 233.73 135.66C233.665 137.027 233.6 138.818 233.535 141.031C233.535 143.18 233.535 145.556 233.535 148.16V162.516C233.535 166.617 233.568 170.068 233.633 172.867C233.763 175.602 233.861 177.164 233.926 177.555L239.004 179.117L238.711 184H214.004Z" fill="#096F52"/>
</svg>
