<svg width="510" height="510" viewBox="0 0 510 510" fill="none" xmlns="http://www.w3.org/2000/svg">
<path d="M55.6667 1.93258C30.2 6.73258 7.66666 28.9992 2.2 54.8659C-0.46667 67.9326 -0.46667 442.066 2.2 455.133C7.8 481.666 30.3333 503.399 56.8667 508.199C67.9333 510.199 442.067 510.199 453.133 508.199C480.067 503.399 503.4 480.066 508.2 453.133C510.2 442.066 510.2 67.9326 508.2 56.8659C504.733 37.5326 490.6 18.0659 473.667 9.13258C456.2 -0.0674175 467 0.332582 254.333 0.465916C139.667 0.599249 59.6667 1.13258 55.6667 1.93258ZM207 162.599C225.933 167.133 248.2 182.199 259.4 197.933C272.733 216.599 278.067 233.133 278.067 254.999C277.933 271.666 275.533 282.066 268.333 296.999C237.4 360.866 149.133 368.999 106.333 312.066C93.4 294.866 87.8 277.666 87.8 254.999C87.8 232.599 93.5333 214.999 106.467 197.799C129.8 166.733 168.2 153.266 207 162.599ZM342.733 168.199C375.8 184.999 387 267.266 363 316.999C351.8 340.333 335.4 348.866 319.933 338.999C293.933 322.466 281.933 260.466 295.133 210.999C300.6 190.333 312.333 172.466 323.4 167.666C329.4 164.999 336.867 165.266 342.733 168.199ZM409 175.799C425.533 192.466 427.667 298.866 411.8 329.399C407.933 336.999 403.267 336.333 399.133 327.533C392.867 314.333 389.533 288.733 389.533 254.333C389.533 213.799 394.067 185.666 402.067 176.599C405.267 173.133 406.2 172.999 409 175.799Z" fill="black"/>
</svg>
