<svg xmlns="http://www.w3.org/2000/svg" width="70" height="70" fill="none" xmlns:v="https://vecta.io/nano"><rect width="70" height="70" rx="35" transform="matrix(-1 0 0 1 70 0)" fill="#fff" fill-opacity=".5"/><path d="M39.732.031c-5.323-.156-10.53.28-15.621 1.309-.493.325-1.734.959-3.724 1.903C11.757 7.336 5.734 13.802 2.32 22.641.051 28.528-.657 35.268.658 41.559l1.081 4.932c1.812 4.481 4.326 8.58 7.542 12.298 8.029 8.186 17.844 11.889 29.447 11.109 3.536-.413 6.741-1.241 9.615-2.485 8.758-3.992 14.934-9.994 18.529-18.007 3.989-8.89 4.223-19.506.36-28.029-2.558-5.644-5.647-9.908-9.268-12.791l-4.305-3.522a216.42 216.42 0 0 1-6.954-2.927C44.36 1.106 42.191.631 39.732.031zM3.958 35.003c0-8.24 3.273-16.143 9.099-21.97a31.06 31.06 0 0 1 33.854-6.735 31.05 31.05 0 0 1 10.078 6.735 31.07 31.07 0 0 1 6.734 10.08 31.08 31.08 0 0 1 2.365 11.89c0 4.08-.803 8.121-2.365 11.89a31.07 31.07 0 0 1-6.734 10.08 31.06 31.06 0 0 1-33.854 6.735 31.05 31.05 0 0 1-10.078-6.735 31.07 31.07 0 0 1-6.734-10.08 31.08 31.08 0 0 1-2.365-11.89zm39.239 2.036a.43.43 0 0 1-.006.24c-.017.046-.05.095-.101.145l-9.369 9.44c-.826.843-.872 1.726-.139 2.649a1.28 1.28 0 0 0 .531.398c.927.375 1.743.209 2.447-.5l13.111-13.069c.898-.898.898-1.794 0-2.687L36.572 20.58c-.746-.742-1.578-.862-2.497-.36-.135.072-.253.162-.354.272-.889.944-.874 1.876.044 2.795l9.173 9.168c.573.569.459.794-.341.677a9.45 9.45 0 0 0-1.618-.114c-6.406.05-12.713.046-18.921-.013-1.302-.013-1.995.632-2.08 1.935-.008.148 0 .297.025.449.156 1.008.744 1.511 1.764 1.511l21.247.013c.041 0 .08.012.113.035a.19.19 0 0 1 .071.092z" fill="#065d44"/></svg>