<?xml version="1.0" encoding="UTF-8" standalone="no"?>
<!DOCTYPE svg PUBLIC "-//W3C//DTD SVG 1.1//EN" "http://www.w3.org/Graphics/SVG/1.1/DTD/svg11.dtd">
<svg xmlns="http://www.w3.org/2000/svg" version="1.1" viewBox="0.00 0.00 30.00 46.00">
<g stroke-width="2.00" fill="none" stroke-linecap="butt">
<path stroke="#ff502d" vector-effect="non-scaling-stroke" d="
  M 15.02 0.00
  L 14.95 15.11"
/>
<path stroke="#d64780" vector-effect="non-scaling-stroke" d="
  M 14.95 15.11
  L 6.47 15.17"
/>
<path stroke="#8093ad" vector-effect="non-scaling-stroke" d="
  M 23.85 15.19
  L 20.87 15.28"
/>
<path stroke="#d65dad" vector-effect="non-scaling-stroke" d="
  M 15.06 15.15
  Q 14.57 14.81 14.95 15.11"
/>
<path stroke="#578aff" vector-effect="non-scaling-stroke" d="
  M 15.11 21.56
  Q 14.82 22.94 15.13 24.12"
/>
<path stroke="#5794be" vector-effect="non-scaling-stroke" d="
  M 14.98 30.23
  L 6.26 30.14"
/>
</g>
<path fill="#ff3a00" d="
  M 7.65 0.00
  L 8.48 0.00
  L 13.65 0.00
  L 15.02 0.00
  L 14.95 15.11
  L 6.47 15.17
  Q 1.31 13.97 0.00 8.86
  L 0.00 6.49
  Q 1.42 0.70 7.65 0.00
  Z"
/>
<path fill="#ff665a" d="
  M 15.02 0.00
  L 16.22 0.00
  Q 18.56 0.42 20.90 0.00
  L 21.99 0.00
  Q 28.32 0.49 30.00 6.37
  L 30.00 8.96
  Q 28.77 13.67 23.85 15.19
  L 20.87 15.28
  L 15.06 15.15
  Q 14.57 14.81 14.95 15.11
  L 15.02 0.00
  Z"
/>
<path fill="#ad54ff" d="
  M 14.95 15.11
  Q 14.57 14.81 15.06 15.15
  L 15.11 21.56
  Q 14.82 22.94 15.13 24.12
  L 14.98 30.23
  L 6.26 30.14
  Q 1.05 28.75 0.00 23.62
  L 0.00 21.54
  Q 1.25 16.30 6.47 15.17
  L 14.95 15.11
  Z"
/>
<path fill="#00bfff" d="
  M 20.87 15.28
  L 23.85 15.19
  Q 28.74 16.64 30.00 21.42
  L 30.00 23.92
  Q 27.71 31.30 20.75 29.94
  Q 16.52 29.11 15.13 24.12
  Q 14.82 22.94 15.11 21.56
  Q 16.04 16.73 20.87 15.28
  Z"
/>
<path fill="#00d37c" d="
  M 6.26 30.14
  L 14.98 30.23
  C 15.05 33.82 15.50 38.43 13.99 41.43
  Q 11.70 45.94 6.00 45.01
  Q 1.15 44.22 0.00 38.65
  L 0.00 36.53
  Q 1.18 31.47 6.26 30.14
  Z"
/>
</svg>
