<svg xmlns="http://www.w3.org/2000/svg" viewBox="0 0 30 46" xmlns:v="https://vecta.io/nano"><g fill="none" stroke-width="2"><path stroke="#ff502d" vector-effect="non-scaling-stroke" d="M15.02 0l-.07 15.11"/><path stroke="#d64780" vector-effect="non-scaling-stroke" d="M14.95 15.11l-8.48.06"/><path stroke="#8093ad" vector-effect="non-scaling-stroke" d="M23.85 15.19l-2.98.09"/><path stroke="#d65dad" vector-effect="non-scaling-stroke" d="M15.06 15.15q-.49-.34-.11-.04"/><path stroke="#578aff" vector-effect="non-scaling-stroke" d="M15.11 21.56q-.29 1.38.02 2.56"/><path stroke="#5794be" vector-effect="non-scaling-stroke" d="M14.98 30.23l-8.72-.09"/></g><path fill="#ff3a00" d="M7.65 0h.83 5.17 1.37l-.07 15.11-8.48.06Q1.31 13.97 0 8.86V6.49Q1.42.7 7.65 0z"/><path fill="#ff665a" d="M15.02 0h1.2q2.34.42 4.68 0h1.09Q28.32.49 30 6.37v2.59q-1.23 4.71-6.15 6.23l-2.98.09-5.81-.13q-.49-.34-.11-.04L15.02 0z"/><path fill="#ad54ff" d="M14.95 15.11q-.38-.3.11.04l.05 6.41q-.29 1.38.02 2.56l-.15 6.11-8.72-.09Q1.05 28.75 0 23.62v-2.08q1.25-5.24 6.47-6.37l8.48-.06z"/><path fill="#00bfff" d="M20.87 15.28l2.98-.09q4.89 1.45 6.15 6.23v2.5q-2.29 7.38-9.25 6.02-4.23-.83-5.62-5.82-.31-1.18-.02-2.56.93-4.83 5.76-6.28z"/><path fill="#00d37c" d="M6.26 30.14l8.72.09c.07 3.59.52 8.2-.99 11.2Q11.7 45.94 6 45.01q-4.85-.79-6-6.36v-2.12q1.18-5.06 6.26-6.39z"/></svg>