<svg xmlns="http://www.w3.org/2000/svg" width="33" height="37" fill-rule="evenodd" xmlns:v="https://vecta.io/nano"><path d="M3.823 9.287L23.655.507c3.162-1.4 6.788.201 8.1 3.575.424 1.092.567 2.285.413 3.455l-3.034 23.042c-.476 3.618-3.611 6.138-7 5.63-1.096-.164-2.13-.639-2.996-1.374L2.34 20.574c-2.679-2.274-3.123-6.436-.992-9.295.654-.877 1.506-1.563 2.476-1.992z" fill="#fa6400"/><path d="M18.39 20.246c-.128-.434-.193-.896-.193-1.376 0-2.568 1.983-4.592 4.756-4.592 2.386 0 4.672 1.667 4.672 5.136h-6.94c.05 1.088 1.042 1.888 2.638 1.888.891 0 1.781-.459 2.386-1.037l1.445 1.395c-1.227 1.361-2.857 1.718-4.016 1.718-1.589 0-2.82-.501-3.655-1.31-.917.771-1.916 1.31-3.11 1.31-2.79 0-3.647-3.163-3.781-4.422h-1.563v4.235H8.441V11.285h5.226c2.42 0 3.747 1.82 3.747 3.911 0 1.684-.941 3.078-2.487 3.571.302 1.258.773 2.279 1.949 2.279.385 0 1.089-.321 1.514-.801zm-7.362-3.399h2.302c.924 0 1.479-.68 1.479-1.667 0-1.003-.555-1.684-1.479-1.684h-2.302v3.35zm11.891-.51c-.807 0-1.882.374-2.185 1.548h4.319c-.168-1.122-1.294-1.548-2.134-1.548z" fill="#fff"/></svg>